%TF.GenerationSoftware,KiCad,Pcbnew,(5.1.10-1-10_14)*%
%TF.CreationDate,2021-09-29T23:55:06+08:00*%
%TF.ProjectId,esp32-nano,65737033-322d-46e6-916e-6f2e6b696361,1.0*%
%TF.SameCoordinates,Original*%
%TF.FileFunction,Soldermask,Bot*%
%TF.FilePolarity,Negative*%
%FSLAX46Y46*%
G04 Gerber Fmt 4.6, Leading zero omitted, Abs format (unit mm)*
G04 Created by KiCad (PCBNEW (5.1.10-1-10_14)) date 2021-09-29 23:55:06*
%MOMM*%
%LPD*%
G01*
G04 APERTURE LIST*
%ADD10C,0.150000*%
%ADD11C,0.130000*%
%ADD12C,2.200000*%
%ADD13O,2.100000X1.000000*%
%ADD14C,0.650000*%
%ADD15O,1.600000X1.000000*%
%ADD16C,1.270000*%
G04 APERTURE END LIST*
D10*
X34615333Y-26852571D02*
X34472476Y-26900190D01*
X34424857Y-26947809D01*
X34377238Y-27043047D01*
X34377238Y-27185904D01*
X34424857Y-27281142D01*
X34472476Y-27328761D01*
X34567714Y-27376380D01*
X34948666Y-27376380D01*
X34948666Y-26376380D01*
X34615333Y-26376380D01*
X34520095Y-26424000D01*
X34472476Y-26471619D01*
X34424857Y-26566857D01*
X34424857Y-26662095D01*
X34472476Y-26757333D01*
X34520095Y-26804952D01*
X34615333Y-26852571D01*
X34948666Y-26852571D01*
X34091523Y-26376380D02*
X33520095Y-26376380D01*
X33805809Y-27376380D02*
X33805809Y-26376380D01*
X33186761Y-27376380D02*
X33186761Y-26376380D01*
X32615333Y-27376380D01*
X32615333Y-26376380D01*
D11*
X41187619Y-27376380D02*
X41520952Y-26900190D01*
X41759047Y-27376380D02*
X41759047Y-26376380D01*
X41378095Y-26376380D01*
X41282857Y-26424000D01*
X41235238Y-26471619D01*
X41187619Y-26566857D01*
X41187619Y-26709714D01*
X41235238Y-26804952D01*
X41282857Y-26852571D01*
X41378095Y-26900190D01*
X41759047Y-26900190D01*
X40806666Y-27328761D02*
X40663809Y-27376380D01*
X40425714Y-27376380D01*
X40330476Y-27328761D01*
X40282857Y-27281142D01*
X40235238Y-27185904D01*
X40235238Y-27090666D01*
X40282857Y-26995428D01*
X40330476Y-26947809D01*
X40425714Y-26900190D01*
X40616190Y-26852571D01*
X40711428Y-26804952D01*
X40759047Y-26757333D01*
X40806666Y-26662095D01*
X40806666Y-26566857D01*
X40759047Y-26471619D01*
X40711428Y-26424000D01*
X40616190Y-26376380D01*
X40378095Y-26376380D01*
X40235238Y-26424000D01*
X39949523Y-26376380D02*
X39378095Y-26376380D01*
X39663809Y-27376380D02*
X39663809Y-26376380D01*
D12*
%TO.C,REF\u002A\u002A*%
X76454000Y-44958000D03*
%TD*%
%TO.C,REF\u002A\u002A*%
X76454000Y-27178000D03*
%TD*%
%TO.C,REF\u002A\u002A*%
X27178000Y-44958000D03*
%TD*%
%TO.C,REF\u002A\u002A*%
X27178000Y-27178000D03*
%TD*%
D13*
%TO.C,USB1*%
X32086000Y-40388000D03*
X32086000Y-31748000D03*
D14*
X31556000Y-33178000D03*
D15*
X27906000Y-31748000D03*
D14*
X31556000Y-38958000D03*
D15*
X27906000Y-40388000D03*
%TD*%
D16*
%TO.C,P3*%
X30226000Y-44958000D03*
X32766000Y-44958000D03*
X35306000Y-44958000D03*
X37846000Y-44958000D03*
X40386000Y-44958000D03*
X42926000Y-44958000D03*
X45466000Y-44958000D03*
X48006000Y-44958000D03*
X50546000Y-44958000D03*
X53086000Y-44958000D03*
X55626000Y-44958000D03*
X58166000Y-44958000D03*
X60706000Y-44958000D03*
X63246000Y-44958000D03*
X65786000Y-44958000D03*
X68326000Y-44958000D03*
X70866000Y-44958000D03*
X73406000Y-44958000D03*
%TD*%
%TO.C,P2*%
X45466000Y-27178000D03*
X48006000Y-27178000D03*
X50546000Y-27178000D03*
X53086000Y-27178000D03*
X55626000Y-27178000D03*
X58166000Y-27178000D03*
X60706000Y-27178000D03*
X63246000Y-27178000D03*
X65786000Y-27178000D03*
X68326000Y-27178000D03*
X70866000Y-27178000D03*
X73406000Y-27178000D03*
%TD*%
M02*
