%TF.GenerationSoftware,KiCad,Pcbnew,(5.1.10-1-10_14)*%
%TF.CreationDate,2021-09-29T18:41:22+08:00*%
%TF.ProjectId,esp32-nano,65737033-322d-46e6-916e-6f2e6b696361,1.0*%
%TF.SameCoordinates,Original*%
%TF.FileFunction,Copper,L2,Bot*%
%TF.FilePolarity,Positive*%
%FSLAX46Y46*%
G04 Gerber Fmt 4.6, Leading zero omitted, Abs format (unit mm)*
G04 Created by KiCad (PCBNEW (5.1.10-1-10_14)) date 2021-09-29 18:41:22*
%MOMM*%
%LPD*%
G01*
G04 APERTURE LIST*
%TA.AperFunction,ComponentPad*%
%ADD10O,2.100000X1.000000*%
%TD*%
%TA.AperFunction,ComponentPad*%
%ADD11O,1.600000X1.000000*%
%TD*%
%TA.AperFunction,ComponentPad*%
%ADD12C,1.270000*%
%TD*%
%TA.AperFunction,ViaPad*%
%ADD13C,0.508000*%
%TD*%
%TA.AperFunction,Conductor*%
%ADD14C,0.381000*%
%TD*%
%TA.AperFunction,Conductor*%
%ADD15C,0.254000*%
%TD*%
%TA.AperFunction,Conductor*%
%ADD16C,0.152400*%
%TD*%
%TA.AperFunction,Conductor*%
%ADD17C,0.100000*%
%TD*%
G04 APERTURE END LIST*
D10*
%TO.P,USB1,S1*%
%TO.N,GND*%
X32086000Y-40388000D03*
X32086000Y-31748000D03*
D11*
X27906000Y-31748000D03*
X27906000Y-40388000D03*
%TD*%
D12*
%TO.P,P3,18*%
%TO.N,GND*%
X30226000Y-44958000D03*
%TO.P,P3,17*%
X32766000Y-44958000D03*
%TO.P,P3,16*%
%TO.N,GPIO4*%
X35306000Y-44958000D03*
%TO.P,P3,15*%
%TO.N,GPIO13*%
X37846000Y-44958000D03*
%TO.P,P3,14*%
%TO.N,GPIO14*%
X40386000Y-44958000D03*
%TO.P,P3,13*%
%TO.N,GPIO15*%
X42926000Y-44958000D03*
%TO.P,P3,12*%
%TO.N,GPIO27*%
X45466000Y-44958000D03*
%TO.P,P3,11*%
%TO.N,GPIO9*%
X48006000Y-44958000D03*
%TO.P,P3,10*%
%TO.N,GPIO10*%
X50546000Y-44958000D03*
%TO.P,P3,9*%
%TO.N,GPIO18*%
X53086000Y-44958000D03*
%TO.P,P3,8*%
%TO.N,GPIO19*%
X55626000Y-44958000D03*
%TO.P,P3,7*%
%TO.N,GPIO11*%
X58166000Y-44958000D03*
%TO.P,P3,6*%
%TO.N,GPIO6*%
X60706000Y-44958000D03*
%TO.P,P3,5*%
%TO.N,GPIO7*%
X63246000Y-44958000D03*
%TO.P,P3,4*%
%TO.N,GPIO8*%
X65786000Y-44958000D03*
%TO.P,P3,3*%
%TO.N,GPIO23*%
X68326000Y-44958000D03*
%TO.P,P3,2*%
%TO.N,GPIO25*%
X70866000Y-44958000D03*
%TO.P,P3,1*%
%TO.N,GPIO26*%
X73406000Y-44958000D03*
%TD*%
%TO.P,P2,12*%
%TO.N,VBUS*%
X45466000Y-27178000D03*
%TO.P,P2,11*%
%TO.N,+3V3*%
X48006000Y-27178000D03*
%TO.P,P2,10*%
%TO.N,GPIO0*%
X50546000Y-27178000D03*
%TO.P,P2,9*%
%TO.N,GPIO2*%
X53086000Y-27178000D03*
%TO.P,P2,8*%
%TO.N,GPIO5*%
X55626000Y-27178000D03*
%TO.P,P2,7*%
%TO.N,GPIO12*%
X58166000Y-27178000D03*
%TO.P,P2,6*%
%TO.N,GPIO34*%
X60706000Y-27178000D03*
%TO.P,P2,5*%
%TO.N,GPIO35*%
X63246000Y-27178000D03*
%TO.P,P2,4*%
%TO.N,SENSOR_VN*%
X65786000Y-27178000D03*
%TO.P,P2,3*%
%TO.N,GPIO38*%
X68326000Y-27178000D03*
%TO.P,P2,2*%
%TO.N,GPIO37*%
X70866000Y-27178000D03*
%TO.P,P2,1*%
%TO.N,SENSOR_VP*%
X73406000Y-27178000D03*
%TD*%
D13*
%TO.N,+3V3*%
X43815000Y-32766000D03*
X57813000Y-40739006D03*
X66040000Y-29845000D03*
X60762967Y-38478467D03*
X60012250Y-37727750D03*
X61742250Y-37937750D03*
X67965250Y-30063750D03*
X54884250Y-32143000D03*
X55944870Y-34923769D03*
%TO.N,EN*%
X55697050Y-30876550D03*
X60726250Y-35143750D03*
X63266250Y-32298950D03*
X58948250Y-29809750D03*
X61488250Y-29809750D03*
%TO.N,Net-(C9-Pad2)*%
X60396050Y-33645150D03*
X59684850Y-30825749D03*
%TO.N,VBUS*%
X47878999Y-31750000D03*
X36096010Y-32738000D03*
%TO.N,GPIO0*%
X54102000Y-36703000D03*
X61762250Y-39977750D03*
%TO.N,GPIO2*%
X62262250Y-39477750D03*
%TO.N,GPIO5*%
X68175287Y-42439528D03*
%TO.N,GPIO12*%
X62250250Y-37434950D03*
X56941650Y-36515350D03*
X55481009Y-35931161D03*
%TO.N,GPIO34*%
X64664416Y-32756129D03*
%TO.N,GPIO35*%
X64109853Y-32446774D03*
%TO.N,GPIO4*%
X46762250Y-44227778D03*
%TO.N,GPIO13*%
X62275810Y-38515484D03*
%TO.N,GPIO14*%
X61742250Y-36997960D03*
%TO.N,GPIO15*%
X61762250Y-38977750D03*
%TO.N,GPIO18*%
X68512250Y-42977750D03*
%TO.N,GPIO25*%
X70505250Y-41982328D03*
X61742250Y-34381750D03*
%TO.N,GPIO26*%
X61716860Y-35270750D03*
X71089450Y-41061950D03*
%TO.N,CP_Tx*%
X60012250Y-41977750D03*
X71013218Y-38953750D03*
%TO.N,DTR*%
X48641000Y-37973000D03*
X56642000Y-37592000D03*
%TO.N,Net-(R4-Pad1)*%
X56758224Y-39542861D03*
X58012250Y-37977734D03*
%TO.N,RTS*%
X43762250Y-40227750D03*
X56762258Y-41477750D03*
%TO.N,CP_Rx*%
X43762250Y-39227750D03*
X70512250Y-38477750D03*
X61262250Y-41477750D03*
%TO.N,USB-PWR-DM*%
X31985278Y-36214258D03*
X39243000Y-35433000D03*
%TO.N,USB-PWR-DP*%
X31750000Y-36957000D03*
X40132000Y-35433000D03*
%TO.N,GPIO32*%
X60446850Y-31663950D03*
X62349071Y-32823575D03*
%TO.N,GPIO33*%
X61716860Y-32883150D03*
X60751650Y-32476750D03*
%TO.N,GPIO21*%
X59964250Y-35016750D03*
X70886250Y-36413750D03*
%TO.N,GPIO22*%
X53123747Y-34616253D03*
X71394250Y-35651750D03*
%TO.N,GND*%
X60726250Y-40858750D03*
X67691000Y-39116000D03*
X66421000Y-39116000D03*
X67691000Y-37846000D03*
X66421000Y-37846000D03*
X65151000Y-37846000D03*
X65151000Y-39116000D03*
X67691000Y-36449000D03*
X66421000Y-36449000D03*
X65151000Y-36449000D03*
X44831000Y-36703000D03*
X35433000Y-30734000D03*
X33782000Y-26289000D03*
X40640000Y-26289000D03*
X36068000Y-33782000D03*
X71755000Y-30734000D03*
X58928000Y-40767000D03*
X47848450Y-36007350D03*
X66040000Y-32131000D03*
X57012250Y-33727750D03*
X58262250Y-33727750D03*
X58262250Y-32227750D03*
X57012250Y-32227750D03*
X62250250Y-40858750D03*
X61742250Y-42509750D03*
X70632250Y-31714750D03*
X61234250Y-28539750D03*
X49931250Y-29682750D03*
X73019850Y-32451350D03*
X73019850Y-31790950D03*
X73019850Y-31130550D03*
X73019850Y-30470150D03*
X73019850Y-29809750D03*
X73019850Y-29149350D03*
X73629450Y-29149350D03*
X74239050Y-29149350D03*
X74848650Y-29149350D03*
X75458250Y-29149350D03*
X76067850Y-29149350D03*
X76677450Y-29149350D03*
X77287050Y-29149350D03*
X77896650Y-29149350D03*
X73045250Y-33467350D03*
X73045250Y-34097270D03*
X73045250Y-34727190D03*
X73045250Y-35357110D03*
X73045250Y-35987030D03*
X73045250Y-36616950D03*
X73045250Y-37246870D03*
X73045250Y-37876790D03*
X73045250Y-38506710D03*
X73045250Y-39136630D03*
X73045250Y-39766550D03*
X73045250Y-40396470D03*
X73045250Y-41026390D03*
X73045250Y-41656310D03*
X73045250Y-42286230D03*
X73045250Y-42916150D03*
X73652027Y-42916150D03*
X74258804Y-42916150D03*
X74865581Y-42916150D03*
X75472358Y-42916150D03*
X76079135Y-42916150D03*
X76685912Y-42916150D03*
X77292689Y-42916150D03*
X77899466Y-42916150D03*
X63063050Y-29174750D03*
X54477850Y-35677150D03*
X52598250Y-36083550D03*
X63520250Y-42509750D03*
X67076250Y-43271750D03*
X48280250Y-39715750D03*
X50820250Y-41493750D03*
X42184250Y-34127750D03*
%TD*%
D14*
%TO.N,+3V3*%
X48640999Y-27812999D02*
X48006000Y-27178000D01*
X48640999Y-31833822D02*
X48640999Y-27812999D01*
X47708821Y-32766000D02*
X48640999Y-31833822D01*
X43815000Y-32766000D02*
X47708821Y-32766000D01*
X43815000Y-38227000D02*
X46327006Y-40739006D01*
X43815000Y-32766000D02*
X43815000Y-38227000D01*
X46327006Y-40739006D02*
X57813000Y-40739006D01*
D15*
X57813000Y-39927000D02*
X57813000Y-40739006D01*
X60012250Y-37727750D02*
X57813000Y-39927000D01*
X61303684Y-37937750D02*
X61742250Y-37937750D01*
X60762967Y-38478467D02*
X61303684Y-37937750D01*
D16*
X67746500Y-29845000D02*
X67965250Y-30063750D01*
X66040000Y-29845000D02*
X67746500Y-29845000D01*
X54884250Y-32143000D02*
X55439500Y-32143000D01*
X55944870Y-32648370D02*
X55944870Y-34923769D01*
X55439500Y-32143000D02*
X55944870Y-32648370D01*
%TO.N,EN*%
X55443051Y-31130549D02*
X55697050Y-30876550D01*
X54071451Y-31130549D02*
X55443051Y-31130549D01*
X60726250Y-35143750D02*
X60396049Y-35473951D01*
X54173038Y-34940538D02*
X53360250Y-34127750D01*
X54813042Y-34940538D02*
X54173038Y-34940538D01*
X53360250Y-31841750D02*
X54071451Y-31130549D01*
X55346455Y-35473951D02*
X54813042Y-34940538D01*
X53360250Y-34127750D02*
X53360250Y-31841750D01*
X60396049Y-35473951D02*
X55346455Y-35473951D01*
X58948250Y-29809750D02*
X61488250Y-29809750D01*
X62758250Y-29809750D02*
X61488250Y-29809750D01*
X63266250Y-30317750D02*
X62758250Y-29809750D01*
X63266250Y-32298950D02*
X63266250Y-30317750D01*
%TO.N,Net-(C9-Pad2)*%
X60396050Y-33645150D02*
X59684850Y-32933950D01*
X59684850Y-32933950D02*
X59684850Y-30825749D01*
D15*
%TO.N,VBUS*%
X45466000Y-27178000D02*
X47878999Y-29590999D01*
X47878999Y-29590999D02*
X47878999Y-31750000D01*
D14*
X45466000Y-27178000D02*
X39906000Y-32738000D01*
X39906000Y-32738000D02*
X36096010Y-32738000D01*
D16*
%TO.N,GPIO0*%
X50546000Y-36063300D02*
X50546000Y-27178000D01*
X51185700Y-36703000D02*
X50546000Y-36063300D01*
X54102000Y-36703000D02*
X51185700Y-36703000D01*
X56334248Y-35754580D02*
X55385828Y-36703000D01*
X63512250Y-38977750D02*
X63512250Y-36869275D01*
X62397555Y-35754580D02*
X56334248Y-35754580D01*
X61762250Y-39977750D02*
X62512250Y-39977750D01*
X62512250Y-39977750D02*
X63512250Y-38977750D01*
X63512250Y-36869275D02*
X62397555Y-35754580D01*
X55385828Y-36703000D02*
X54102000Y-36703000D01*
%TO.N,GPIO2*%
X52135750Y-26227750D02*
X53086000Y-27178000D01*
X49890301Y-37160201D02*
X49262250Y-36532150D01*
X55329799Y-37160201D02*
X49890301Y-37160201D01*
X56456010Y-36033990D02*
X55329799Y-37160201D01*
X63232839Y-36985010D02*
X62281819Y-36033990D01*
X62281819Y-36033990D02*
X56456010Y-36033990D01*
X63232839Y-38507161D02*
X63232839Y-36985010D01*
X50008981Y-26227750D02*
X52135750Y-26227750D01*
X49262250Y-26974481D02*
X50008981Y-26227750D01*
X49262250Y-36532150D02*
X49262250Y-26974481D01*
X62262250Y-39477750D02*
X63232839Y-38507161D01*
%TO.N,GPIO5*%
X65908927Y-26060389D02*
X56743611Y-26060389D01*
X71108872Y-42439528D02*
X72029250Y-41519150D01*
X72029250Y-32180712D02*
X65908927Y-26060389D01*
X68175287Y-42439528D02*
X71108872Y-42439528D01*
X72029250Y-41519150D02*
X72029250Y-32180712D01*
X56743611Y-26060389D02*
X55626000Y-27178000D01*
%TO.N,GPIO12*%
X62250250Y-36829302D02*
X61910898Y-36489950D01*
X62250250Y-37434950D02*
X62250250Y-36829302D01*
X56967050Y-36489950D02*
X56941650Y-36515350D01*
X61910898Y-36489950D02*
X56967050Y-36489950D01*
X55408519Y-35931161D02*
X55481009Y-35931161D01*
X54697307Y-35219949D02*
X55408519Y-35931161D01*
X53080849Y-35219949D02*
X54697307Y-35219949D01*
X52478841Y-34617941D02*
X53080849Y-35219949D01*
X52478841Y-30423014D02*
X52478841Y-34617941D01*
X54885654Y-28016201D02*
X52478841Y-30423014D01*
X57327799Y-28016201D02*
X54885654Y-28016201D01*
X58166000Y-27178000D02*
X57327799Y-28016201D01*
%TO.N,GPIO34*%
X61544201Y-26339799D02*
X63648337Y-26339799D01*
X63648337Y-26339799D02*
X64664416Y-27355878D01*
X60706000Y-27178000D02*
X61544201Y-26339799D01*
X64664416Y-27355878D02*
X64664416Y-32756129D01*
%TO.N,GPIO35*%
X64109853Y-28041853D02*
X64109853Y-32446774D01*
X63246000Y-27178000D02*
X64109853Y-28041853D01*
%TO.N,GPIO4*%
X46012250Y-46227750D02*
X46762250Y-45477750D01*
X35306000Y-44958000D02*
X36575750Y-46227750D01*
X36575750Y-46227750D02*
X46012250Y-46227750D01*
X46762250Y-45477750D02*
X46762250Y-44227778D01*
%TO.N,GPIO13*%
X38836340Y-45948340D02*
X41041660Y-45948340D01*
X59732841Y-41033963D02*
X59732841Y-40257159D01*
X37846000Y-44958000D02*
X38836340Y-45948340D01*
X41041660Y-45948340D02*
X41762250Y-45227750D01*
X41762250Y-44227750D02*
X42921430Y-43068570D01*
X57698234Y-43068570D02*
X59732841Y-41033963D01*
X41762250Y-45227750D02*
X41762250Y-44227750D01*
X61474516Y-38515484D02*
X62275810Y-38515484D01*
X42921430Y-43068570D02*
X57698234Y-43068570D01*
X59732841Y-40257159D02*
X61474516Y-38515484D01*
%TO.N,GPIO14*%
X57582498Y-42789160D02*
X59453430Y-40918228D01*
X40386000Y-44958000D02*
X42554840Y-42789160D01*
X42554840Y-42789160D02*
X57582498Y-42789160D01*
X59453430Y-38978360D02*
X61433830Y-36997960D01*
X59453430Y-40918228D02*
X59453430Y-38978360D01*
X61433830Y-36997960D02*
X61742250Y-36997960D01*
%TO.N,GPIO15*%
X42926000Y-44958000D02*
X44536020Y-43347980D01*
X60012252Y-41149698D02*
X60012252Y-40727748D01*
X60012252Y-40727748D02*
X61762250Y-38977750D01*
X57813970Y-43347980D02*
X60012252Y-41149698D01*
X44536020Y-43347980D02*
X57813970Y-43347980D01*
%TO.N,GPIO18*%
X54105750Y-45977750D02*
X66262250Y-45977750D01*
X67012250Y-44477750D02*
X68512250Y-42977750D01*
X53086000Y-44958000D02*
X54105750Y-45977750D01*
X66262250Y-45977750D02*
X67012250Y-45227750D01*
X67012250Y-45227750D02*
X67012250Y-44477750D01*
%TO.N,GPIO25*%
X70864460Y-41982328D02*
X70505250Y-41982328D01*
X71749839Y-41096949D02*
X70864460Y-41982328D01*
X69522544Y-33892898D02*
X70378250Y-34748604D01*
X70378250Y-34748604D02*
X70378250Y-36718572D01*
X71749839Y-38090161D02*
X71749839Y-41096949D01*
X62231102Y-33892898D02*
X69522544Y-33892898D01*
X61742250Y-34381750D02*
X62231102Y-33892898D01*
X70378250Y-36718572D02*
X71749839Y-38090161D01*
%TO.N,GPIO26*%
X61716860Y-35270750D02*
X62732860Y-34254750D01*
X71470428Y-40680972D02*
X71089450Y-41061950D01*
X69870250Y-34635750D02*
X69870250Y-36769394D01*
X69489250Y-34254750D02*
X69870250Y-34635750D01*
X69870250Y-36769394D02*
X71470428Y-38369572D01*
X62732860Y-34254750D02*
X69489250Y-34254750D01*
X71470428Y-38369572D02*
X71470428Y-40680972D01*
%TO.N,CP_Tx*%
X60012250Y-41977750D02*
X68130396Y-41977750D01*
X68130396Y-41977750D02*
X71013218Y-39094928D01*
X71013218Y-39094928D02*
X71013218Y-38953750D01*
%TO.N,DTR*%
X49022000Y-37592000D02*
X56642000Y-37592000D01*
X48641000Y-37973000D02*
X49022000Y-37592000D01*
%TO.N,Net-(R4-Pad1)*%
X58012250Y-37977750D02*
X58012250Y-37977734D01*
X56758224Y-39231776D02*
X58012250Y-37977750D01*
X56758224Y-39542861D02*
X56758224Y-39231776D01*
%TO.N,RTS*%
X43762250Y-40227750D02*
X46044250Y-42509750D01*
X55730258Y-42509750D02*
X56762258Y-41477750D01*
X46044250Y-42509750D02*
X55730258Y-42509750D01*
%TO.N,CP_Rx*%
X70512250Y-38477750D02*
X70512250Y-39200750D01*
X68235250Y-41477750D02*
X61262250Y-41477750D01*
X70512250Y-39200750D02*
X68235250Y-41477750D01*
%TO.N,USB-PWR-DM*%
X38461742Y-36214258D02*
X39243000Y-35433000D01*
X31985278Y-36214258D02*
X38461742Y-36214258D01*
%TO.N,USB-PWR-DP*%
X31750000Y-36957000D02*
X38608000Y-36957000D01*
X38608000Y-36957000D02*
X40132000Y-35433000D01*
%TO.N,GPIO32*%
X61189446Y-31663950D02*
X62349071Y-32823575D01*
X60446850Y-31663950D02*
X61189446Y-31663950D01*
%TO.N,GPIO33*%
X61158050Y-32883150D02*
X60751650Y-32476750D01*
X61716860Y-32883150D02*
X61158050Y-32883150D01*
%TO.N,GPIO21*%
X70886250Y-34861458D02*
X70886250Y-36413750D01*
X69517542Y-33492750D02*
X70886250Y-34861458D01*
X59964250Y-35016750D02*
X61488250Y-33492750D01*
X61488250Y-33492750D02*
X69517542Y-33492750D01*
%TO.N,GPIO22*%
X69717839Y-33213339D02*
X71394250Y-34889750D01*
X54014104Y-30284750D02*
X60486906Y-30284750D01*
X53123747Y-34616253D02*
X52826839Y-34319345D01*
X52826839Y-31472015D02*
X54014104Y-30284750D01*
X52826839Y-34319345D02*
X52826839Y-31472015D01*
X63415495Y-33213339D02*
X69717839Y-33213339D01*
X60486906Y-30284750D02*
X63415495Y-33213339D01*
X71394250Y-34889750D02*
X71394250Y-35651750D01*
%TD*%
D15*
%TO.N,GND*%
X56679735Y-25707753D02*
X56673587Y-25708358D01*
X56607293Y-25728468D01*
X56606255Y-25728783D01*
X56544201Y-25761951D01*
X56513006Y-25787553D01*
X56507082Y-25792415D01*
X56489811Y-25806589D01*
X56478629Y-25820214D01*
X55969876Y-26328967D01*
X55893187Y-26297201D01*
X55716218Y-26262000D01*
X55535782Y-26262000D01*
X55358813Y-26297201D01*
X55192111Y-26366251D01*
X55042084Y-26466496D01*
X54914496Y-26594084D01*
X54814251Y-26744111D01*
X54745201Y-26910813D01*
X54710000Y-27087782D01*
X54710000Y-27268218D01*
X54745201Y-27445187D01*
X54814251Y-27611889D01*
X54847112Y-27661069D01*
X54821778Y-27663565D01*
X54815630Y-27664170D01*
X54753803Y-27682925D01*
X54748298Y-27684595D01*
X54686244Y-27717763D01*
X54631854Y-27762401D01*
X54620672Y-27776026D01*
X52238662Y-30158036D01*
X52225041Y-30169215D01*
X52213863Y-30182835D01*
X52213857Y-30182841D01*
X52202212Y-30197031D01*
X52180403Y-30223605D01*
X52148196Y-30283861D01*
X52147235Y-30285659D01*
X52127221Y-30351638D01*
X52126810Y-30352992D01*
X52121641Y-30405471D01*
X52121641Y-30405478D01*
X52119914Y-30423014D01*
X52121641Y-30440550D01*
X52121642Y-34600395D01*
X52119914Y-34617941D01*
X52126810Y-34687964D01*
X52147235Y-34755296D01*
X52153873Y-34767715D01*
X52180404Y-34817351D01*
X52193416Y-34833206D01*
X52213857Y-34858114D01*
X52213864Y-34858121D01*
X52225042Y-34871741D01*
X52238662Y-34882919D01*
X52815865Y-35460122D01*
X52827049Y-35473749D01*
X52881439Y-35518387D01*
X52929310Y-35543974D01*
X52943493Y-35551555D01*
X53010825Y-35571980D01*
X53016973Y-35572585D01*
X53063305Y-35577149D01*
X53063313Y-35577149D01*
X53080849Y-35578876D01*
X53098385Y-35577149D01*
X54549350Y-35577149D01*
X54946009Y-35973808D01*
X54946009Y-35983854D01*
X54966568Y-36087215D01*
X55006898Y-36184579D01*
X55065447Y-36272204D01*
X55139043Y-36345800D01*
X54501405Y-36345800D01*
X54443043Y-36287438D01*
X54355418Y-36228889D01*
X54258054Y-36188559D01*
X54154693Y-36168000D01*
X54049307Y-36168000D01*
X53945946Y-36188559D01*
X53848582Y-36228889D01*
X53760957Y-36287438D01*
X53702595Y-36345800D01*
X51333657Y-36345800D01*
X50903200Y-35915343D01*
X50903200Y-28021515D01*
X50979889Y-27989749D01*
X51129916Y-27889504D01*
X51257504Y-27761916D01*
X51357749Y-27611889D01*
X51426799Y-27445187D01*
X51462000Y-27268218D01*
X51462000Y-27087782D01*
X51426799Y-26910813D01*
X51357749Y-26744111D01*
X51257504Y-26594084D01*
X51248370Y-26584950D01*
X51987793Y-26584950D01*
X52236967Y-26834124D01*
X52205201Y-26910813D01*
X52170000Y-27087782D01*
X52170000Y-27268218D01*
X52205201Y-27445187D01*
X52274251Y-27611889D01*
X52374496Y-27761916D01*
X52502084Y-27889504D01*
X52652111Y-27989749D01*
X52818813Y-28058799D01*
X52995782Y-28094000D01*
X53176218Y-28094000D01*
X53353187Y-28058799D01*
X53519889Y-27989749D01*
X53669916Y-27889504D01*
X53797504Y-27761916D01*
X53897749Y-27611889D01*
X53966799Y-27445187D01*
X54002000Y-27268218D01*
X54002000Y-27087782D01*
X53966799Y-26910813D01*
X53897749Y-26744111D01*
X53797504Y-26594084D01*
X53669916Y-26466496D01*
X53519889Y-26366251D01*
X53353187Y-26297201D01*
X53176218Y-26262000D01*
X52995782Y-26262000D01*
X52818813Y-26297201D01*
X52742124Y-26328967D01*
X52400732Y-25987575D01*
X52389550Y-25973950D01*
X52335160Y-25929312D01*
X52273106Y-25896144D01*
X52205773Y-25875719D01*
X52153294Y-25870550D01*
X52153286Y-25870550D01*
X52135750Y-25868823D01*
X52118214Y-25870550D01*
X50026516Y-25870550D01*
X50008980Y-25868823D01*
X49991444Y-25870550D01*
X49991437Y-25870550D01*
X49945697Y-25875055D01*
X49938957Y-25875719D01*
X49884897Y-25892118D01*
X49871625Y-25896144D01*
X49809571Y-25929312D01*
X49755181Y-25973950D01*
X49743999Y-25987575D01*
X49022071Y-26709503D01*
X49008451Y-26720681D01*
X48997273Y-26734301D01*
X48997266Y-26734308D01*
X48976856Y-26759179D01*
X48963813Y-26775071D01*
X48953943Y-26793537D01*
X48930644Y-26837126D01*
X48910219Y-26904458D01*
X48903323Y-26974481D01*
X48905051Y-26992027D01*
X48905051Y-27002573D01*
X48886799Y-26910813D01*
X48817749Y-26744111D01*
X48717504Y-26594084D01*
X48589916Y-26466496D01*
X48439889Y-26366251D01*
X48273187Y-26297201D01*
X48096218Y-26262000D01*
X47915782Y-26262000D01*
X47738813Y-26297201D01*
X47572111Y-26366251D01*
X47422084Y-26466496D01*
X47294496Y-26594084D01*
X47194251Y-26744111D01*
X47125201Y-26910813D01*
X47090000Y-27087782D01*
X47090000Y-27268218D01*
X47125201Y-27445187D01*
X47194251Y-27611889D01*
X47294496Y-27761916D01*
X47422084Y-27889504D01*
X47572111Y-27989749D01*
X47738813Y-28058799D01*
X47915782Y-28094000D01*
X48096218Y-28094000D01*
X48169500Y-28079423D01*
X48169500Y-29301842D01*
X48168894Y-29301104D01*
X48153330Y-29288331D01*
X46336075Y-27471077D01*
X46346799Y-27445187D01*
X46382000Y-27268218D01*
X46382000Y-27087782D01*
X46346799Y-26910813D01*
X46277749Y-26744111D01*
X46177504Y-26594084D01*
X46049916Y-26466496D01*
X45899889Y-26366251D01*
X45733187Y-26297201D01*
X45556218Y-26262000D01*
X45375782Y-26262000D01*
X45198813Y-26297201D01*
X45032111Y-26366251D01*
X44882084Y-26466496D01*
X44754496Y-26594084D01*
X44654251Y-26744111D01*
X44585201Y-26910813D01*
X44550000Y-27087782D01*
X44550000Y-27268218D01*
X44576376Y-27400823D01*
X39710699Y-32266500D01*
X36353336Y-32266500D01*
X36349428Y-32263889D01*
X36252064Y-32223559D01*
X36148703Y-32203000D01*
X36043317Y-32203000D01*
X35939956Y-32223559D01*
X35842592Y-32263889D01*
X35754967Y-32322438D01*
X35680448Y-32396957D01*
X35621899Y-32484582D01*
X35581569Y-32581946D01*
X35561010Y-32685307D01*
X35561010Y-32790693D01*
X35581569Y-32894054D01*
X35621899Y-32991418D01*
X35680448Y-33079043D01*
X35754967Y-33153562D01*
X35842592Y-33212111D01*
X35939956Y-33252441D01*
X36043317Y-33273000D01*
X36148703Y-33273000D01*
X36252064Y-33252441D01*
X36349428Y-33212111D01*
X36353336Y-33209500D01*
X39882839Y-33209500D01*
X39906000Y-33211781D01*
X39998430Y-33202678D01*
X40047639Y-33187750D01*
X40087308Y-33175717D01*
X40169219Y-33131935D01*
X40241014Y-33073014D01*
X40255783Y-33055018D01*
X45243177Y-28067624D01*
X45375782Y-28094000D01*
X45556218Y-28094000D01*
X45733187Y-28058799D01*
X45759077Y-28048075D01*
X47470999Y-29759998D01*
X47471000Y-31401394D01*
X47463437Y-31408957D01*
X47404888Y-31496582D01*
X47364558Y-31593946D01*
X47343999Y-31697307D01*
X47343999Y-31802693D01*
X47364558Y-31906054D01*
X47404888Y-32003418D01*
X47463437Y-32091043D01*
X47537956Y-32165562D01*
X47600600Y-32207419D01*
X47513520Y-32294500D01*
X44072326Y-32294500D01*
X44068418Y-32291889D01*
X43971054Y-32251559D01*
X43867693Y-32231000D01*
X43762307Y-32231000D01*
X43658946Y-32251559D01*
X43561582Y-32291889D01*
X43473957Y-32350438D01*
X43399438Y-32424957D01*
X43340889Y-32512582D01*
X43300559Y-32609946D01*
X43280000Y-32713307D01*
X43280000Y-32818693D01*
X43300559Y-32922054D01*
X43340889Y-33019418D01*
X43343500Y-33023326D01*
X43343501Y-38203829D01*
X43341219Y-38227000D01*
X43350322Y-38319430D01*
X43371294Y-38388562D01*
X43377284Y-38408308D01*
X43421066Y-38490219D01*
X43479987Y-38562014D01*
X43497978Y-38576779D01*
X43629811Y-38708612D01*
X43606196Y-38713309D01*
X43508832Y-38753639D01*
X43421207Y-38812188D01*
X43346688Y-38886707D01*
X43288139Y-38974332D01*
X43247809Y-39071696D01*
X43227250Y-39175057D01*
X43227250Y-39280443D01*
X43247809Y-39383804D01*
X43288139Y-39481168D01*
X43346688Y-39568793D01*
X43421207Y-39643312D01*
X43508832Y-39701861D01*
X43571333Y-39727750D01*
X43508832Y-39753639D01*
X43421207Y-39812188D01*
X43346688Y-39886707D01*
X43288139Y-39974332D01*
X43247809Y-40071696D01*
X43227250Y-40175057D01*
X43227250Y-40280443D01*
X43247809Y-40383804D01*
X43288139Y-40481168D01*
X43346688Y-40568793D01*
X43421207Y-40643312D01*
X43508832Y-40701861D01*
X43606196Y-40742191D01*
X43709557Y-40762750D01*
X43792093Y-40762750D01*
X45461303Y-42431960D01*
X42572376Y-42431960D01*
X42554840Y-42430233D01*
X42537304Y-42431960D01*
X42537296Y-42431960D01*
X42490964Y-42436524D01*
X42484816Y-42437129D01*
X42421160Y-42456439D01*
X42417484Y-42457554D01*
X42355430Y-42490722D01*
X42339691Y-42503639D01*
X42314666Y-42524176D01*
X42314660Y-42524182D01*
X42301040Y-42535360D01*
X42289862Y-42548980D01*
X40729876Y-44108967D01*
X40653187Y-44077201D01*
X40476218Y-44042000D01*
X40295782Y-44042000D01*
X40118813Y-44077201D01*
X39952111Y-44146251D01*
X39802084Y-44246496D01*
X39674496Y-44374084D01*
X39574251Y-44524111D01*
X39505201Y-44690813D01*
X39470000Y-44867782D01*
X39470000Y-45048218D01*
X39505201Y-45225187D01*
X39574251Y-45391889D01*
X39674496Y-45541916D01*
X39723720Y-45591140D01*
X38984297Y-45591140D01*
X38695033Y-45301876D01*
X38726799Y-45225187D01*
X38762000Y-45048218D01*
X38762000Y-44867782D01*
X38726799Y-44690813D01*
X38657749Y-44524111D01*
X38557504Y-44374084D01*
X38429916Y-44246496D01*
X38279889Y-44146251D01*
X38113187Y-44077201D01*
X37936218Y-44042000D01*
X37755782Y-44042000D01*
X37578813Y-44077201D01*
X37412111Y-44146251D01*
X37262084Y-44246496D01*
X37134496Y-44374084D01*
X37034251Y-44524111D01*
X36965201Y-44690813D01*
X36930000Y-44867782D01*
X36930000Y-45048218D01*
X36965201Y-45225187D01*
X37034251Y-45391889D01*
X37134496Y-45541916D01*
X37262084Y-45669504D01*
X37412111Y-45769749D01*
X37578813Y-45838799D01*
X37738438Y-45870550D01*
X36723707Y-45870550D01*
X36155033Y-45301876D01*
X36186799Y-45225187D01*
X36222000Y-45048218D01*
X36222000Y-44867782D01*
X36186799Y-44690813D01*
X36117749Y-44524111D01*
X36017504Y-44374084D01*
X35889916Y-44246496D01*
X35739889Y-44146251D01*
X35573187Y-44077201D01*
X35396218Y-44042000D01*
X35215782Y-44042000D01*
X35038813Y-44077201D01*
X34872111Y-44146251D01*
X34722084Y-44246496D01*
X34594496Y-44374084D01*
X34494251Y-44524111D01*
X34425201Y-44690813D01*
X34390000Y-44867782D01*
X34390000Y-45048218D01*
X34425201Y-45225187D01*
X34494251Y-45391889D01*
X34594496Y-45541916D01*
X34722084Y-45669504D01*
X34872111Y-45769749D01*
X35038813Y-45838799D01*
X35215782Y-45874000D01*
X35396218Y-45874000D01*
X35573187Y-45838799D01*
X35649876Y-45807033D01*
X36272843Y-46430000D01*
X27192970Y-46430000D01*
X26892370Y-46400526D01*
X26617624Y-46317575D01*
X26364220Y-46182838D01*
X26141810Y-46001445D01*
X25958874Y-45780313D01*
X25822370Y-45527855D01*
X25737503Y-45253694D01*
X25706000Y-44953964D01*
X25706000Y-44821983D01*
X25797000Y-44821983D01*
X25797000Y-45094017D01*
X25850071Y-45360823D01*
X25954174Y-45612149D01*
X26105307Y-45838336D01*
X26297664Y-46030693D01*
X26523851Y-46181826D01*
X26775177Y-46285929D01*
X27041983Y-46339000D01*
X27314017Y-46339000D01*
X27580823Y-46285929D01*
X27832149Y-46181826D01*
X28058336Y-46030693D01*
X28250693Y-45838336D01*
X28254392Y-45832800D01*
X29530805Y-45832800D01*
X29582369Y-46059946D01*
X29809716Y-46164339D01*
X30053059Y-46222373D01*
X30303049Y-46231818D01*
X30550078Y-46192310D01*
X30784653Y-46105369D01*
X30869631Y-46059946D01*
X30921195Y-45832800D01*
X32070805Y-45832800D01*
X32122369Y-46059946D01*
X32349716Y-46164339D01*
X32593059Y-46222373D01*
X32843049Y-46231818D01*
X33090078Y-46192310D01*
X33324653Y-46105369D01*
X33409631Y-46059946D01*
X33461195Y-45832800D01*
X32766000Y-45137605D01*
X32070805Y-45832800D01*
X30921195Y-45832800D01*
X30226000Y-45137605D01*
X29530805Y-45832800D01*
X28254392Y-45832800D01*
X28401826Y-45612149D01*
X28505929Y-45360823D01*
X28559000Y-45094017D01*
X28559000Y-45035049D01*
X28952182Y-45035049D01*
X28991690Y-45282078D01*
X29078631Y-45516653D01*
X29124054Y-45601631D01*
X29351200Y-45653195D01*
X30046395Y-44958000D01*
X30405605Y-44958000D01*
X31100800Y-45653195D01*
X31327946Y-45601631D01*
X31432339Y-45374284D01*
X31490373Y-45130941D01*
X31493649Y-45044224D01*
X31531690Y-45282078D01*
X31618631Y-45516653D01*
X31664054Y-45601631D01*
X31891200Y-45653195D01*
X32586395Y-44958000D01*
X32945605Y-44958000D01*
X33640800Y-45653195D01*
X33867946Y-45601631D01*
X33972339Y-45374284D01*
X34030373Y-45130941D01*
X34039818Y-44880951D01*
X34000310Y-44633922D01*
X33913369Y-44399347D01*
X33867946Y-44314369D01*
X33640800Y-44262805D01*
X32945605Y-44958000D01*
X32586395Y-44958000D01*
X31891200Y-44262805D01*
X31664054Y-44314369D01*
X31559661Y-44541716D01*
X31501627Y-44785059D01*
X31498351Y-44871776D01*
X31460310Y-44633922D01*
X31373369Y-44399347D01*
X31327946Y-44314369D01*
X31100800Y-44262805D01*
X30405605Y-44958000D01*
X30046395Y-44958000D01*
X29351200Y-44262805D01*
X29124054Y-44314369D01*
X29019661Y-44541716D01*
X28961627Y-44785059D01*
X28952182Y-45035049D01*
X28559000Y-45035049D01*
X28559000Y-44821983D01*
X28505929Y-44555177D01*
X28401826Y-44303851D01*
X28254393Y-44083200D01*
X29530805Y-44083200D01*
X30226000Y-44778395D01*
X30921195Y-44083200D01*
X32070805Y-44083200D01*
X32766000Y-44778395D01*
X33461195Y-44083200D01*
X33409631Y-43856054D01*
X33182284Y-43751661D01*
X32938941Y-43693627D01*
X32688951Y-43684182D01*
X32441922Y-43723690D01*
X32207347Y-43810631D01*
X32122369Y-43856054D01*
X32070805Y-44083200D01*
X30921195Y-44083200D01*
X30869631Y-43856054D01*
X30642284Y-43751661D01*
X30398941Y-43693627D01*
X30148951Y-43684182D01*
X29901922Y-43723690D01*
X29667347Y-43810631D01*
X29582369Y-43856054D01*
X29530805Y-44083200D01*
X28254393Y-44083200D01*
X28250693Y-44077664D01*
X28058336Y-43885307D01*
X27832149Y-43734174D01*
X27580823Y-43630071D01*
X27314017Y-43577000D01*
X27041983Y-43577000D01*
X26775177Y-43630071D01*
X26523851Y-43734174D01*
X26297664Y-43885307D01*
X26105307Y-44077664D01*
X25954174Y-44303851D01*
X25850071Y-44555177D01*
X25797000Y-44821983D01*
X25706000Y-44821983D01*
X25706000Y-40689874D01*
X26511881Y-40689874D01*
X26591724Y-40912976D01*
X26713631Y-41100764D01*
X26869831Y-41261161D01*
X27054322Y-41388003D01*
X27260013Y-41476415D01*
X27479000Y-41523000D01*
X27779000Y-41523000D01*
X27779000Y-40515000D01*
X28033000Y-40515000D01*
X28033000Y-41523000D01*
X28333000Y-41523000D01*
X28551987Y-41476415D01*
X28757678Y-41388003D01*
X28942169Y-41261161D01*
X29098369Y-41100764D01*
X29220276Y-40912976D01*
X29300119Y-40689874D01*
X30441881Y-40689874D01*
X30521724Y-40912976D01*
X30643631Y-41100764D01*
X30799831Y-41261161D01*
X30984322Y-41388003D01*
X31190013Y-41476415D01*
X31409000Y-41523000D01*
X31959000Y-41523000D01*
X31959000Y-40515000D01*
X32213000Y-40515000D01*
X32213000Y-41523000D01*
X32763000Y-41523000D01*
X32981987Y-41476415D01*
X33187678Y-41388003D01*
X33372169Y-41261161D01*
X33528369Y-41100764D01*
X33650276Y-40912976D01*
X33730119Y-40689874D01*
X33603954Y-40515000D01*
X32213000Y-40515000D01*
X31959000Y-40515000D01*
X30568046Y-40515000D01*
X30441881Y-40689874D01*
X29300119Y-40689874D01*
X29173954Y-40515000D01*
X28033000Y-40515000D01*
X27779000Y-40515000D01*
X26638046Y-40515000D01*
X26511881Y-40689874D01*
X25706000Y-40689874D01*
X25706000Y-40086126D01*
X26511881Y-40086126D01*
X26638046Y-40261000D01*
X27779000Y-40261000D01*
X27779000Y-39253000D01*
X28033000Y-39253000D01*
X28033000Y-40261000D01*
X29173954Y-40261000D01*
X29300119Y-40086126D01*
X30441881Y-40086126D01*
X30568046Y-40261000D01*
X31959000Y-40261000D01*
X31959000Y-40241000D01*
X32213000Y-40241000D01*
X32213000Y-40261000D01*
X33603954Y-40261000D01*
X33730119Y-40086126D01*
X33650276Y-39863024D01*
X33528369Y-39675236D01*
X33372169Y-39514839D01*
X33187678Y-39387997D01*
X32981987Y-39299585D01*
X32763000Y-39253000D01*
X32087717Y-39253000D01*
X32093030Y-39245049D01*
X32138712Y-39134764D01*
X32162000Y-39017686D01*
X32162000Y-38898314D01*
X32138712Y-38781236D01*
X32093030Y-38670951D01*
X32026711Y-38571698D01*
X31942302Y-38487289D01*
X31843049Y-38420970D01*
X31732764Y-38375288D01*
X31615686Y-38352000D01*
X31496314Y-38352000D01*
X31379236Y-38375288D01*
X31268951Y-38420970D01*
X31169698Y-38487289D01*
X31085289Y-38571698D01*
X31018970Y-38670951D01*
X30973288Y-38781236D01*
X30950000Y-38898314D01*
X30950000Y-39017686D01*
X30973288Y-39134764D01*
X31018970Y-39245049D01*
X31085289Y-39344302D01*
X31085496Y-39344509D01*
X30984322Y-39387997D01*
X30799831Y-39514839D01*
X30643631Y-39675236D01*
X30521724Y-39863024D01*
X30441881Y-40086126D01*
X29300119Y-40086126D01*
X29220276Y-39863024D01*
X29098369Y-39675236D01*
X28942169Y-39514839D01*
X28757678Y-39387997D01*
X28551987Y-39299585D01*
X28333000Y-39253000D01*
X28033000Y-39253000D01*
X27779000Y-39253000D01*
X27479000Y-39253000D01*
X27260013Y-39299585D01*
X27054322Y-39387997D01*
X26869831Y-39514839D01*
X26713631Y-39675236D01*
X26591724Y-39863024D01*
X26511881Y-40086126D01*
X25706000Y-40086126D01*
X25706000Y-36904307D01*
X31215000Y-36904307D01*
X31215000Y-37009693D01*
X31235559Y-37113054D01*
X31275889Y-37210418D01*
X31334438Y-37298043D01*
X31408957Y-37372562D01*
X31496582Y-37431111D01*
X31593946Y-37471441D01*
X31697307Y-37492000D01*
X31802693Y-37492000D01*
X31906054Y-37471441D01*
X32003418Y-37431111D01*
X32091043Y-37372562D01*
X32149405Y-37314200D01*
X38590464Y-37314200D01*
X38608000Y-37315927D01*
X38625536Y-37314200D01*
X38625544Y-37314200D01*
X38678023Y-37309031D01*
X38745356Y-37288606D01*
X38807410Y-37255438D01*
X38861800Y-37210800D01*
X38872982Y-37197175D01*
X40102157Y-35968000D01*
X40184693Y-35968000D01*
X40288054Y-35947441D01*
X40385418Y-35907111D01*
X40473043Y-35848562D01*
X40547562Y-35774043D01*
X40606111Y-35686418D01*
X40646441Y-35589054D01*
X40667000Y-35485693D01*
X40667000Y-35380307D01*
X40646441Y-35276946D01*
X40606111Y-35179582D01*
X40547562Y-35091957D01*
X40473043Y-35017438D01*
X40385418Y-34958889D01*
X40288054Y-34918559D01*
X40184693Y-34898000D01*
X40079307Y-34898000D01*
X39975946Y-34918559D01*
X39878582Y-34958889D01*
X39790957Y-35017438D01*
X39716438Y-35091957D01*
X39687500Y-35135266D01*
X39658562Y-35091957D01*
X39584043Y-35017438D01*
X39496418Y-34958889D01*
X39399054Y-34918559D01*
X39295693Y-34898000D01*
X39190307Y-34898000D01*
X39086946Y-34918559D01*
X38989582Y-34958889D01*
X38901957Y-35017438D01*
X38827438Y-35091957D01*
X38768889Y-35179582D01*
X38728559Y-35276946D01*
X38708000Y-35380307D01*
X38708000Y-35462843D01*
X38313785Y-35857058D01*
X32384683Y-35857058D01*
X32326321Y-35798696D01*
X32238696Y-35740147D01*
X32141332Y-35699817D01*
X32037971Y-35679258D01*
X31932585Y-35679258D01*
X31829224Y-35699817D01*
X31731860Y-35740147D01*
X31644235Y-35798696D01*
X31569716Y-35873215D01*
X31511167Y-35960840D01*
X31470837Y-36058204D01*
X31450278Y-36161565D01*
X31450278Y-36266951D01*
X31470837Y-36370312D01*
X31511167Y-36467676D01*
X31515967Y-36474859D01*
X31496582Y-36482889D01*
X31408957Y-36541438D01*
X31334438Y-36615957D01*
X31275889Y-36703582D01*
X31235559Y-36800946D01*
X31215000Y-36904307D01*
X25706000Y-36904307D01*
X25706000Y-32049874D01*
X26511881Y-32049874D01*
X26591724Y-32272976D01*
X26713631Y-32460764D01*
X26869831Y-32621161D01*
X27054322Y-32748003D01*
X27260013Y-32836415D01*
X27479000Y-32883000D01*
X27779000Y-32883000D01*
X27779000Y-31875000D01*
X28033000Y-31875000D01*
X28033000Y-32883000D01*
X28333000Y-32883000D01*
X28551987Y-32836415D01*
X28757678Y-32748003D01*
X28942169Y-32621161D01*
X29098369Y-32460764D01*
X29220276Y-32272976D01*
X29300119Y-32049874D01*
X30441881Y-32049874D01*
X30521724Y-32272976D01*
X30643631Y-32460764D01*
X30799831Y-32621161D01*
X30984322Y-32748003D01*
X31085496Y-32791491D01*
X31085289Y-32791698D01*
X31018970Y-32890951D01*
X30973288Y-33001236D01*
X30950000Y-33118314D01*
X30950000Y-33237686D01*
X30973288Y-33354764D01*
X31018970Y-33465049D01*
X31085289Y-33564302D01*
X31169698Y-33648711D01*
X31268951Y-33715030D01*
X31379236Y-33760712D01*
X31496314Y-33784000D01*
X31615686Y-33784000D01*
X31732764Y-33760712D01*
X31843049Y-33715030D01*
X31942302Y-33648711D01*
X32026711Y-33564302D01*
X32093030Y-33465049D01*
X32138712Y-33354764D01*
X32162000Y-33237686D01*
X32162000Y-33118314D01*
X32138712Y-33001236D01*
X32093030Y-32890951D01*
X32087717Y-32883000D01*
X32763000Y-32883000D01*
X32981987Y-32836415D01*
X33187678Y-32748003D01*
X33372169Y-32621161D01*
X33528369Y-32460764D01*
X33650276Y-32272976D01*
X33730119Y-32049874D01*
X33603954Y-31875000D01*
X32213000Y-31875000D01*
X32213000Y-31895000D01*
X31959000Y-31895000D01*
X31959000Y-31875000D01*
X30568046Y-31875000D01*
X30441881Y-32049874D01*
X29300119Y-32049874D01*
X29173954Y-31875000D01*
X28033000Y-31875000D01*
X27779000Y-31875000D01*
X26638046Y-31875000D01*
X26511881Y-32049874D01*
X25706000Y-32049874D01*
X25706000Y-31446126D01*
X26511881Y-31446126D01*
X26638046Y-31621000D01*
X27779000Y-31621000D01*
X27779000Y-30613000D01*
X28033000Y-30613000D01*
X28033000Y-31621000D01*
X29173954Y-31621000D01*
X29300119Y-31446126D01*
X30441881Y-31446126D01*
X30568046Y-31621000D01*
X31959000Y-31621000D01*
X31959000Y-30613000D01*
X32213000Y-30613000D01*
X32213000Y-31621000D01*
X33603954Y-31621000D01*
X33730119Y-31446126D01*
X33650276Y-31223024D01*
X33528369Y-31035236D01*
X33372169Y-30874839D01*
X33187678Y-30747997D01*
X32981987Y-30659585D01*
X32763000Y-30613000D01*
X32213000Y-30613000D01*
X31959000Y-30613000D01*
X31409000Y-30613000D01*
X31190013Y-30659585D01*
X30984322Y-30747997D01*
X30799831Y-30874839D01*
X30643631Y-31035236D01*
X30521724Y-31223024D01*
X30441881Y-31446126D01*
X29300119Y-31446126D01*
X29220276Y-31223024D01*
X29098369Y-31035236D01*
X28942169Y-30874839D01*
X28757678Y-30747997D01*
X28551987Y-30659585D01*
X28333000Y-30613000D01*
X28033000Y-30613000D01*
X27779000Y-30613000D01*
X27479000Y-30613000D01*
X27260013Y-30659585D01*
X27054322Y-30747997D01*
X26869831Y-30874839D01*
X26713631Y-31035236D01*
X26591724Y-31223024D01*
X26511881Y-31446126D01*
X25706000Y-31446126D01*
X25706000Y-27192971D01*
X25720804Y-27041983D01*
X25797000Y-27041983D01*
X25797000Y-27314017D01*
X25850071Y-27580823D01*
X25954174Y-27832149D01*
X26105307Y-28058336D01*
X26297664Y-28250693D01*
X26523851Y-28401826D01*
X26775177Y-28505929D01*
X27041983Y-28559000D01*
X27314017Y-28559000D01*
X27580823Y-28505929D01*
X27832149Y-28401826D01*
X28058336Y-28250693D01*
X28250693Y-28058336D01*
X28401826Y-27832149D01*
X28505929Y-27580823D01*
X28559000Y-27314017D01*
X28559000Y-27041983D01*
X28505929Y-26775177D01*
X28401826Y-26523851D01*
X28250693Y-26297664D01*
X28058336Y-26105307D01*
X27832149Y-25954174D01*
X27580823Y-25850071D01*
X27314017Y-25797000D01*
X27041983Y-25797000D01*
X26775177Y-25850071D01*
X26523851Y-25954174D01*
X26297664Y-26105307D01*
X26105307Y-26297664D01*
X25954174Y-26523851D01*
X25850071Y-26775177D01*
X25797000Y-27041983D01*
X25720804Y-27041983D01*
X25735474Y-26892371D01*
X25818426Y-26617622D01*
X25953162Y-26364220D01*
X26134553Y-26141812D01*
X26355691Y-25958872D01*
X26608146Y-25822370D01*
X26882306Y-25737503D01*
X27182036Y-25706000D01*
X56697528Y-25706000D01*
X56679735Y-25707753D01*
%TA.AperFunction,Conductor*%
D17*
G36*
X56679735Y-25707753D02*
G01*
X56673587Y-25708358D01*
X56607293Y-25728468D01*
X56606255Y-25728783D01*
X56544201Y-25761951D01*
X56513006Y-25787553D01*
X56507082Y-25792415D01*
X56489811Y-25806589D01*
X56478629Y-25820214D01*
X55969876Y-26328967D01*
X55893187Y-26297201D01*
X55716218Y-26262000D01*
X55535782Y-26262000D01*
X55358813Y-26297201D01*
X55192111Y-26366251D01*
X55042084Y-26466496D01*
X54914496Y-26594084D01*
X54814251Y-26744111D01*
X54745201Y-26910813D01*
X54710000Y-27087782D01*
X54710000Y-27268218D01*
X54745201Y-27445187D01*
X54814251Y-27611889D01*
X54847112Y-27661069D01*
X54821778Y-27663565D01*
X54815630Y-27664170D01*
X54753803Y-27682925D01*
X54748298Y-27684595D01*
X54686244Y-27717763D01*
X54631854Y-27762401D01*
X54620672Y-27776026D01*
X52238662Y-30158036D01*
X52225041Y-30169215D01*
X52213863Y-30182835D01*
X52213857Y-30182841D01*
X52202212Y-30197031D01*
X52180403Y-30223605D01*
X52148196Y-30283861D01*
X52147235Y-30285659D01*
X52127221Y-30351638D01*
X52126810Y-30352992D01*
X52121641Y-30405471D01*
X52121641Y-30405478D01*
X52119914Y-30423014D01*
X52121641Y-30440550D01*
X52121642Y-34600395D01*
X52119914Y-34617941D01*
X52126810Y-34687964D01*
X52147235Y-34755296D01*
X52153873Y-34767715D01*
X52180404Y-34817351D01*
X52193416Y-34833206D01*
X52213857Y-34858114D01*
X52213864Y-34858121D01*
X52225042Y-34871741D01*
X52238662Y-34882919D01*
X52815865Y-35460122D01*
X52827049Y-35473749D01*
X52881439Y-35518387D01*
X52929310Y-35543974D01*
X52943493Y-35551555D01*
X53010825Y-35571980D01*
X53016973Y-35572585D01*
X53063305Y-35577149D01*
X53063313Y-35577149D01*
X53080849Y-35578876D01*
X53098385Y-35577149D01*
X54549350Y-35577149D01*
X54946009Y-35973808D01*
X54946009Y-35983854D01*
X54966568Y-36087215D01*
X55006898Y-36184579D01*
X55065447Y-36272204D01*
X55139043Y-36345800D01*
X54501405Y-36345800D01*
X54443043Y-36287438D01*
X54355418Y-36228889D01*
X54258054Y-36188559D01*
X54154693Y-36168000D01*
X54049307Y-36168000D01*
X53945946Y-36188559D01*
X53848582Y-36228889D01*
X53760957Y-36287438D01*
X53702595Y-36345800D01*
X51333657Y-36345800D01*
X50903200Y-35915343D01*
X50903200Y-28021515D01*
X50979889Y-27989749D01*
X51129916Y-27889504D01*
X51257504Y-27761916D01*
X51357749Y-27611889D01*
X51426799Y-27445187D01*
X51462000Y-27268218D01*
X51462000Y-27087782D01*
X51426799Y-26910813D01*
X51357749Y-26744111D01*
X51257504Y-26594084D01*
X51248370Y-26584950D01*
X51987793Y-26584950D01*
X52236967Y-26834124D01*
X52205201Y-26910813D01*
X52170000Y-27087782D01*
X52170000Y-27268218D01*
X52205201Y-27445187D01*
X52274251Y-27611889D01*
X52374496Y-27761916D01*
X52502084Y-27889504D01*
X52652111Y-27989749D01*
X52818813Y-28058799D01*
X52995782Y-28094000D01*
X53176218Y-28094000D01*
X53353187Y-28058799D01*
X53519889Y-27989749D01*
X53669916Y-27889504D01*
X53797504Y-27761916D01*
X53897749Y-27611889D01*
X53966799Y-27445187D01*
X54002000Y-27268218D01*
X54002000Y-27087782D01*
X53966799Y-26910813D01*
X53897749Y-26744111D01*
X53797504Y-26594084D01*
X53669916Y-26466496D01*
X53519889Y-26366251D01*
X53353187Y-26297201D01*
X53176218Y-26262000D01*
X52995782Y-26262000D01*
X52818813Y-26297201D01*
X52742124Y-26328967D01*
X52400732Y-25987575D01*
X52389550Y-25973950D01*
X52335160Y-25929312D01*
X52273106Y-25896144D01*
X52205773Y-25875719D01*
X52153294Y-25870550D01*
X52153286Y-25870550D01*
X52135750Y-25868823D01*
X52118214Y-25870550D01*
X50026516Y-25870550D01*
X50008980Y-25868823D01*
X49991444Y-25870550D01*
X49991437Y-25870550D01*
X49945697Y-25875055D01*
X49938957Y-25875719D01*
X49884897Y-25892118D01*
X49871625Y-25896144D01*
X49809571Y-25929312D01*
X49755181Y-25973950D01*
X49743999Y-25987575D01*
X49022071Y-26709503D01*
X49008451Y-26720681D01*
X48997273Y-26734301D01*
X48997266Y-26734308D01*
X48976856Y-26759179D01*
X48963813Y-26775071D01*
X48953943Y-26793537D01*
X48930644Y-26837126D01*
X48910219Y-26904458D01*
X48903323Y-26974481D01*
X48905051Y-26992027D01*
X48905051Y-27002573D01*
X48886799Y-26910813D01*
X48817749Y-26744111D01*
X48717504Y-26594084D01*
X48589916Y-26466496D01*
X48439889Y-26366251D01*
X48273187Y-26297201D01*
X48096218Y-26262000D01*
X47915782Y-26262000D01*
X47738813Y-26297201D01*
X47572111Y-26366251D01*
X47422084Y-26466496D01*
X47294496Y-26594084D01*
X47194251Y-26744111D01*
X47125201Y-26910813D01*
X47090000Y-27087782D01*
X47090000Y-27268218D01*
X47125201Y-27445187D01*
X47194251Y-27611889D01*
X47294496Y-27761916D01*
X47422084Y-27889504D01*
X47572111Y-27989749D01*
X47738813Y-28058799D01*
X47915782Y-28094000D01*
X48096218Y-28094000D01*
X48169500Y-28079423D01*
X48169500Y-29301842D01*
X48168894Y-29301104D01*
X48153330Y-29288331D01*
X46336075Y-27471077D01*
X46346799Y-27445187D01*
X46382000Y-27268218D01*
X46382000Y-27087782D01*
X46346799Y-26910813D01*
X46277749Y-26744111D01*
X46177504Y-26594084D01*
X46049916Y-26466496D01*
X45899889Y-26366251D01*
X45733187Y-26297201D01*
X45556218Y-26262000D01*
X45375782Y-26262000D01*
X45198813Y-26297201D01*
X45032111Y-26366251D01*
X44882084Y-26466496D01*
X44754496Y-26594084D01*
X44654251Y-26744111D01*
X44585201Y-26910813D01*
X44550000Y-27087782D01*
X44550000Y-27268218D01*
X44576376Y-27400823D01*
X39710699Y-32266500D01*
X36353336Y-32266500D01*
X36349428Y-32263889D01*
X36252064Y-32223559D01*
X36148703Y-32203000D01*
X36043317Y-32203000D01*
X35939956Y-32223559D01*
X35842592Y-32263889D01*
X35754967Y-32322438D01*
X35680448Y-32396957D01*
X35621899Y-32484582D01*
X35581569Y-32581946D01*
X35561010Y-32685307D01*
X35561010Y-32790693D01*
X35581569Y-32894054D01*
X35621899Y-32991418D01*
X35680448Y-33079043D01*
X35754967Y-33153562D01*
X35842592Y-33212111D01*
X35939956Y-33252441D01*
X36043317Y-33273000D01*
X36148703Y-33273000D01*
X36252064Y-33252441D01*
X36349428Y-33212111D01*
X36353336Y-33209500D01*
X39882839Y-33209500D01*
X39906000Y-33211781D01*
X39998430Y-33202678D01*
X40047639Y-33187750D01*
X40087308Y-33175717D01*
X40169219Y-33131935D01*
X40241014Y-33073014D01*
X40255783Y-33055018D01*
X45243177Y-28067624D01*
X45375782Y-28094000D01*
X45556218Y-28094000D01*
X45733187Y-28058799D01*
X45759077Y-28048075D01*
X47470999Y-29759998D01*
X47471000Y-31401394D01*
X47463437Y-31408957D01*
X47404888Y-31496582D01*
X47364558Y-31593946D01*
X47343999Y-31697307D01*
X47343999Y-31802693D01*
X47364558Y-31906054D01*
X47404888Y-32003418D01*
X47463437Y-32091043D01*
X47537956Y-32165562D01*
X47600600Y-32207419D01*
X47513520Y-32294500D01*
X44072326Y-32294500D01*
X44068418Y-32291889D01*
X43971054Y-32251559D01*
X43867693Y-32231000D01*
X43762307Y-32231000D01*
X43658946Y-32251559D01*
X43561582Y-32291889D01*
X43473957Y-32350438D01*
X43399438Y-32424957D01*
X43340889Y-32512582D01*
X43300559Y-32609946D01*
X43280000Y-32713307D01*
X43280000Y-32818693D01*
X43300559Y-32922054D01*
X43340889Y-33019418D01*
X43343500Y-33023326D01*
X43343501Y-38203829D01*
X43341219Y-38227000D01*
X43350322Y-38319430D01*
X43371294Y-38388562D01*
X43377284Y-38408308D01*
X43421066Y-38490219D01*
X43479987Y-38562014D01*
X43497978Y-38576779D01*
X43629811Y-38708612D01*
X43606196Y-38713309D01*
X43508832Y-38753639D01*
X43421207Y-38812188D01*
X43346688Y-38886707D01*
X43288139Y-38974332D01*
X43247809Y-39071696D01*
X43227250Y-39175057D01*
X43227250Y-39280443D01*
X43247809Y-39383804D01*
X43288139Y-39481168D01*
X43346688Y-39568793D01*
X43421207Y-39643312D01*
X43508832Y-39701861D01*
X43571333Y-39727750D01*
X43508832Y-39753639D01*
X43421207Y-39812188D01*
X43346688Y-39886707D01*
X43288139Y-39974332D01*
X43247809Y-40071696D01*
X43227250Y-40175057D01*
X43227250Y-40280443D01*
X43247809Y-40383804D01*
X43288139Y-40481168D01*
X43346688Y-40568793D01*
X43421207Y-40643312D01*
X43508832Y-40701861D01*
X43606196Y-40742191D01*
X43709557Y-40762750D01*
X43792093Y-40762750D01*
X45461303Y-42431960D01*
X42572376Y-42431960D01*
X42554840Y-42430233D01*
X42537304Y-42431960D01*
X42537296Y-42431960D01*
X42490964Y-42436524D01*
X42484816Y-42437129D01*
X42421160Y-42456439D01*
X42417484Y-42457554D01*
X42355430Y-42490722D01*
X42339691Y-42503639D01*
X42314666Y-42524176D01*
X42314660Y-42524182D01*
X42301040Y-42535360D01*
X42289862Y-42548980D01*
X40729876Y-44108967D01*
X40653187Y-44077201D01*
X40476218Y-44042000D01*
X40295782Y-44042000D01*
X40118813Y-44077201D01*
X39952111Y-44146251D01*
X39802084Y-44246496D01*
X39674496Y-44374084D01*
X39574251Y-44524111D01*
X39505201Y-44690813D01*
X39470000Y-44867782D01*
X39470000Y-45048218D01*
X39505201Y-45225187D01*
X39574251Y-45391889D01*
X39674496Y-45541916D01*
X39723720Y-45591140D01*
X38984297Y-45591140D01*
X38695033Y-45301876D01*
X38726799Y-45225187D01*
X38762000Y-45048218D01*
X38762000Y-44867782D01*
X38726799Y-44690813D01*
X38657749Y-44524111D01*
X38557504Y-44374084D01*
X38429916Y-44246496D01*
X38279889Y-44146251D01*
X38113187Y-44077201D01*
X37936218Y-44042000D01*
X37755782Y-44042000D01*
X37578813Y-44077201D01*
X37412111Y-44146251D01*
X37262084Y-44246496D01*
X37134496Y-44374084D01*
X37034251Y-44524111D01*
X36965201Y-44690813D01*
X36930000Y-44867782D01*
X36930000Y-45048218D01*
X36965201Y-45225187D01*
X37034251Y-45391889D01*
X37134496Y-45541916D01*
X37262084Y-45669504D01*
X37412111Y-45769749D01*
X37578813Y-45838799D01*
X37738438Y-45870550D01*
X36723707Y-45870550D01*
X36155033Y-45301876D01*
X36186799Y-45225187D01*
X36222000Y-45048218D01*
X36222000Y-44867782D01*
X36186799Y-44690813D01*
X36117749Y-44524111D01*
X36017504Y-44374084D01*
X35889916Y-44246496D01*
X35739889Y-44146251D01*
X35573187Y-44077201D01*
X35396218Y-44042000D01*
X35215782Y-44042000D01*
X35038813Y-44077201D01*
X34872111Y-44146251D01*
X34722084Y-44246496D01*
X34594496Y-44374084D01*
X34494251Y-44524111D01*
X34425201Y-44690813D01*
X34390000Y-44867782D01*
X34390000Y-45048218D01*
X34425201Y-45225187D01*
X34494251Y-45391889D01*
X34594496Y-45541916D01*
X34722084Y-45669504D01*
X34872111Y-45769749D01*
X35038813Y-45838799D01*
X35215782Y-45874000D01*
X35396218Y-45874000D01*
X35573187Y-45838799D01*
X35649876Y-45807033D01*
X36272843Y-46430000D01*
X27192970Y-46430000D01*
X26892370Y-46400526D01*
X26617624Y-46317575D01*
X26364220Y-46182838D01*
X26141810Y-46001445D01*
X25958874Y-45780313D01*
X25822370Y-45527855D01*
X25737503Y-45253694D01*
X25706000Y-44953964D01*
X25706000Y-44821983D01*
X25797000Y-44821983D01*
X25797000Y-45094017D01*
X25850071Y-45360823D01*
X25954174Y-45612149D01*
X26105307Y-45838336D01*
X26297664Y-46030693D01*
X26523851Y-46181826D01*
X26775177Y-46285929D01*
X27041983Y-46339000D01*
X27314017Y-46339000D01*
X27580823Y-46285929D01*
X27832149Y-46181826D01*
X28058336Y-46030693D01*
X28250693Y-45838336D01*
X28254392Y-45832800D01*
X29530805Y-45832800D01*
X29582369Y-46059946D01*
X29809716Y-46164339D01*
X30053059Y-46222373D01*
X30303049Y-46231818D01*
X30550078Y-46192310D01*
X30784653Y-46105369D01*
X30869631Y-46059946D01*
X30921195Y-45832800D01*
X32070805Y-45832800D01*
X32122369Y-46059946D01*
X32349716Y-46164339D01*
X32593059Y-46222373D01*
X32843049Y-46231818D01*
X33090078Y-46192310D01*
X33324653Y-46105369D01*
X33409631Y-46059946D01*
X33461195Y-45832800D01*
X32766000Y-45137605D01*
X32070805Y-45832800D01*
X30921195Y-45832800D01*
X30226000Y-45137605D01*
X29530805Y-45832800D01*
X28254392Y-45832800D01*
X28401826Y-45612149D01*
X28505929Y-45360823D01*
X28559000Y-45094017D01*
X28559000Y-45035049D01*
X28952182Y-45035049D01*
X28991690Y-45282078D01*
X29078631Y-45516653D01*
X29124054Y-45601631D01*
X29351200Y-45653195D01*
X30046395Y-44958000D01*
X30405605Y-44958000D01*
X31100800Y-45653195D01*
X31327946Y-45601631D01*
X31432339Y-45374284D01*
X31490373Y-45130941D01*
X31493649Y-45044224D01*
X31531690Y-45282078D01*
X31618631Y-45516653D01*
X31664054Y-45601631D01*
X31891200Y-45653195D01*
X32586395Y-44958000D01*
X32945605Y-44958000D01*
X33640800Y-45653195D01*
X33867946Y-45601631D01*
X33972339Y-45374284D01*
X34030373Y-45130941D01*
X34039818Y-44880951D01*
X34000310Y-44633922D01*
X33913369Y-44399347D01*
X33867946Y-44314369D01*
X33640800Y-44262805D01*
X32945605Y-44958000D01*
X32586395Y-44958000D01*
X31891200Y-44262805D01*
X31664054Y-44314369D01*
X31559661Y-44541716D01*
X31501627Y-44785059D01*
X31498351Y-44871776D01*
X31460310Y-44633922D01*
X31373369Y-44399347D01*
X31327946Y-44314369D01*
X31100800Y-44262805D01*
X30405605Y-44958000D01*
X30046395Y-44958000D01*
X29351200Y-44262805D01*
X29124054Y-44314369D01*
X29019661Y-44541716D01*
X28961627Y-44785059D01*
X28952182Y-45035049D01*
X28559000Y-45035049D01*
X28559000Y-44821983D01*
X28505929Y-44555177D01*
X28401826Y-44303851D01*
X28254393Y-44083200D01*
X29530805Y-44083200D01*
X30226000Y-44778395D01*
X30921195Y-44083200D01*
X32070805Y-44083200D01*
X32766000Y-44778395D01*
X33461195Y-44083200D01*
X33409631Y-43856054D01*
X33182284Y-43751661D01*
X32938941Y-43693627D01*
X32688951Y-43684182D01*
X32441922Y-43723690D01*
X32207347Y-43810631D01*
X32122369Y-43856054D01*
X32070805Y-44083200D01*
X30921195Y-44083200D01*
X30869631Y-43856054D01*
X30642284Y-43751661D01*
X30398941Y-43693627D01*
X30148951Y-43684182D01*
X29901922Y-43723690D01*
X29667347Y-43810631D01*
X29582369Y-43856054D01*
X29530805Y-44083200D01*
X28254393Y-44083200D01*
X28250693Y-44077664D01*
X28058336Y-43885307D01*
X27832149Y-43734174D01*
X27580823Y-43630071D01*
X27314017Y-43577000D01*
X27041983Y-43577000D01*
X26775177Y-43630071D01*
X26523851Y-43734174D01*
X26297664Y-43885307D01*
X26105307Y-44077664D01*
X25954174Y-44303851D01*
X25850071Y-44555177D01*
X25797000Y-44821983D01*
X25706000Y-44821983D01*
X25706000Y-40689874D01*
X26511881Y-40689874D01*
X26591724Y-40912976D01*
X26713631Y-41100764D01*
X26869831Y-41261161D01*
X27054322Y-41388003D01*
X27260013Y-41476415D01*
X27479000Y-41523000D01*
X27779000Y-41523000D01*
X27779000Y-40515000D01*
X28033000Y-40515000D01*
X28033000Y-41523000D01*
X28333000Y-41523000D01*
X28551987Y-41476415D01*
X28757678Y-41388003D01*
X28942169Y-41261161D01*
X29098369Y-41100764D01*
X29220276Y-40912976D01*
X29300119Y-40689874D01*
X30441881Y-40689874D01*
X30521724Y-40912976D01*
X30643631Y-41100764D01*
X30799831Y-41261161D01*
X30984322Y-41388003D01*
X31190013Y-41476415D01*
X31409000Y-41523000D01*
X31959000Y-41523000D01*
X31959000Y-40515000D01*
X32213000Y-40515000D01*
X32213000Y-41523000D01*
X32763000Y-41523000D01*
X32981987Y-41476415D01*
X33187678Y-41388003D01*
X33372169Y-41261161D01*
X33528369Y-41100764D01*
X33650276Y-40912976D01*
X33730119Y-40689874D01*
X33603954Y-40515000D01*
X32213000Y-40515000D01*
X31959000Y-40515000D01*
X30568046Y-40515000D01*
X30441881Y-40689874D01*
X29300119Y-40689874D01*
X29173954Y-40515000D01*
X28033000Y-40515000D01*
X27779000Y-40515000D01*
X26638046Y-40515000D01*
X26511881Y-40689874D01*
X25706000Y-40689874D01*
X25706000Y-40086126D01*
X26511881Y-40086126D01*
X26638046Y-40261000D01*
X27779000Y-40261000D01*
X27779000Y-39253000D01*
X28033000Y-39253000D01*
X28033000Y-40261000D01*
X29173954Y-40261000D01*
X29300119Y-40086126D01*
X30441881Y-40086126D01*
X30568046Y-40261000D01*
X31959000Y-40261000D01*
X31959000Y-40241000D01*
X32213000Y-40241000D01*
X32213000Y-40261000D01*
X33603954Y-40261000D01*
X33730119Y-40086126D01*
X33650276Y-39863024D01*
X33528369Y-39675236D01*
X33372169Y-39514839D01*
X33187678Y-39387997D01*
X32981987Y-39299585D01*
X32763000Y-39253000D01*
X32087717Y-39253000D01*
X32093030Y-39245049D01*
X32138712Y-39134764D01*
X32162000Y-39017686D01*
X32162000Y-38898314D01*
X32138712Y-38781236D01*
X32093030Y-38670951D01*
X32026711Y-38571698D01*
X31942302Y-38487289D01*
X31843049Y-38420970D01*
X31732764Y-38375288D01*
X31615686Y-38352000D01*
X31496314Y-38352000D01*
X31379236Y-38375288D01*
X31268951Y-38420970D01*
X31169698Y-38487289D01*
X31085289Y-38571698D01*
X31018970Y-38670951D01*
X30973288Y-38781236D01*
X30950000Y-38898314D01*
X30950000Y-39017686D01*
X30973288Y-39134764D01*
X31018970Y-39245049D01*
X31085289Y-39344302D01*
X31085496Y-39344509D01*
X30984322Y-39387997D01*
X30799831Y-39514839D01*
X30643631Y-39675236D01*
X30521724Y-39863024D01*
X30441881Y-40086126D01*
X29300119Y-40086126D01*
X29220276Y-39863024D01*
X29098369Y-39675236D01*
X28942169Y-39514839D01*
X28757678Y-39387997D01*
X28551987Y-39299585D01*
X28333000Y-39253000D01*
X28033000Y-39253000D01*
X27779000Y-39253000D01*
X27479000Y-39253000D01*
X27260013Y-39299585D01*
X27054322Y-39387997D01*
X26869831Y-39514839D01*
X26713631Y-39675236D01*
X26591724Y-39863024D01*
X26511881Y-40086126D01*
X25706000Y-40086126D01*
X25706000Y-36904307D01*
X31215000Y-36904307D01*
X31215000Y-37009693D01*
X31235559Y-37113054D01*
X31275889Y-37210418D01*
X31334438Y-37298043D01*
X31408957Y-37372562D01*
X31496582Y-37431111D01*
X31593946Y-37471441D01*
X31697307Y-37492000D01*
X31802693Y-37492000D01*
X31906054Y-37471441D01*
X32003418Y-37431111D01*
X32091043Y-37372562D01*
X32149405Y-37314200D01*
X38590464Y-37314200D01*
X38608000Y-37315927D01*
X38625536Y-37314200D01*
X38625544Y-37314200D01*
X38678023Y-37309031D01*
X38745356Y-37288606D01*
X38807410Y-37255438D01*
X38861800Y-37210800D01*
X38872982Y-37197175D01*
X40102157Y-35968000D01*
X40184693Y-35968000D01*
X40288054Y-35947441D01*
X40385418Y-35907111D01*
X40473043Y-35848562D01*
X40547562Y-35774043D01*
X40606111Y-35686418D01*
X40646441Y-35589054D01*
X40667000Y-35485693D01*
X40667000Y-35380307D01*
X40646441Y-35276946D01*
X40606111Y-35179582D01*
X40547562Y-35091957D01*
X40473043Y-35017438D01*
X40385418Y-34958889D01*
X40288054Y-34918559D01*
X40184693Y-34898000D01*
X40079307Y-34898000D01*
X39975946Y-34918559D01*
X39878582Y-34958889D01*
X39790957Y-35017438D01*
X39716438Y-35091957D01*
X39687500Y-35135266D01*
X39658562Y-35091957D01*
X39584043Y-35017438D01*
X39496418Y-34958889D01*
X39399054Y-34918559D01*
X39295693Y-34898000D01*
X39190307Y-34898000D01*
X39086946Y-34918559D01*
X38989582Y-34958889D01*
X38901957Y-35017438D01*
X38827438Y-35091957D01*
X38768889Y-35179582D01*
X38728559Y-35276946D01*
X38708000Y-35380307D01*
X38708000Y-35462843D01*
X38313785Y-35857058D01*
X32384683Y-35857058D01*
X32326321Y-35798696D01*
X32238696Y-35740147D01*
X32141332Y-35699817D01*
X32037971Y-35679258D01*
X31932585Y-35679258D01*
X31829224Y-35699817D01*
X31731860Y-35740147D01*
X31644235Y-35798696D01*
X31569716Y-35873215D01*
X31511167Y-35960840D01*
X31470837Y-36058204D01*
X31450278Y-36161565D01*
X31450278Y-36266951D01*
X31470837Y-36370312D01*
X31511167Y-36467676D01*
X31515967Y-36474859D01*
X31496582Y-36482889D01*
X31408957Y-36541438D01*
X31334438Y-36615957D01*
X31275889Y-36703582D01*
X31235559Y-36800946D01*
X31215000Y-36904307D01*
X25706000Y-36904307D01*
X25706000Y-32049874D01*
X26511881Y-32049874D01*
X26591724Y-32272976D01*
X26713631Y-32460764D01*
X26869831Y-32621161D01*
X27054322Y-32748003D01*
X27260013Y-32836415D01*
X27479000Y-32883000D01*
X27779000Y-32883000D01*
X27779000Y-31875000D01*
X28033000Y-31875000D01*
X28033000Y-32883000D01*
X28333000Y-32883000D01*
X28551987Y-32836415D01*
X28757678Y-32748003D01*
X28942169Y-32621161D01*
X29098369Y-32460764D01*
X29220276Y-32272976D01*
X29300119Y-32049874D01*
X30441881Y-32049874D01*
X30521724Y-32272976D01*
X30643631Y-32460764D01*
X30799831Y-32621161D01*
X30984322Y-32748003D01*
X31085496Y-32791491D01*
X31085289Y-32791698D01*
X31018970Y-32890951D01*
X30973288Y-33001236D01*
X30950000Y-33118314D01*
X30950000Y-33237686D01*
X30973288Y-33354764D01*
X31018970Y-33465049D01*
X31085289Y-33564302D01*
X31169698Y-33648711D01*
X31268951Y-33715030D01*
X31379236Y-33760712D01*
X31496314Y-33784000D01*
X31615686Y-33784000D01*
X31732764Y-33760712D01*
X31843049Y-33715030D01*
X31942302Y-33648711D01*
X32026711Y-33564302D01*
X32093030Y-33465049D01*
X32138712Y-33354764D01*
X32162000Y-33237686D01*
X32162000Y-33118314D01*
X32138712Y-33001236D01*
X32093030Y-32890951D01*
X32087717Y-32883000D01*
X32763000Y-32883000D01*
X32981987Y-32836415D01*
X33187678Y-32748003D01*
X33372169Y-32621161D01*
X33528369Y-32460764D01*
X33650276Y-32272976D01*
X33730119Y-32049874D01*
X33603954Y-31875000D01*
X32213000Y-31875000D01*
X32213000Y-31895000D01*
X31959000Y-31895000D01*
X31959000Y-31875000D01*
X30568046Y-31875000D01*
X30441881Y-32049874D01*
X29300119Y-32049874D01*
X29173954Y-31875000D01*
X28033000Y-31875000D01*
X27779000Y-31875000D01*
X26638046Y-31875000D01*
X26511881Y-32049874D01*
X25706000Y-32049874D01*
X25706000Y-31446126D01*
X26511881Y-31446126D01*
X26638046Y-31621000D01*
X27779000Y-31621000D01*
X27779000Y-30613000D01*
X28033000Y-30613000D01*
X28033000Y-31621000D01*
X29173954Y-31621000D01*
X29300119Y-31446126D01*
X30441881Y-31446126D01*
X30568046Y-31621000D01*
X31959000Y-31621000D01*
X31959000Y-30613000D01*
X32213000Y-30613000D01*
X32213000Y-31621000D01*
X33603954Y-31621000D01*
X33730119Y-31446126D01*
X33650276Y-31223024D01*
X33528369Y-31035236D01*
X33372169Y-30874839D01*
X33187678Y-30747997D01*
X32981987Y-30659585D01*
X32763000Y-30613000D01*
X32213000Y-30613000D01*
X31959000Y-30613000D01*
X31409000Y-30613000D01*
X31190013Y-30659585D01*
X30984322Y-30747997D01*
X30799831Y-30874839D01*
X30643631Y-31035236D01*
X30521724Y-31223024D01*
X30441881Y-31446126D01*
X29300119Y-31446126D01*
X29220276Y-31223024D01*
X29098369Y-31035236D01*
X28942169Y-30874839D01*
X28757678Y-30747997D01*
X28551987Y-30659585D01*
X28333000Y-30613000D01*
X28033000Y-30613000D01*
X27779000Y-30613000D01*
X27479000Y-30613000D01*
X27260013Y-30659585D01*
X27054322Y-30747997D01*
X26869831Y-30874839D01*
X26713631Y-31035236D01*
X26591724Y-31223024D01*
X26511881Y-31446126D01*
X25706000Y-31446126D01*
X25706000Y-27192971D01*
X25720804Y-27041983D01*
X25797000Y-27041983D01*
X25797000Y-27314017D01*
X25850071Y-27580823D01*
X25954174Y-27832149D01*
X26105307Y-28058336D01*
X26297664Y-28250693D01*
X26523851Y-28401826D01*
X26775177Y-28505929D01*
X27041983Y-28559000D01*
X27314017Y-28559000D01*
X27580823Y-28505929D01*
X27832149Y-28401826D01*
X28058336Y-28250693D01*
X28250693Y-28058336D01*
X28401826Y-27832149D01*
X28505929Y-27580823D01*
X28559000Y-27314017D01*
X28559000Y-27041983D01*
X28505929Y-26775177D01*
X28401826Y-26523851D01*
X28250693Y-26297664D01*
X28058336Y-26105307D01*
X27832149Y-25954174D01*
X27580823Y-25850071D01*
X27314017Y-25797000D01*
X27041983Y-25797000D01*
X26775177Y-25850071D01*
X26523851Y-25954174D01*
X26297664Y-26105307D01*
X26105307Y-26297664D01*
X25954174Y-26523851D01*
X25850071Y-26775177D01*
X25797000Y-27041983D01*
X25720804Y-27041983D01*
X25735474Y-26892371D01*
X25818426Y-26617622D01*
X25953162Y-26364220D01*
X26134553Y-26141812D01*
X26355691Y-25958872D01*
X26608146Y-25822370D01*
X26882306Y-25737503D01*
X27182036Y-25706000D01*
X56697528Y-25706000D01*
X56679735Y-25707753D01*
G37*
%TD.AperFunction*%
D15*
X76739629Y-25735474D02*
X77014378Y-25818426D01*
X77267780Y-25953162D01*
X77490188Y-26134553D01*
X77673128Y-26355691D01*
X77809630Y-26608146D01*
X77894497Y-26882306D01*
X77926001Y-27182046D01*
X77926001Y-29311633D01*
X73400850Y-29311633D01*
X73376074Y-29314073D01*
X73352249Y-29321300D01*
X73330293Y-29333036D01*
X73311047Y-29348830D01*
X73295253Y-29368076D01*
X73283517Y-29390032D01*
X73276290Y-29413857D01*
X73273850Y-29438633D01*
X73273850Y-42646633D01*
X73276290Y-42671409D01*
X73283517Y-42695234D01*
X73295253Y-42717190D01*
X73311047Y-42736436D01*
X73330293Y-42752230D01*
X73352249Y-42763966D01*
X73376074Y-42771193D01*
X73400850Y-42773633D01*
X77926000Y-42773633D01*
X77926000Y-44943030D01*
X77896526Y-45243630D01*
X77813575Y-45518376D01*
X77678838Y-45771780D01*
X77497445Y-45994190D01*
X77276313Y-46177126D01*
X77023855Y-46313630D01*
X76749694Y-46398497D01*
X76449964Y-46430000D01*
X46315157Y-46430000D01*
X47002429Y-45742728D01*
X47016049Y-45731550D01*
X47027228Y-45717929D01*
X47027233Y-45717924D01*
X47046424Y-45694540D01*
X47060688Y-45677160D01*
X47093856Y-45615106D01*
X47101126Y-45591140D01*
X47114281Y-45547774D01*
X47118982Y-45500042D01*
X47119450Y-45495294D01*
X47119450Y-45495287D01*
X47121177Y-45477751D01*
X47119450Y-45460215D01*
X47119450Y-45196275D01*
X47125201Y-45225187D01*
X47194251Y-45391889D01*
X47294496Y-45541916D01*
X47422084Y-45669504D01*
X47572111Y-45769749D01*
X47738813Y-45838799D01*
X47915782Y-45874000D01*
X48096218Y-45874000D01*
X48273187Y-45838799D01*
X48439889Y-45769749D01*
X48589916Y-45669504D01*
X48717504Y-45541916D01*
X48817749Y-45391889D01*
X48886799Y-45225187D01*
X48922000Y-45048218D01*
X48922000Y-44867782D01*
X49630000Y-44867782D01*
X49630000Y-45048218D01*
X49665201Y-45225187D01*
X49734251Y-45391889D01*
X49834496Y-45541916D01*
X49962084Y-45669504D01*
X50112111Y-45769749D01*
X50278813Y-45838799D01*
X50455782Y-45874000D01*
X50636218Y-45874000D01*
X50813187Y-45838799D01*
X50979889Y-45769749D01*
X51129916Y-45669504D01*
X51257504Y-45541916D01*
X51357749Y-45391889D01*
X51426799Y-45225187D01*
X51462000Y-45048218D01*
X51462000Y-44867782D01*
X51426799Y-44690813D01*
X51357749Y-44524111D01*
X51257504Y-44374084D01*
X51129916Y-44246496D01*
X50979889Y-44146251D01*
X50813187Y-44077201D01*
X50636218Y-44042000D01*
X50455782Y-44042000D01*
X50278813Y-44077201D01*
X50112111Y-44146251D01*
X49962084Y-44246496D01*
X49834496Y-44374084D01*
X49734251Y-44524111D01*
X49665201Y-44690813D01*
X49630000Y-44867782D01*
X48922000Y-44867782D01*
X48886799Y-44690813D01*
X48817749Y-44524111D01*
X48717504Y-44374084D01*
X48589916Y-44246496D01*
X48439889Y-44146251D01*
X48273187Y-44077201D01*
X48096218Y-44042000D01*
X47915782Y-44042000D01*
X47738813Y-44077201D01*
X47572111Y-44146251D01*
X47422084Y-44246496D01*
X47294496Y-44374084D01*
X47258274Y-44428294D01*
X47276691Y-44383832D01*
X47297250Y-44280471D01*
X47297250Y-44175085D01*
X47276691Y-44071724D01*
X47236361Y-43974360D01*
X47177812Y-43886735D01*
X47103293Y-43812216D01*
X47015668Y-43753667D01*
X46918304Y-43713337D01*
X46877294Y-43705180D01*
X57796434Y-43705180D01*
X57813970Y-43706907D01*
X57831506Y-43705180D01*
X57831514Y-43705180D01*
X57883993Y-43700011D01*
X57951326Y-43679586D01*
X58013380Y-43646418D01*
X58067770Y-43601780D01*
X58078953Y-43588154D01*
X59508205Y-42158902D01*
X59538139Y-42231168D01*
X59596688Y-42318793D01*
X59671207Y-42393312D01*
X59758832Y-42451861D01*
X59856196Y-42492191D01*
X59959557Y-42512750D01*
X60064943Y-42512750D01*
X60168304Y-42492191D01*
X60265668Y-42451861D01*
X60353293Y-42393312D01*
X60411655Y-42334950D01*
X67650607Y-42334950D01*
X67640287Y-42386835D01*
X67640287Y-42492221D01*
X67660846Y-42595582D01*
X67701176Y-42692946D01*
X67759725Y-42780571D01*
X67834244Y-42855090D01*
X67921869Y-42913639D01*
X67977250Y-42936579D01*
X67977250Y-43007593D01*
X66772071Y-44212772D01*
X66758451Y-44223950D01*
X66747273Y-44237570D01*
X66747266Y-44237577D01*
X66739947Y-44246496D01*
X66713813Y-44278340D01*
X66712674Y-44280471D01*
X66680644Y-44340395D01*
X66660219Y-44407727D01*
X66653323Y-44477750D01*
X66655051Y-44495296D01*
X66655051Y-44662450D01*
X66597749Y-44524111D01*
X66497504Y-44374084D01*
X66369916Y-44246496D01*
X66219889Y-44146251D01*
X66053187Y-44077201D01*
X65876218Y-44042000D01*
X65695782Y-44042000D01*
X65518813Y-44077201D01*
X65352111Y-44146251D01*
X65202084Y-44246496D01*
X65074496Y-44374084D01*
X64974251Y-44524111D01*
X64905201Y-44690813D01*
X64870000Y-44867782D01*
X64870000Y-45048218D01*
X64905201Y-45225187D01*
X64974251Y-45391889D01*
X65074496Y-45541916D01*
X65153130Y-45620550D01*
X63878870Y-45620550D01*
X63957504Y-45541916D01*
X64057749Y-45391889D01*
X64126799Y-45225187D01*
X64162000Y-45048218D01*
X64162000Y-44867782D01*
X64126799Y-44690813D01*
X64057749Y-44524111D01*
X63957504Y-44374084D01*
X63829916Y-44246496D01*
X63679889Y-44146251D01*
X63513187Y-44077201D01*
X63336218Y-44042000D01*
X63155782Y-44042000D01*
X62978813Y-44077201D01*
X62812111Y-44146251D01*
X62662084Y-44246496D01*
X62534496Y-44374084D01*
X62434251Y-44524111D01*
X62365201Y-44690813D01*
X62330000Y-44867782D01*
X62330000Y-45048218D01*
X62365201Y-45225187D01*
X62434251Y-45391889D01*
X62534496Y-45541916D01*
X62613130Y-45620550D01*
X61338870Y-45620550D01*
X61417504Y-45541916D01*
X61517749Y-45391889D01*
X61586799Y-45225187D01*
X61622000Y-45048218D01*
X61622000Y-44867782D01*
X61586799Y-44690813D01*
X61517749Y-44524111D01*
X61417504Y-44374084D01*
X61289916Y-44246496D01*
X61139889Y-44146251D01*
X60973187Y-44077201D01*
X60796218Y-44042000D01*
X60615782Y-44042000D01*
X60438813Y-44077201D01*
X60272111Y-44146251D01*
X60122084Y-44246496D01*
X59994496Y-44374084D01*
X59894251Y-44524111D01*
X59825201Y-44690813D01*
X59790000Y-44867782D01*
X59790000Y-45048218D01*
X59825201Y-45225187D01*
X59894251Y-45391889D01*
X59994496Y-45541916D01*
X60073130Y-45620550D01*
X58798870Y-45620550D01*
X58877504Y-45541916D01*
X58977749Y-45391889D01*
X59046799Y-45225187D01*
X59082000Y-45048218D01*
X59082000Y-44867782D01*
X59046799Y-44690813D01*
X58977749Y-44524111D01*
X58877504Y-44374084D01*
X58749916Y-44246496D01*
X58599889Y-44146251D01*
X58433187Y-44077201D01*
X58256218Y-44042000D01*
X58075782Y-44042000D01*
X57898813Y-44077201D01*
X57732111Y-44146251D01*
X57582084Y-44246496D01*
X57454496Y-44374084D01*
X57354251Y-44524111D01*
X57285201Y-44690813D01*
X57250000Y-44867782D01*
X57250000Y-45048218D01*
X57285201Y-45225187D01*
X57354251Y-45391889D01*
X57454496Y-45541916D01*
X57533130Y-45620550D01*
X56258870Y-45620550D01*
X56337504Y-45541916D01*
X56437749Y-45391889D01*
X56506799Y-45225187D01*
X56542000Y-45048218D01*
X56542000Y-44867782D01*
X56506799Y-44690813D01*
X56437749Y-44524111D01*
X56337504Y-44374084D01*
X56209916Y-44246496D01*
X56059889Y-44146251D01*
X55893187Y-44077201D01*
X55716218Y-44042000D01*
X55535782Y-44042000D01*
X55358813Y-44077201D01*
X55192111Y-44146251D01*
X55042084Y-44246496D01*
X54914496Y-44374084D01*
X54814251Y-44524111D01*
X54745201Y-44690813D01*
X54710000Y-44867782D01*
X54710000Y-45048218D01*
X54745201Y-45225187D01*
X54814251Y-45391889D01*
X54914496Y-45541916D01*
X54993130Y-45620550D01*
X54253707Y-45620550D01*
X53935033Y-45301876D01*
X53966799Y-45225187D01*
X54002000Y-45048218D01*
X54002000Y-44867782D01*
X53966799Y-44690813D01*
X53897749Y-44524111D01*
X53797504Y-44374084D01*
X53669916Y-44246496D01*
X53519889Y-44146251D01*
X53353187Y-44077201D01*
X53176218Y-44042000D01*
X52995782Y-44042000D01*
X52818813Y-44077201D01*
X52652111Y-44146251D01*
X52502084Y-44246496D01*
X52374496Y-44374084D01*
X52274251Y-44524111D01*
X52205201Y-44690813D01*
X52170000Y-44867782D01*
X52170000Y-45048218D01*
X52205201Y-45225187D01*
X52274251Y-45391889D01*
X52374496Y-45541916D01*
X52502084Y-45669504D01*
X52652111Y-45769749D01*
X52818813Y-45838799D01*
X52995782Y-45874000D01*
X53176218Y-45874000D01*
X53353187Y-45838799D01*
X53429876Y-45807033D01*
X53840768Y-46217925D01*
X53851950Y-46231550D01*
X53906340Y-46276188D01*
X53968394Y-46309356D01*
X54035726Y-46329781D01*
X54042466Y-46330445D01*
X54088206Y-46334950D01*
X54088213Y-46334950D01*
X54105749Y-46336677D01*
X54123285Y-46334950D01*
X66244714Y-46334950D01*
X66262250Y-46336677D01*
X66279786Y-46334950D01*
X66279794Y-46334950D01*
X66332273Y-46329781D01*
X66399606Y-46309356D01*
X66461660Y-46276188D01*
X66496834Y-46247320D01*
X66502423Y-46242734D01*
X66502425Y-46242732D01*
X66516050Y-46231550D01*
X66527232Y-46217925D01*
X67252429Y-45492728D01*
X67266049Y-45481550D01*
X67277228Y-45467929D01*
X67277233Y-45467924D01*
X67298392Y-45442142D01*
X67310688Y-45427160D01*
X67343856Y-45365106D01*
X67350725Y-45342463D01*
X67364281Y-45297774D01*
X67366673Y-45273488D01*
X67369450Y-45245294D01*
X67369450Y-45245287D01*
X67371177Y-45227751D01*
X67369450Y-45210215D01*
X67369450Y-44625707D01*
X67601252Y-44393905D01*
X67514251Y-44524111D01*
X67445201Y-44690813D01*
X67410000Y-44867782D01*
X67410000Y-45048218D01*
X67445201Y-45225187D01*
X67514251Y-45391889D01*
X67614496Y-45541916D01*
X67742084Y-45669504D01*
X67892111Y-45769749D01*
X68058813Y-45838799D01*
X68235782Y-45874000D01*
X68416218Y-45874000D01*
X68593187Y-45838799D01*
X68759889Y-45769749D01*
X68909916Y-45669504D01*
X69037504Y-45541916D01*
X69137749Y-45391889D01*
X69206799Y-45225187D01*
X69242000Y-45048218D01*
X69242000Y-44867782D01*
X69950000Y-44867782D01*
X69950000Y-45048218D01*
X69985201Y-45225187D01*
X70054251Y-45391889D01*
X70154496Y-45541916D01*
X70282084Y-45669504D01*
X70432111Y-45769749D01*
X70598813Y-45838799D01*
X70775782Y-45874000D01*
X70956218Y-45874000D01*
X71133187Y-45838799D01*
X71299889Y-45769749D01*
X71449916Y-45669504D01*
X71577504Y-45541916D01*
X71677749Y-45391889D01*
X71746799Y-45225187D01*
X71782000Y-45048218D01*
X71782000Y-44867782D01*
X72490000Y-44867782D01*
X72490000Y-45048218D01*
X72525201Y-45225187D01*
X72594251Y-45391889D01*
X72694496Y-45541916D01*
X72822084Y-45669504D01*
X72972111Y-45769749D01*
X73138813Y-45838799D01*
X73315782Y-45874000D01*
X73496218Y-45874000D01*
X73673187Y-45838799D01*
X73839889Y-45769749D01*
X73989916Y-45669504D01*
X74117504Y-45541916D01*
X74217749Y-45391889D01*
X74286799Y-45225187D01*
X74322000Y-45048218D01*
X74322000Y-44867782D01*
X74312891Y-44821983D01*
X75073000Y-44821983D01*
X75073000Y-45094017D01*
X75126071Y-45360823D01*
X75230174Y-45612149D01*
X75381307Y-45838336D01*
X75573664Y-46030693D01*
X75799851Y-46181826D01*
X76051177Y-46285929D01*
X76317983Y-46339000D01*
X76590017Y-46339000D01*
X76856823Y-46285929D01*
X77108149Y-46181826D01*
X77334336Y-46030693D01*
X77526693Y-45838336D01*
X77677826Y-45612149D01*
X77781929Y-45360823D01*
X77835000Y-45094017D01*
X77835000Y-44821983D01*
X77781929Y-44555177D01*
X77677826Y-44303851D01*
X77526693Y-44077664D01*
X77334336Y-43885307D01*
X77108149Y-43734174D01*
X76856823Y-43630071D01*
X76590017Y-43577000D01*
X76317983Y-43577000D01*
X76051177Y-43630071D01*
X75799851Y-43734174D01*
X75573664Y-43885307D01*
X75381307Y-44077664D01*
X75230174Y-44303851D01*
X75126071Y-44555177D01*
X75073000Y-44821983D01*
X74312891Y-44821983D01*
X74286799Y-44690813D01*
X74217749Y-44524111D01*
X74117504Y-44374084D01*
X73989916Y-44246496D01*
X73839889Y-44146251D01*
X73673187Y-44077201D01*
X73496218Y-44042000D01*
X73315782Y-44042000D01*
X73138813Y-44077201D01*
X72972111Y-44146251D01*
X72822084Y-44246496D01*
X72694496Y-44374084D01*
X72594251Y-44524111D01*
X72525201Y-44690813D01*
X72490000Y-44867782D01*
X71782000Y-44867782D01*
X71746799Y-44690813D01*
X71677749Y-44524111D01*
X71577504Y-44374084D01*
X71449916Y-44246496D01*
X71299889Y-44146251D01*
X71133187Y-44077201D01*
X70956218Y-44042000D01*
X70775782Y-44042000D01*
X70598813Y-44077201D01*
X70432111Y-44146251D01*
X70282084Y-44246496D01*
X70154496Y-44374084D01*
X70054251Y-44524111D01*
X69985201Y-44690813D01*
X69950000Y-44867782D01*
X69242000Y-44867782D01*
X69206799Y-44690813D01*
X69137749Y-44524111D01*
X69037504Y-44374084D01*
X68909916Y-44246496D01*
X68759889Y-44146251D01*
X68593187Y-44077201D01*
X68416218Y-44042000D01*
X68235782Y-44042000D01*
X68058813Y-44077201D01*
X67892111Y-44146251D01*
X67761905Y-44233252D01*
X68482407Y-43512750D01*
X68564943Y-43512750D01*
X68668304Y-43492191D01*
X68765668Y-43451861D01*
X68853293Y-43393312D01*
X68927812Y-43318793D01*
X68986361Y-43231168D01*
X69026691Y-43133804D01*
X69047250Y-43030443D01*
X69047250Y-42925057D01*
X69026691Y-42821696D01*
X69016349Y-42796728D01*
X71091336Y-42796728D01*
X71108872Y-42798455D01*
X71126408Y-42796728D01*
X71126416Y-42796728D01*
X71178895Y-42791559D01*
X71246228Y-42771134D01*
X71308282Y-42737966D01*
X71362672Y-42693328D01*
X71373854Y-42679703D01*
X72269429Y-41784128D01*
X72283049Y-41772950D01*
X72294228Y-41759329D01*
X72294233Y-41759324D01*
X72312080Y-41737577D01*
X72327688Y-41718560D01*
X72360856Y-41656506D01*
X72366862Y-41636707D01*
X72381281Y-41589174D01*
X72383939Y-41562188D01*
X72386450Y-41536694D01*
X72386450Y-41536687D01*
X72388177Y-41519151D01*
X72386450Y-41501615D01*
X72386450Y-32198248D01*
X72388177Y-32180712D01*
X72386450Y-32163176D01*
X72386450Y-32163168D01*
X72381281Y-32110689D01*
X72380082Y-32106734D01*
X72360856Y-32043356D01*
X72354365Y-32031212D01*
X72327688Y-31981302D01*
X72301740Y-31949685D01*
X72294234Y-31940539D01*
X72294232Y-31940537D01*
X72283050Y-31926912D01*
X72269425Y-31915730D01*
X68442473Y-28088778D01*
X68593187Y-28058799D01*
X68759889Y-27989749D01*
X68909916Y-27889504D01*
X69037504Y-27761916D01*
X69137749Y-27611889D01*
X69206799Y-27445187D01*
X69242000Y-27268218D01*
X69242000Y-27087782D01*
X69950000Y-27087782D01*
X69950000Y-27268218D01*
X69985201Y-27445187D01*
X70054251Y-27611889D01*
X70154496Y-27761916D01*
X70282084Y-27889504D01*
X70432111Y-27989749D01*
X70598813Y-28058799D01*
X70775782Y-28094000D01*
X70956218Y-28094000D01*
X71133187Y-28058799D01*
X71299889Y-27989749D01*
X71449916Y-27889504D01*
X71577504Y-27761916D01*
X71677749Y-27611889D01*
X71746799Y-27445187D01*
X71782000Y-27268218D01*
X71782000Y-27087782D01*
X72490000Y-27087782D01*
X72490000Y-27268218D01*
X72525201Y-27445187D01*
X72594251Y-27611889D01*
X72694496Y-27761916D01*
X72822084Y-27889504D01*
X72972111Y-27989749D01*
X73138813Y-28058799D01*
X73315782Y-28094000D01*
X73496218Y-28094000D01*
X73673187Y-28058799D01*
X73839889Y-27989749D01*
X73989916Y-27889504D01*
X74117504Y-27761916D01*
X74217749Y-27611889D01*
X74286799Y-27445187D01*
X74322000Y-27268218D01*
X74322000Y-27087782D01*
X74312891Y-27041983D01*
X75073000Y-27041983D01*
X75073000Y-27314017D01*
X75126071Y-27580823D01*
X75230174Y-27832149D01*
X75381307Y-28058336D01*
X75573664Y-28250693D01*
X75799851Y-28401826D01*
X76051177Y-28505929D01*
X76317983Y-28559000D01*
X76590017Y-28559000D01*
X76856823Y-28505929D01*
X77108149Y-28401826D01*
X77334336Y-28250693D01*
X77526693Y-28058336D01*
X77677826Y-27832149D01*
X77781929Y-27580823D01*
X77835000Y-27314017D01*
X77835000Y-27041983D01*
X77781929Y-26775177D01*
X77677826Y-26523851D01*
X77526693Y-26297664D01*
X77334336Y-26105307D01*
X77108149Y-25954174D01*
X76856823Y-25850071D01*
X76590017Y-25797000D01*
X76317983Y-25797000D01*
X76051177Y-25850071D01*
X75799851Y-25954174D01*
X75573664Y-26105307D01*
X75381307Y-26297664D01*
X75230174Y-26523851D01*
X75126071Y-26775177D01*
X75073000Y-27041983D01*
X74312891Y-27041983D01*
X74286799Y-26910813D01*
X74217749Y-26744111D01*
X74117504Y-26594084D01*
X73989916Y-26466496D01*
X73839889Y-26366251D01*
X73673187Y-26297201D01*
X73496218Y-26262000D01*
X73315782Y-26262000D01*
X73138813Y-26297201D01*
X72972111Y-26366251D01*
X72822084Y-26466496D01*
X72694496Y-26594084D01*
X72594251Y-26744111D01*
X72525201Y-26910813D01*
X72490000Y-27087782D01*
X71782000Y-27087782D01*
X71746799Y-26910813D01*
X71677749Y-26744111D01*
X71577504Y-26594084D01*
X71449916Y-26466496D01*
X71299889Y-26366251D01*
X71133187Y-26297201D01*
X70956218Y-26262000D01*
X70775782Y-26262000D01*
X70598813Y-26297201D01*
X70432111Y-26366251D01*
X70282084Y-26466496D01*
X70154496Y-26594084D01*
X70054251Y-26744111D01*
X69985201Y-26910813D01*
X69950000Y-27087782D01*
X69242000Y-27087782D01*
X69206799Y-26910813D01*
X69137749Y-26744111D01*
X69037504Y-26594084D01*
X68909916Y-26466496D01*
X68759889Y-26366251D01*
X68593187Y-26297201D01*
X68416218Y-26262000D01*
X68235782Y-26262000D01*
X68058813Y-26297201D01*
X67892111Y-26366251D01*
X67742084Y-26466496D01*
X67614496Y-26594084D01*
X67514251Y-26744111D01*
X67445201Y-26910813D01*
X67415222Y-27061527D01*
X66173909Y-25820214D01*
X66162727Y-25806589D01*
X66145457Y-25792415D01*
X66139532Y-25787553D01*
X66108337Y-25761951D01*
X66046283Y-25728783D01*
X65978950Y-25708358D01*
X65955010Y-25706000D01*
X76439029Y-25706000D01*
X76739629Y-25735474D01*
%TA.AperFunction,Conductor*%
D17*
G36*
X76739629Y-25735474D02*
G01*
X77014378Y-25818426D01*
X77267780Y-25953162D01*
X77490188Y-26134553D01*
X77673128Y-26355691D01*
X77809630Y-26608146D01*
X77894497Y-26882306D01*
X77926001Y-27182046D01*
X77926001Y-29311633D01*
X73400850Y-29311633D01*
X73376074Y-29314073D01*
X73352249Y-29321300D01*
X73330293Y-29333036D01*
X73311047Y-29348830D01*
X73295253Y-29368076D01*
X73283517Y-29390032D01*
X73276290Y-29413857D01*
X73273850Y-29438633D01*
X73273850Y-42646633D01*
X73276290Y-42671409D01*
X73283517Y-42695234D01*
X73295253Y-42717190D01*
X73311047Y-42736436D01*
X73330293Y-42752230D01*
X73352249Y-42763966D01*
X73376074Y-42771193D01*
X73400850Y-42773633D01*
X77926000Y-42773633D01*
X77926000Y-44943030D01*
X77896526Y-45243630D01*
X77813575Y-45518376D01*
X77678838Y-45771780D01*
X77497445Y-45994190D01*
X77276313Y-46177126D01*
X77023855Y-46313630D01*
X76749694Y-46398497D01*
X76449964Y-46430000D01*
X46315157Y-46430000D01*
X47002429Y-45742728D01*
X47016049Y-45731550D01*
X47027228Y-45717929D01*
X47027233Y-45717924D01*
X47046424Y-45694540D01*
X47060688Y-45677160D01*
X47093856Y-45615106D01*
X47101126Y-45591140D01*
X47114281Y-45547774D01*
X47118982Y-45500042D01*
X47119450Y-45495294D01*
X47119450Y-45495287D01*
X47121177Y-45477751D01*
X47119450Y-45460215D01*
X47119450Y-45196275D01*
X47125201Y-45225187D01*
X47194251Y-45391889D01*
X47294496Y-45541916D01*
X47422084Y-45669504D01*
X47572111Y-45769749D01*
X47738813Y-45838799D01*
X47915782Y-45874000D01*
X48096218Y-45874000D01*
X48273187Y-45838799D01*
X48439889Y-45769749D01*
X48589916Y-45669504D01*
X48717504Y-45541916D01*
X48817749Y-45391889D01*
X48886799Y-45225187D01*
X48922000Y-45048218D01*
X48922000Y-44867782D01*
X49630000Y-44867782D01*
X49630000Y-45048218D01*
X49665201Y-45225187D01*
X49734251Y-45391889D01*
X49834496Y-45541916D01*
X49962084Y-45669504D01*
X50112111Y-45769749D01*
X50278813Y-45838799D01*
X50455782Y-45874000D01*
X50636218Y-45874000D01*
X50813187Y-45838799D01*
X50979889Y-45769749D01*
X51129916Y-45669504D01*
X51257504Y-45541916D01*
X51357749Y-45391889D01*
X51426799Y-45225187D01*
X51462000Y-45048218D01*
X51462000Y-44867782D01*
X51426799Y-44690813D01*
X51357749Y-44524111D01*
X51257504Y-44374084D01*
X51129916Y-44246496D01*
X50979889Y-44146251D01*
X50813187Y-44077201D01*
X50636218Y-44042000D01*
X50455782Y-44042000D01*
X50278813Y-44077201D01*
X50112111Y-44146251D01*
X49962084Y-44246496D01*
X49834496Y-44374084D01*
X49734251Y-44524111D01*
X49665201Y-44690813D01*
X49630000Y-44867782D01*
X48922000Y-44867782D01*
X48886799Y-44690813D01*
X48817749Y-44524111D01*
X48717504Y-44374084D01*
X48589916Y-44246496D01*
X48439889Y-44146251D01*
X48273187Y-44077201D01*
X48096218Y-44042000D01*
X47915782Y-44042000D01*
X47738813Y-44077201D01*
X47572111Y-44146251D01*
X47422084Y-44246496D01*
X47294496Y-44374084D01*
X47258274Y-44428294D01*
X47276691Y-44383832D01*
X47297250Y-44280471D01*
X47297250Y-44175085D01*
X47276691Y-44071724D01*
X47236361Y-43974360D01*
X47177812Y-43886735D01*
X47103293Y-43812216D01*
X47015668Y-43753667D01*
X46918304Y-43713337D01*
X46877294Y-43705180D01*
X57796434Y-43705180D01*
X57813970Y-43706907D01*
X57831506Y-43705180D01*
X57831514Y-43705180D01*
X57883993Y-43700011D01*
X57951326Y-43679586D01*
X58013380Y-43646418D01*
X58067770Y-43601780D01*
X58078953Y-43588154D01*
X59508205Y-42158902D01*
X59538139Y-42231168D01*
X59596688Y-42318793D01*
X59671207Y-42393312D01*
X59758832Y-42451861D01*
X59856196Y-42492191D01*
X59959557Y-42512750D01*
X60064943Y-42512750D01*
X60168304Y-42492191D01*
X60265668Y-42451861D01*
X60353293Y-42393312D01*
X60411655Y-42334950D01*
X67650607Y-42334950D01*
X67640287Y-42386835D01*
X67640287Y-42492221D01*
X67660846Y-42595582D01*
X67701176Y-42692946D01*
X67759725Y-42780571D01*
X67834244Y-42855090D01*
X67921869Y-42913639D01*
X67977250Y-42936579D01*
X67977250Y-43007593D01*
X66772071Y-44212772D01*
X66758451Y-44223950D01*
X66747273Y-44237570D01*
X66747266Y-44237577D01*
X66739947Y-44246496D01*
X66713813Y-44278340D01*
X66712674Y-44280471D01*
X66680644Y-44340395D01*
X66660219Y-44407727D01*
X66653323Y-44477750D01*
X66655051Y-44495296D01*
X66655051Y-44662450D01*
X66597749Y-44524111D01*
X66497504Y-44374084D01*
X66369916Y-44246496D01*
X66219889Y-44146251D01*
X66053187Y-44077201D01*
X65876218Y-44042000D01*
X65695782Y-44042000D01*
X65518813Y-44077201D01*
X65352111Y-44146251D01*
X65202084Y-44246496D01*
X65074496Y-44374084D01*
X64974251Y-44524111D01*
X64905201Y-44690813D01*
X64870000Y-44867782D01*
X64870000Y-45048218D01*
X64905201Y-45225187D01*
X64974251Y-45391889D01*
X65074496Y-45541916D01*
X65153130Y-45620550D01*
X63878870Y-45620550D01*
X63957504Y-45541916D01*
X64057749Y-45391889D01*
X64126799Y-45225187D01*
X64162000Y-45048218D01*
X64162000Y-44867782D01*
X64126799Y-44690813D01*
X64057749Y-44524111D01*
X63957504Y-44374084D01*
X63829916Y-44246496D01*
X63679889Y-44146251D01*
X63513187Y-44077201D01*
X63336218Y-44042000D01*
X63155782Y-44042000D01*
X62978813Y-44077201D01*
X62812111Y-44146251D01*
X62662084Y-44246496D01*
X62534496Y-44374084D01*
X62434251Y-44524111D01*
X62365201Y-44690813D01*
X62330000Y-44867782D01*
X62330000Y-45048218D01*
X62365201Y-45225187D01*
X62434251Y-45391889D01*
X62534496Y-45541916D01*
X62613130Y-45620550D01*
X61338870Y-45620550D01*
X61417504Y-45541916D01*
X61517749Y-45391889D01*
X61586799Y-45225187D01*
X61622000Y-45048218D01*
X61622000Y-44867782D01*
X61586799Y-44690813D01*
X61517749Y-44524111D01*
X61417504Y-44374084D01*
X61289916Y-44246496D01*
X61139889Y-44146251D01*
X60973187Y-44077201D01*
X60796218Y-44042000D01*
X60615782Y-44042000D01*
X60438813Y-44077201D01*
X60272111Y-44146251D01*
X60122084Y-44246496D01*
X59994496Y-44374084D01*
X59894251Y-44524111D01*
X59825201Y-44690813D01*
X59790000Y-44867782D01*
X59790000Y-45048218D01*
X59825201Y-45225187D01*
X59894251Y-45391889D01*
X59994496Y-45541916D01*
X60073130Y-45620550D01*
X58798870Y-45620550D01*
X58877504Y-45541916D01*
X58977749Y-45391889D01*
X59046799Y-45225187D01*
X59082000Y-45048218D01*
X59082000Y-44867782D01*
X59046799Y-44690813D01*
X58977749Y-44524111D01*
X58877504Y-44374084D01*
X58749916Y-44246496D01*
X58599889Y-44146251D01*
X58433187Y-44077201D01*
X58256218Y-44042000D01*
X58075782Y-44042000D01*
X57898813Y-44077201D01*
X57732111Y-44146251D01*
X57582084Y-44246496D01*
X57454496Y-44374084D01*
X57354251Y-44524111D01*
X57285201Y-44690813D01*
X57250000Y-44867782D01*
X57250000Y-45048218D01*
X57285201Y-45225187D01*
X57354251Y-45391889D01*
X57454496Y-45541916D01*
X57533130Y-45620550D01*
X56258870Y-45620550D01*
X56337504Y-45541916D01*
X56437749Y-45391889D01*
X56506799Y-45225187D01*
X56542000Y-45048218D01*
X56542000Y-44867782D01*
X56506799Y-44690813D01*
X56437749Y-44524111D01*
X56337504Y-44374084D01*
X56209916Y-44246496D01*
X56059889Y-44146251D01*
X55893187Y-44077201D01*
X55716218Y-44042000D01*
X55535782Y-44042000D01*
X55358813Y-44077201D01*
X55192111Y-44146251D01*
X55042084Y-44246496D01*
X54914496Y-44374084D01*
X54814251Y-44524111D01*
X54745201Y-44690813D01*
X54710000Y-44867782D01*
X54710000Y-45048218D01*
X54745201Y-45225187D01*
X54814251Y-45391889D01*
X54914496Y-45541916D01*
X54993130Y-45620550D01*
X54253707Y-45620550D01*
X53935033Y-45301876D01*
X53966799Y-45225187D01*
X54002000Y-45048218D01*
X54002000Y-44867782D01*
X53966799Y-44690813D01*
X53897749Y-44524111D01*
X53797504Y-44374084D01*
X53669916Y-44246496D01*
X53519889Y-44146251D01*
X53353187Y-44077201D01*
X53176218Y-44042000D01*
X52995782Y-44042000D01*
X52818813Y-44077201D01*
X52652111Y-44146251D01*
X52502084Y-44246496D01*
X52374496Y-44374084D01*
X52274251Y-44524111D01*
X52205201Y-44690813D01*
X52170000Y-44867782D01*
X52170000Y-45048218D01*
X52205201Y-45225187D01*
X52274251Y-45391889D01*
X52374496Y-45541916D01*
X52502084Y-45669504D01*
X52652111Y-45769749D01*
X52818813Y-45838799D01*
X52995782Y-45874000D01*
X53176218Y-45874000D01*
X53353187Y-45838799D01*
X53429876Y-45807033D01*
X53840768Y-46217925D01*
X53851950Y-46231550D01*
X53906340Y-46276188D01*
X53968394Y-46309356D01*
X54035726Y-46329781D01*
X54042466Y-46330445D01*
X54088206Y-46334950D01*
X54088213Y-46334950D01*
X54105749Y-46336677D01*
X54123285Y-46334950D01*
X66244714Y-46334950D01*
X66262250Y-46336677D01*
X66279786Y-46334950D01*
X66279794Y-46334950D01*
X66332273Y-46329781D01*
X66399606Y-46309356D01*
X66461660Y-46276188D01*
X66496834Y-46247320D01*
X66502423Y-46242734D01*
X66502425Y-46242732D01*
X66516050Y-46231550D01*
X66527232Y-46217925D01*
X67252429Y-45492728D01*
X67266049Y-45481550D01*
X67277228Y-45467929D01*
X67277233Y-45467924D01*
X67298392Y-45442142D01*
X67310688Y-45427160D01*
X67343856Y-45365106D01*
X67350725Y-45342463D01*
X67364281Y-45297774D01*
X67366673Y-45273488D01*
X67369450Y-45245294D01*
X67369450Y-45245287D01*
X67371177Y-45227751D01*
X67369450Y-45210215D01*
X67369450Y-44625707D01*
X67601252Y-44393905D01*
X67514251Y-44524111D01*
X67445201Y-44690813D01*
X67410000Y-44867782D01*
X67410000Y-45048218D01*
X67445201Y-45225187D01*
X67514251Y-45391889D01*
X67614496Y-45541916D01*
X67742084Y-45669504D01*
X67892111Y-45769749D01*
X68058813Y-45838799D01*
X68235782Y-45874000D01*
X68416218Y-45874000D01*
X68593187Y-45838799D01*
X68759889Y-45769749D01*
X68909916Y-45669504D01*
X69037504Y-45541916D01*
X69137749Y-45391889D01*
X69206799Y-45225187D01*
X69242000Y-45048218D01*
X69242000Y-44867782D01*
X69950000Y-44867782D01*
X69950000Y-45048218D01*
X69985201Y-45225187D01*
X70054251Y-45391889D01*
X70154496Y-45541916D01*
X70282084Y-45669504D01*
X70432111Y-45769749D01*
X70598813Y-45838799D01*
X70775782Y-45874000D01*
X70956218Y-45874000D01*
X71133187Y-45838799D01*
X71299889Y-45769749D01*
X71449916Y-45669504D01*
X71577504Y-45541916D01*
X71677749Y-45391889D01*
X71746799Y-45225187D01*
X71782000Y-45048218D01*
X71782000Y-44867782D01*
X72490000Y-44867782D01*
X72490000Y-45048218D01*
X72525201Y-45225187D01*
X72594251Y-45391889D01*
X72694496Y-45541916D01*
X72822084Y-45669504D01*
X72972111Y-45769749D01*
X73138813Y-45838799D01*
X73315782Y-45874000D01*
X73496218Y-45874000D01*
X73673187Y-45838799D01*
X73839889Y-45769749D01*
X73989916Y-45669504D01*
X74117504Y-45541916D01*
X74217749Y-45391889D01*
X74286799Y-45225187D01*
X74322000Y-45048218D01*
X74322000Y-44867782D01*
X74312891Y-44821983D01*
X75073000Y-44821983D01*
X75073000Y-45094017D01*
X75126071Y-45360823D01*
X75230174Y-45612149D01*
X75381307Y-45838336D01*
X75573664Y-46030693D01*
X75799851Y-46181826D01*
X76051177Y-46285929D01*
X76317983Y-46339000D01*
X76590017Y-46339000D01*
X76856823Y-46285929D01*
X77108149Y-46181826D01*
X77334336Y-46030693D01*
X77526693Y-45838336D01*
X77677826Y-45612149D01*
X77781929Y-45360823D01*
X77835000Y-45094017D01*
X77835000Y-44821983D01*
X77781929Y-44555177D01*
X77677826Y-44303851D01*
X77526693Y-44077664D01*
X77334336Y-43885307D01*
X77108149Y-43734174D01*
X76856823Y-43630071D01*
X76590017Y-43577000D01*
X76317983Y-43577000D01*
X76051177Y-43630071D01*
X75799851Y-43734174D01*
X75573664Y-43885307D01*
X75381307Y-44077664D01*
X75230174Y-44303851D01*
X75126071Y-44555177D01*
X75073000Y-44821983D01*
X74312891Y-44821983D01*
X74286799Y-44690813D01*
X74217749Y-44524111D01*
X74117504Y-44374084D01*
X73989916Y-44246496D01*
X73839889Y-44146251D01*
X73673187Y-44077201D01*
X73496218Y-44042000D01*
X73315782Y-44042000D01*
X73138813Y-44077201D01*
X72972111Y-44146251D01*
X72822084Y-44246496D01*
X72694496Y-44374084D01*
X72594251Y-44524111D01*
X72525201Y-44690813D01*
X72490000Y-44867782D01*
X71782000Y-44867782D01*
X71746799Y-44690813D01*
X71677749Y-44524111D01*
X71577504Y-44374084D01*
X71449916Y-44246496D01*
X71299889Y-44146251D01*
X71133187Y-44077201D01*
X70956218Y-44042000D01*
X70775782Y-44042000D01*
X70598813Y-44077201D01*
X70432111Y-44146251D01*
X70282084Y-44246496D01*
X70154496Y-44374084D01*
X70054251Y-44524111D01*
X69985201Y-44690813D01*
X69950000Y-44867782D01*
X69242000Y-44867782D01*
X69206799Y-44690813D01*
X69137749Y-44524111D01*
X69037504Y-44374084D01*
X68909916Y-44246496D01*
X68759889Y-44146251D01*
X68593187Y-44077201D01*
X68416218Y-44042000D01*
X68235782Y-44042000D01*
X68058813Y-44077201D01*
X67892111Y-44146251D01*
X67761905Y-44233252D01*
X68482407Y-43512750D01*
X68564943Y-43512750D01*
X68668304Y-43492191D01*
X68765668Y-43451861D01*
X68853293Y-43393312D01*
X68927812Y-43318793D01*
X68986361Y-43231168D01*
X69026691Y-43133804D01*
X69047250Y-43030443D01*
X69047250Y-42925057D01*
X69026691Y-42821696D01*
X69016349Y-42796728D01*
X71091336Y-42796728D01*
X71108872Y-42798455D01*
X71126408Y-42796728D01*
X71126416Y-42796728D01*
X71178895Y-42791559D01*
X71246228Y-42771134D01*
X71308282Y-42737966D01*
X71362672Y-42693328D01*
X71373854Y-42679703D01*
X72269429Y-41784128D01*
X72283049Y-41772950D01*
X72294228Y-41759329D01*
X72294233Y-41759324D01*
X72312080Y-41737577D01*
X72327688Y-41718560D01*
X72360856Y-41656506D01*
X72366862Y-41636707D01*
X72381281Y-41589174D01*
X72383939Y-41562188D01*
X72386450Y-41536694D01*
X72386450Y-41536687D01*
X72388177Y-41519151D01*
X72386450Y-41501615D01*
X72386450Y-32198248D01*
X72388177Y-32180712D01*
X72386450Y-32163176D01*
X72386450Y-32163168D01*
X72381281Y-32110689D01*
X72380082Y-32106734D01*
X72360856Y-32043356D01*
X72354365Y-32031212D01*
X72327688Y-31981302D01*
X72301740Y-31949685D01*
X72294234Y-31940539D01*
X72294232Y-31940537D01*
X72283050Y-31926912D01*
X72269425Y-31915730D01*
X68442473Y-28088778D01*
X68593187Y-28058799D01*
X68759889Y-27989749D01*
X68909916Y-27889504D01*
X69037504Y-27761916D01*
X69137749Y-27611889D01*
X69206799Y-27445187D01*
X69242000Y-27268218D01*
X69242000Y-27087782D01*
X69950000Y-27087782D01*
X69950000Y-27268218D01*
X69985201Y-27445187D01*
X70054251Y-27611889D01*
X70154496Y-27761916D01*
X70282084Y-27889504D01*
X70432111Y-27989749D01*
X70598813Y-28058799D01*
X70775782Y-28094000D01*
X70956218Y-28094000D01*
X71133187Y-28058799D01*
X71299889Y-27989749D01*
X71449916Y-27889504D01*
X71577504Y-27761916D01*
X71677749Y-27611889D01*
X71746799Y-27445187D01*
X71782000Y-27268218D01*
X71782000Y-27087782D01*
X72490000Y-27087782D01*
X72490000Y-27268218D01*
X72525201Y-27445187D01*
X72594251Y-27611889D01*
X72694496Y-27761916D01*
X72822084Y-27889504D01*
X72972111Y-27989749D01*
X73138813Y-28058799D01*
X73315782Y-28094000D01*
X73496218Y-28094000D01*
X73673187Y-28058799D01*
X73839889Y-27989749D01*
X73989916Y-27889504D01*
X74117504Y-27761916D01*
X74217749Y-27611889D01*
X74286799Y-27445187D01*
X74322000Y-27268218D01*
X74322000Y-27087782D01*
X74312891Y-27041983D01*
X75073000Y-27041983D01*
X75073000Y-27314017D01*
X75126071Y-27580823D01*
X75230174Y-27832149D01*
X75381307Y-28058336D01*
X75573664Y-28250693D01*
X75799851Y-28401826D01*
X76051177Y-28505929D01*
X76317983Y-28559000D01*
X76590017Y-28559000D01*
X76856823Y-28505929D01*
X77108149Y-28401826D01*
X77334336Y-28250693D01*
X77526693Y-28058336D01*
X77677826Y-27832149D01*
X77781929Y-27580823D01*
X77835000Y-27314017D01*
X77835000Y-27041983D01*
X77781929Y-26775177D01*
X77677826Y-26523851D01*
X77526693Y-26297664D01*
X77334336Y-26105307D01*
X77108149Y-25954174D01*
X76856823Y-25850071D01*
X76590017Y-25797000D01*
X76317983Y-25797000D01*
X76051177Y-25850071D01*
X75799851Y-25954174D01*
X75573664Y-26105307D01*
X75381307Y-26297664D01*
X75230174Y-26523851D01*
X75126071Y-26775177D01*
X75073000Y-27041983D01*
X74312891Y-27041983D01*
X74286799Y-26910813D01*
X74217749Y-26744111D01*
X74117504Y-26594084D01*
X73989916Y-26466496D01*
X73839889Y-26366251D01*
X73673187Y-26297201D01*
X73496218Y-26262000D01*
X73315782Y-26262000D01*
X73138813Y-26297201D01*
X72972111Y-26366251D01*
X72822084Y-26466496D01*
X72694496Y-26594084D01*
X72594251Y-26744111D01*
X72525201Y-26910813D01*
X72490000Y-27087782D01*
X71782000Y-27087782D01*
X71746799Y-26910813D01*
X71677749Y-26744111D01*
X71577504Y-26594084D01*
X71449916Y-26466496D01*
X71299889Y-26366251D01*
X71133187Y-26297201D01*
X70956218Y-26262000D01*
X70775782Y-26262000D01*
X70598813Y-26297201D01*
X70432111Y-26366251D01*
X70282084Y-26466496D01*
X70154496Y-26594084D01*
X70054251Y-26744111D01*
X69985201Y-26910813D01*
X69950000Y-27087782D01*
X69242000Y-27087782D01*
X69206799Y-26910813D01*
X69137749Y-26744111D01*
X69037504Y-26594084D01*
X68909916Y-26466496D01*
X68759889Y-26366251D01*
X68593187Y-26297201D01*
X68416218Y-26262000D01*
X68235782Y-26262000D01*
X68058813Y-26297201D01*
X67892111Y-26366251D01*
X67742084Y-26466496D01*
X67614496Y-26594084D01*
X67514251Y-26744111D01*
X67445201Y-26910813D01*
X67415222Y-27061527D01*
X66173909Y-25820214D01*
X66162727Y-25806589D01*
X66145457Y-25792415D01*
X66139532Y-25787553D01*
X66108337Y-25761951D01*
X66046283Y-25728783D01*
X65978950Y-25708358D01*
X65955010Y-25706000D01*
X76439029Y-25706000D01*
X76739629Y-25735474D01*
G37*
%TD.AperFunction*%
D15*
X59096230Y-40770271D02*
X57434541Y-42431960D01*
X56313205Y-42431960D01*
X56732415Y-42012750D01*
X56814951Y-42012750D01*
X56918312Y-41992191D01*
X57015676Y-41951861D01*
X57103301Y-41893312D01*
X57177820Y-41818793D01*
X57236369Y-41731168D01*
X57276699Y-41633804D01*
X57297258Y-41530443D01*
X57297258Y-41425057D01*
X57276699Y-41321696D01*
X57236369Y-41224332D01*
X57227131Y-41210506D01*
X57555674Y-41210506D01*
X57559582Y-41213117D01*
X57656946Y-41253447D01*
X57760307Y-41274006D01*
X57865693Y-41274006D01*
X57969054Y-41253447D01*
X58066418Y-41213117D01*
X58154043Y-41154568D01*
X58228562Y-41080049D01*
X58287111Y-40992424D01*
X58327441Y-40895060D01*
X58348000Y-40791699D01*
X58348000Y-40686313D01*
X58327441Y-40582952D01*
X58287111Y-40485588D01*
X58228562Y-40397963D01*
X58221000Y-40390401D01*
X58221000Y-40095998D01*
X59096231Y-39220768D01*
X59096230Y-40770271D01*
%TA.AperFunction,Conductor*%
D17*
G36*
X59096230Y-40770271D02*
G01*
X57434541Y-42431960D01*
X56313205Y-42431960D01*
X56732415Y-42012750D01*
X56814951Y-42012750D01*
X56918312Y-41992191D01*
X57015676Y-41951861D01*
X57103301Y-41893312D01*
X57177820Y-41818793D01*
X57236369Y-41731168D01*
X57276699Y-41633804D01*
X57297258Y-41530443D01*
X57297258Y-41425057D01*
X57276699Y-41321696D01*
X57236369Y-41224332D01*
X57227131Y-41210506D01*
X57555674Y-41210506D01*
X57559582Y-41213117D01*
X57656946Y-41253447D01*
X57760307Y-41274006D01*
X57865693Y-41274006D01*
X57969054Y-41253447D01*
X58066418Y-41213117D01*
X58154043Y-41154568D01*
X58228562Y-41080049D01*
X58287111Y-40992424D01*
X58327441Y-40895060D01*
X58348000Y-40791699D01*
X58348000Y-40686313D01*
X58327441Y-40582952D01*
X58287111Y-40485588D01*
X58228562Y-40397963D01*
X58221000Y-40390401D01*
X58221000Y-40095998D01*
X59096231Y-39220768D01*
X59096230Y-40770271D01*
G37*
%TD.AperFunction*%
D15*
X45977227Y-41056029D02*
X45991992Y-41074020D01*
X46063787Y-41132941D01*
X46145698Y-41176723D01*
X46176656Y-41186114D01*
X46234575Y-41203684D01*
X46327006Y-41212787D01*
X46350167Y-41210506D01*
X56297385Y-41210506D01*
X56288147Y-41224332D01*
X56247817Y-41321696D01*
X56227258Y-41425057D01*
X56227258Y-41507593D01*
X55582301Y-42152550D01*
X46192207Y-42152550D01*
X44297250Y-40257593D01*
X44297250Y-40175057D01*
X44276691Y-40071696D01*
X44236361Y-39974332D01*
X44177812Y-39886707D01*
X44103293Y-39812188D01*
X44015668Y-39753639D01*
X43953167Y-39727750D01*
X44015668Y-39701861D01*
X44103293Y-39643312D01*
X44177812Y-39568793D01*
X44236361Y-39481168D01*
X44276691Y-39383804D01*
X44281388Y-39360189D01*
X45977227Y-41056029D01*
%TA.AperFunction,Conductor*%
D17*
G36*
X45977227Y-41056029D02*
G01*
X45991992Y-41074020D01*
X46063787Y-41132941D01*
X46145698Y-41176723D01*
X46176656Y-41186114D01*
X46234575Y-41203684D01*
X46327006Y-41212787D01*
X46350167Y-41210506D01*
X56297385Y-41210506D01*
X56288147Y-41224332D01*
X56247817Y-41321696D01*
X56227258Y-41425057D01*
X56227258Y-41507593D01*
X55582301Y-42152550D01*
X46192207Y-42152550D01*
X44297250Y-40257593D01*
X44297250Y-40175057D01*
X44276691Y-40071696D01*
X44236361Y-39974332D01*
X44177812Y-39886707D01*
X44103293Y-39812188D01*
X44015668Y-39753639D01*
X43953167Y-39727750D01*
X44015668Y-39701861D01*
X44103293Y-39643312D01*
X44177812Y-39568793D01*
X44236361Y-39481168D01*
X44276691Y-39383804D01*
X44281388Y-39360189D01*
X45977227Y-41056029D01*
G37*
%TD.AperFunction*%
D15*
X69513050Y-34783707D02*
X69513051Y-36751848D01*
X69511323Y-36769394D01*
X69518219Y-36839417D01*
X69538644Y-36906749D01*
X69545742Y-36920028D01*
X69571813Y-36968804D01*
X69584825Y-36984659D01*
X69605266Y-37009567D01*
X69605273Y-37009574D01*
X69616451Y-37023194D01*
X69630071Y-37034372D01*
X70538449Y-37942750D01*
X70459557Y-37942750D01*
X70356196Y-37963309D01*
X70258832Y-38003639D01*
X70171207Y-38062188D01*
X70096688Y-38136707D01*
X70038139Y-38224332D01*
X69997809Y-38321696D01*
X69977250Y-38425057D01*
X69977250Y-38530443D01*
X69997809Y-38633804D01*
X70038139Y-38731168D01*
X70096688Y-38818793D01*
X70155051Y-38877156D01*
X70155051Y-39052792D01*
X68087293Y-41120550D01*
X61661655Y-41120550D01*
X61603293Y-41062188D01*
X61515668Y-41003639D01*
X61418304Y-40963309D01*
X61314943Y-40942750D01*
X61209557Y-40942750D01*
X61106196Y-40963309D01*
X61008832Y-41003639D01*
X60921207Y-41062188D01*
X60846688Y-41136707D01*
X60788139Y-41224332D01*
X60747809Y-41321696D01*
X60727250Y-41425057D01*
X60727250Y-41530443D01*
X60745173Y-41620550D01*
X60411655Y-41620550D01*
X60353293Y-41562188D01*
X60265668Y-41503639D01*
X60193402Y-41473705D01*
X60252431Y-41414676D01*
X60266051Y-41403498D01*
X60277230Y-41389877D01*
X60277235Y-41389872D01*
X60301433Y-41360387D01*
X60310690Y-41349108D01*
X60343858Y-41287054D01*
X60346501Y-41278340D01*
X60364283Y-41219722D01*
X60365191Y-41210506D01*
X60369452Y-41167242D01*
X60369452Y-41167235D01*
X60371179Y-41149699D01*
X60369452Y-41132163D01*
X60369452Y-40875705D01*
X61227250Y-40017907D01*
X61227250Y-40030443D01*
X61247809Y-40133804D01*
X61288139Y-40231168D01*
X61346688Y-40318793D01*
X61421207Y-40393312D01*
X61508832Y-40451861D01*
X61606196Y-40492191D01*
X61709557Y-40512750D01*
X61814943Y-40512750D01*
X61918304Y-40492191D01*
X62015668Y-40451861D01*
X62103293Y-40393312D01*
X62161655Y-40334950D01*
X62494714Y-40334950D01*
X62512250Y-40336677D01*
X62529786Y-40334950D01*
X62529794Y-40334950D01*
X62582273Y-40329781D01*
X62649606Y-40309356D01*
X62711660Y-40276188D01*
X62766050Y-40231550D01*
X62777232Y-40217925D01*
X63752429Y-39242728D01*
X63766049Y-39231550D01*
X63777228Y-39217929D01*
X63777234Y-39217923D01*
X63794278Y-39197154D01*
X63810688Y-39177160D01*
X63843856Y-39115106D01*
X63850131Y-39094420D01*
X63864282Y-39047774D01*
X63871177Y-38977750D01*
X63869450Y-38960211D01*
X63869450Y-36886811D01*
X63871177Y-36869275D01*
X63869450Y-36851739D01*
X63869450Y-36851731D01*
X63864281Y-36799252D01*
X63861049Y-36788595D01*
X63843856Y-36731919D01*
X63834684Y-36714759D01*
X63810688Y-36669865D01*
X63766050Y-36615475D01*
X63752425Y-36604293D01*
X62662537Y-35514405D01*
X62651355Y-35500780D01*
X62596965Y-35456142D01*
X62534911Y-35422974D01*
X62467578Y-35402549D01*
X62415099Y-35397380D01*
X62415091Y-35397380D01*
X62397555Y-35395653D01*
X62380019Y-35397380D01*
X62237154Y-35397380D01*
X62251860Y-35323443D01*
X62251860Y-35240907D01*
X62880818Y-34611950D01*
X69341293Y-34611950D01*
X69513050Y-34783707D01*
%TA.AperFunction,Conductor*%
D17*
G36*
X69513050Y-34783707D02*
G01*
X69513051Y-36751848D01*
X69511323Y-36769394D01*
X69518219Y-36839417D01*
X69538644Y-36906749D01*
X69545742Y-36920028D01*
X69571813Y-36968804D01*
X69584825Y-36984659D01*
X69605266Y-37009567D01*
X69605273Y-37009574D01*
X69616451Y-37023194D01*
X69630071Y-37034372D01*
X70538449Y-37942750D01*
X70459557Y-37942750D01*
X70356196Y-37963309D01*
X70258832Y-38003639D01*
X70171207Y-38062188D01*
X70096688Y-38136707D01*
X70038139Y-38224332D01*
X69997809Y-38321696D01*
X69977250Y-38425057D01*
X69977250Y-38530443D01*
X69997809Y-38633804D01*
X70038139Y-38731168D01*
X70096688Y-38818793D01*
X70155051Y-38877156D01*
X70155051Y-39052792D01*
X68087293Y-41120550D01*
X61661655Y-41120550D01*
X61603293Y-41062188D01*
X61515668Y-41003639D01*
X61418304Y-40963309D01*
X61314943Y-40942750D01*
X61209557Y-40942750D01*
X61106196Y-40963309D01*
X61008832Y-41003639D01*
X60921207Y-41062188D01*
X60846688Y-41136707D01*
X60788139Y-41224332D01*
X60747809Y-41321696D01*
X60727250Y-41425057D01*
X60727250Y-41530443D01*
X60745173Y-41620550D01*
X60411655Y-41620550D01*
X60353293Y-41562188D01*
X60265668Y-41503639D01*
X60193402Y-41473705D01*
X60252431Y-41414676D01*
X60266051Y-41403498D01*
X60277230Y-41389877D01*
X60277235Y-41389872D01*
X60301433Y-41360387D01*
X60310690Y-41349108D01*
X60343858Y-41287054D01*
X60346501Y-41278340D01*
X60364283Y-41219722D01*
X60365191Y-41210506D01*
X60369452Y-41167242D01*
X60369452Y-41167235D01*
X60371179Y-41149699D01*
X60369452Y-41132163D01*
X60369452Y-40875705D01*
X61227250Y-40017907D01*
X61227250Y-40030443D01*
X61247809Y-40133804D01*
X61288139Y-40231168D01*
X61346688Y-40318793D01*
X61421207Y-40393312D01*
X61508832Y-40451861D01*
X61606196Y-40492191D01*
X61709557Y-40512750D01*
X61814943Y-40512750D01*
X61918304Y-40492191D01*
X62015668Y-40451861D01*
X62103293Y-40393312D01*
X62161655Y-40334950D01*
X62494714Y-40334950D01*
X62512250Y-40336677D01*
X62529786Y-40334950D01*
X62529794Y-40334950D01*
X62582273Y-40329781D01*
X62649606Y-40309356D01*
X62711660Y-40276188D01*
X62766050Y-40231550D01*
X62777232Y-40217925D01*
X63752429Y-39242728D01*
X63766049Y-39231550D01*
X63777228Y-39217929D01*
X63777234Y-39217923D01*
X63794278Y-39197154D01*
X63810688Y-39177160D01*
X63843856Y-39115106D01*
X63850131Y-39094420D01*
X63864282Y-39047774D01*
X63871177Y-38977750D01*
X63869450Y-38960211D01*
X63869450Y-36886811D01*
X63871177Y-36869275D01*
X63869450Y-36851739D01*
X63869450Y-36851731D01*
X63864281Y-36799252D01*
X63861049Y-36788595D01*
X63843856Y-36731919D01*
X63834684Y-36714759D01*
X63810688Y-36669865D01*
X63766050Y-36615475D01*
X63752425Y-36604293D01*
X62662537Y-35514405D01*
X62651355Y-35500780D01*
X62596965Y-35456142D01*
X62534911Y-35422974D01*
X62467578Y-35402549D01*
X62415099Y-35397380D01*
X62415091Y-35397380D01*
X62397555Y-35395653D01*
X62380019Y-35397380D01*
X62237154Y-35397380D01*
X62251860Y-35323443D01*
X62251860Y-35240907D01*
X62880818Y-34611950D01*
X69341293Y-34611950D01*
X69513050Y-34783707D01*
G37*
%TD.AperFunction*%
D15*
X48905050Y-36514614D02*
X48903323Y-36532150D01*
X48905050Y-36549686D01*
X48905050Y-36549693D01*
X48908934Y-36589128D01*
X48910219Y-36602173D01*
X48929688Y-36666354D01*
X48930644Y-36669505D01*
X48963812Y-36731559D01*
X48978338Y-36749258D01*
X48997266Y-36772323D01*
X48997272Y-36772329D01*
X49008450Y-36785949D01*
X49022071Y-36797128D01*
X49459743Y-37234800D01*
X49039535Y-37234800D01*
X49021999Y-37233073D01*
X49004463Y-37234800D01*
X49004456Y-37234800D01*
X48958716Y-37239305D01*
X48951976Y-37239969D01*
X48936305Y-37244723D01*
X48884644Y-37260394D01*
X48822590Y-37293562D01*
X48768200Y-37338200D01*
X48757018Y-37351825D01*
X48670843Y-37438000D01*
X48588307Y-37438000D01*
X48484946Y-37458559D01*
X48387582Y-37498889D01*
X48299957Y-37557438D01*
X48225438Y-37631957D01*
X48166889Y-37719582D01*
X48126559Y-37816946D01*
X48106000Y-37920307D01*
X48106000Y-38025693D01*
X48126559Y-38129054D01*
X48166889Y-38226418D01*
X48225438Y-38314043D01*
X48299957Y-38388562D01*
X48387582Y-38447111D01*
X48484946Y-38487441D01*
X48588307Y-38508000D01*
X48693693Y-38508000D01*
X48797054Y-38487441D01*
X48894418Y-38447111D01*
X48982043Y-38388562D01*
X49056562Y-38314043D01*
X49115111Y-38226418D01*
X49155441Y-38129054D01*
X49176000Y-38025693D01*
X49176000Y-37949200D01*
X56242595Y-37949200D01*
X56300957Y-38007562D01*
X56388582Y-38066111D01*
X56485946Y-38106441D01*
X56589307Y-38127000D01*
X56694693Y-38127000D01*
X56798054Y-38106441D01*
X56895418Y-38066111D01*
X56983043Y-38007562D01*
X57057562Y-37933043D01*
X57116111Y-37845418D01*
X57156441Y-37748054D01*
X57177000Y-37644693D01*
X57177000Y-37539307D01*
X57156441Y-37435946D01*
X57116111Y-37338582D01*
X57057562Y-37250957D01*
X56983043Y-37176438D01*
X56895418Y-37117889D01*
X56798054Y-37077559D01*
X56694693Y-37057000D01*
X56589307Y-37057000D01*
X56485946Y-37077559D01*
X56388582Y-37117889D01*
X56300957Y-37176438D01*
X56242595Y-37234800D01*
X55760357Y-37234800D01*
X56410045Y-36585112D01*
X56427209Y-36671404D01*
X56467539Y-36768768D01*
X56526088Y-36856393D01*
X56600607Y-36930912D01*
X56688232Y-36989461D01*
X56785596Y-37029791D01*
X56888957Y-37050350D01*
X56994343Y-37050350D01*
X57097704Y-37029791D01*
X57195068Y-36989461D01*
X57282693Y-36930912D01*
X57357212Y-36856393D01*
X57363388Y-36847150D01*
X61079483Y-36847150D01*
X60472718Y-37453915D01*
X60427812Y-37386707D01*
X60353293Y-37312188D01*
X60265668Y-37253639D01*
X60168304Y-37213309D01*
X60064943Y-37192750D01*
X59959557Y-37192750D01*
X59856196Y-37213309D01*
X59758832Y-37253639D01*
X59671207Y-37312188D01*
X59596688Y-37386707D01*
X59538139Y-37474332D01*
X59497809Y-37571696D01*
X59477250Y-37675057D01*
X59477250Y-37685751D01*
X57538675Y-39624327D01*
X57523105Y-39637105D01*
X57472119Y-39699232D01*
X57434233Y-39770111D01*
X57422329Y-39809356D01*
X57412914Y-39840394D01*
X57410904Y-39847019D01*
X57405000Y-39906960D01*
X57405000Y-39906966D01*
X57403027Y-39927000D01*
X57405000Y-39947034D01*
X57405000Y-40267506D01*
X46522308Y-40267506D01*
X45744970Y-39490168D01*
X56223224Y-39490168D01*
X56223224Y-39595554D01*
X56243783Y-39698915D01*
X56284113Y-39796279D01*
X56342662Y-39883904D01*
X56417181Y-39958423D01*
X56504806Y-40016972D01*
X56602170Y-40057302D01*
X56705531Y-40077861D01*
X56810917Y-40077861D01*
X56914278Y-40057302D01*
X57011642Y-40016972D01*
X57099267Y-39958423D01*
X57173786Y-39883904D01*
X57232335Y-39796279D01*
X57272665Y-39698915D01*
X57293224Y-39595554D01*
X57293224Y-39490168D01*
X57272665Y-39386807D01*
X57232335Y-39289443D01*
X57221672Y-39273485D01*
X57982423Y-38512734D01*
X58064943Y-38512734D01*
X58168304Y-38492175D01*
X58265668Y-38451845D01*
X58353293Y-38393296D01*
X58427812Y-38318777D01*
X58486361Y-38231152D01*
X58526691Y-38133788D01*
X58547250Y-38030427D01*
X58547250Y-37925041D01*
X58526691Y-37821680D01*
X58486361Y-37724316D01*
X58427812Y-37636691D01*
X58353293Y-37562172D01*
X58265668Y-37503623D01*
X58168304Y-37463293D01*
X58064943Y-37442734D01*
X57959557Y-37442734D01*
X57856196Y-37463293D01*
X57758832Y-37503623D01*
X57671207Y-37562172D01*
X57596688Y-37636691D01*
X57538139Y-37724316D01*
X57497809Y-37821680D01*
X57477250Y-37925041D01*
X57477250Y-38007593D01*
X56518045Y-38966798D01*
X56504425Y-38977976D01*
X56493247Y-38991596D01*
X56493240Y-38991603D01*
X56485249Y-39001341D01*
X56459787Y-39032366D01*
X56426618Y-39094420D01*
X56416411Y-39128069D01*
X56342662Y-39201818D01*
X56284113Y-39289443D01*
X56243783Y-39386807D01*
X56223224Y-39490168D01*
X45744970Y-39490168D01*
X44286500Y-38031699D01*
X44286500Y-33237500D01*
X47685660Y-33237500D01*
X47708821Y-33239781D01*
X47801251Y-33230678D01*
X47853740Y-33214755D01*
X47890129Y-33203717D01*
X47972040Y-33159935D01*
X48043835Y-33101014D01*
X48058604Y-33083018D01*
X48905050Y-32236572D01*
X48905050Y-36514614D01*
%TA.AperFunction,Conductor*%
D17*
G36*
X48905050Y-36514614D02*
G01*
X48903323Y-36532150D01*
X48905050Y-36549686D01*
X48905050Y-36549693D01*
X48908934Y-36589128D01*
X48910219Y-36602173D01*
X48929688Y-36666354D01*
X48930644Y-36669505D01*
X48963812Y-36731559D01*
X48978338Y-36749258D01*
X48997266Y-36772323D01*
X48997272Y-36772329D01*
X49008450Y-36785949D01*
X49022071Y-36797128D01*
X49459743Y-37234800D01*
X49039535Y-37234800D01*
X49021999Y-37233073D01*
X49004463Y-37234800D01*
X49004456Y-37234800D01*
X48958716Y-37239305D01*
X48951976Y-37239969D01*
X48936305Y-37244723D01*
X48884644Y-37260394D01*
X48822590Y-37293562D01*
X48768200Y-37338200D01*
X48757018Y-37351825D01*
X48670843Y-37438000D01*
X48588307Y-37438000D01*
X48484946Y-37458559D01*
X48387582Y-37498889D01*
X48299957Y-37557438D01*
X48225438Y-37631957D01*
X48166889Y-37719582D01*
X48126559Y-37816946D01*
X48106000Y-37920307D01*
X48106000Y-38025693D01*
X48126559Y-38129054D01*
X48166889Y-38226418D01*
X48225438Y-38314043D01*
X48299957Y-38388562D01*
X48387582Y-38447111D01*
X48484946Y-38487441D01*
X48588307Y-38508000D01*
X48693693Y-38508000D01*
X48797054Y-38487441D01*
X48894418Y-38447111D01*
X48982043Y-38388562D01*
X49056562Y-38314043D01*
X49115111Y-38226418D01*
X49155441Y-38129054D01*
X49176000Y-38025693D01*
X49176000Y-37949200D01*
X56242595Y-37949200D01*
X56300957Y-38007562D01*
X56388582Y-38066111D01*
X56485946Y-38106441D01*
X56589307Y-38127000D01*
X56694693Y-38127000D01*
X56798054Y-38106441D01*
X56895418Y-38066111D01*
X56983043Y-38007562D01*
X57057562Y-37933043D01*
X57116111Y-37845418D01*
X57156441Y-37748054D01*
X57177000Y-37644693D01*
X57177000Y-37539307D01*
X57156441Y-37435946D01*
X57116111Y-37338582D01*
X57057562Y-37250957D01*
X56983043Y-37176438D01*
X56895418Y-37117889D01*
X56798054Y-37077559D01*
X56694693Y-37057000D01*
X56589307Y-37057000D01*
X56485946Y-37077559D01*
X56388582Y-37117889D01*
X56300957Y-37176438D01*
X56242595Y-37234800D01*
X55760357Y-37234800D01*
X56410045Y-36585112D01*
X56427209Y-36671404D01*
X56467539Y-36768768D01*
X56526088Y-36856393D01*
X56600607Y-36930912D01*
X56688232Y-36989461D01*
X56785596Y-37029791D01*
X56888957Y-37050350D01*
X56994343Y-37050350D01*
X57097704Y-37029791D01*
X57195068Y-36989461D01*
X57282693Y-36930912D01*
X57357212Y-36856393D01*
X57363388Y-36847150D01*
X61079483Y-36847150D01*
X60472718Y-37453915D01*
X60427812Y-37386707D01*
X60353293Y-37312188D01*
X60265668Y-37253639D01*
X60168304Y-37213309D01*
X60064943Y-37192750D01*
X59959557Y-37192750D01*
X59856196Y-37213309D01*
X59758832Y-37253639D01*
X59671207Y-37312188D01*
X59596688Y-37386707D01*
X59538139Y-37474332D01*
X59497809Y-37571696D01*
X59477250Y-37675057D01*
X59477250Y-37685751D01*
X57538675Y-39624327D01*
X57523105Y-39637105D01*
X57472119Y-39699232D01*
X57434233Y-39770111D01*
X57422329Y-39809356D01*
X57412914Y-39840394D01*
X57410904Y-39847019D01*
X57405000Y-39906960D01*
X57405000Y-39906966D01*
X57403027Y-39927000D01*
X57405000Y-39947034D01*
X57405000Y-40267506D01*
X46522308Y-40267506D01*
X45744970Y-39490168D01*
X56223224Y-39490168D01*
X56223224Y-39595554D01*
X56243783Y-39698915D01*
X56284113Y-39796279D01*
X56342662Y-39883904D01*
X56417181Y-39958423D01*
X56504806Y-40016972D01*
X56602170Y-40057302D01*
X56705531Y-40077861D01*
X56810917Y-40077861D01*
X56914278Y-40057302D01*
X57011642Y-40016972D01*
X57099267Y-39958423D01*
X57173786Y-39883904D01*
X57232335Y-39796279D01*
X57272665Y-39698915D01*
X57293224Y-39595554D01*
X57293224Y-39490168D01*
X57272665Y-39386807D01*
X57232335Y-39289443D01*
X57221672Y-39273485D01*
X57982423Y-38512734D01*
X58064943Y-38512734D01*
X58168304Y-38492175D01*
X58265668Y-38451845D01*
X58353293Y-38393296D01*
X58427812Y-38318777D01*
X58486361Y-38231152D01*
X58526691Y-38133788D01*
X58547250Y-38030427D01*
X58547250Y-37925041D01*
X58526691Y-37821680D01*
X58486361Y-37724316D01*
X58427812Y-37636691D01*
X58353293Y-37562172D01*
X58265668Y-37503623D01*
X58168304Y-37463293D01*
X58064943Y-37442734D01*
X57959557Y-37442734D01*
X57856196Y-37463293D01*
X57758832Y-37503623D01*
X57671207Y-37562172D01*
X57596688Y-37636691D01*
X57538139Y-37724316D01*
X57497809Y-37821680D01*
X57477250Y-37925041D01*
X57477250Y-38007593D01*
X56518045Y-38966798D01*
X56504425Y-38977976D01*
X56493247Y-38991596D01*
X56493240Y-38991603D01*
X56485249Y-39001341D01*
X56459787Y-39032366D01*
X56426618Y-39094420D01*
X56416411Y-39128069D01*
X56342662Y-39201818D01*
X56284113Y-39289443D01*
X56243783Y-39386807D01*
X56223224Y-39490168D01*
X45744970Y-39490168D01*
X44286500Y-38031699D01*
X44286500Y-33237500D01*
X47685660Y-33237500D01*
X47708821Y-33239781D01*
X47801251Y-33230678D01*
X47853740Y-33214755D01*
X47890129Y-33203717D01*
X47972040Y-33159935D01*
X48043835Y-33101014D01*
X48058604Y-33083018D01*
X48905050Y-32236572D01*
X48905050Y-36514614D01*
G37*
%TD.AperFunction*%
D15*
X49630000Y-27268218D02*
X49665201Y-27445187D01*
X49734251Y-27611889D01*
X49834496Y-27761916D01*
X49962084Y-27889504D01*
X50112111Y-27989749D01*
X50188801Y-28021515D01*
X50188800Y-36045764D01*
X50187073Y-36063300D01*
X50188800Y-36080836D01*
X50188800Y-36080843D01*
X50191338Y-36106611D01*
X50193969Y-36133323D01*
X50211621Y-36191513D01*
X50214394Y-36200655D01*
X50247562Y-36262709D01*
X50257795Y-36275177D01*
X50281016Y-36303473D01*
X50281022Y-36303479D01*
X50292200Y-36317099D01*
X50305821Y-36328278D01*
X50780544Y-36803001D01*
X50038258Y-36803001D01*
X49619450Y-36384193D01*
X49619450Y-27122438D01*
X49630000Y-27111888D01*
X49630000Y-27268218D01*
%TA.AperFunction,Conductor*%
D17*
G36*
X49630000Y-27268218D02*
G01*
X49665201Y-27445187D01*
X49734251Y-27611889D01*
X49834496Y-27761916D01*
X49962084Y-27889504D01*
X50112111Y-27989749D01*
X50188801Y-28021515D01*
X50188800Y-36045764D01*
X50187073Y-36063300D01*
X50188800Y-36080836D01*
X50188800Y-36080843D01*
X50191338Y-36106611D01*
X50193969Y-36133323D01*
X50211621Y-36191513D01*
X50214394Y-36200655D01*
X50247562Y-36262709D01*
X50257795Y-36275177D01*
X50281016Y-36303473D01*
X50281022Y-36303479D01*
X50292200Y-36317099D01*
X50305821Y-36328278D01*
X50780544Y-36803001D01*
X50038258Y-36803001D01*
X49619450Y-36384193D01*
X49619450Y-27122438D01*
X49630000Y-27111888D01*
X49630000Y-27268218D01*
G37*
%TD.AperFunction*%
D15*
X59170409Y-30669695D02*
X59149850Y-30773056D01*
X59149850Y-30878442D01*
X59170409Y-30981803D01*
X59210739Y-31079167D01*
X59269288Y-31166792D01*
X59327651Y-31225155D01*
X59327650Y-32916414D01*
X59325923Y-32933950D01*
X59327650Y-32951486D01*
X59327650Y-32951493D01*
X59332155Y-32997233D01*
X59332819Y-33003973D01*
X59343506Y-33039204D01*
X59353244Y-33071305D01*
X59386412Y-33133359D01*
X59394583Y-33143315D01*
X59419866Y-33174123D01*
X59419872Y-33174129D01*
X59431050Y-33187749D01*
X59444671Y-33198928D01*
X59861050Y-33615307D01*
X59861050Y-33697843D01*
X59881609Y-33801204D01*
X59921939Y-33898568D01*
X59980488Y-33986193D01*
X60055007Y-34060712D01*
X60142632Y-34119261D01*
X60239996Y-34159591D01*
X60303601Y-34172242D01*
X59994093Y-34481750D01*
X59911557Y-34481750D01*
X59808196Y-34502309D01*
X59710832Y-34542639D01*
X59623207Y-34601188D01*
X59548688Y-34675707D01*
X59490139Y-34763332D01*
X59449809Y-34860696D01*
X59429250Y-34964057D01*
X59429250Y-35069443D01*
X59438660Y-35116751D01*
X56444015Y-35116751D01*
X56459311Y-35079823D01*
X56479870Y-34976462D01*
X56479870Y-34871076D01*
X56459311Y-34767715D01*
X56418981Y-34670351D01*
X56360432Y-34582726D01*
X56302070Y-34524364D01*
X56302070Y-32665905D01*
X56303797Y-32648369D01*
X56302070Y-32630833D01*
X56302070Y-32630826D01*
X56297399Y-32583401D01*
X56296901Y-32578346D01*
X56276476Y-32511014D01*
X56259444Y-32479149D01*
X56243308Y-32448960D01*
X56215507Y-32415086D01*
X56209853Y-32408196D01*
X56209848Y-32408191D01*
X56198669Y-32394570D01*
X56185049Y-32383392D01*
X55704482Y-31902825D01*
X55693300Y-31889200D01*
X55638910Y-31844562D01*
X55576856Y-31811394D01*
X55509523Y-31790969D01*
X55457044Y-31785800D01*
X55457036Y-31785800D01*
X55439500Y-31784073D01*
X55421964Y-31785800D01*
X55283655Y-31785800D01*
X55225293Y-31727438D01*
X55137668Y-31668889D01*
X55040304Y-31628559D01*
X54936943Y-31608000D01*
X54831557Y-31608000D01*
X54728196Y-31628559D01*
X54630832Y-31668889D01*
X54543207Y-31727438D01*
X54468688Y-31801957D01*
X54410139Y-31889582D01*
X54369809Y-31986946D01*
X54349250Y-32090307D01*
X54349250Y-32195693D01*
X54369809Y-32299054D01*
X54410139Y-32396418D01*
X54468688Y-32484043D01*
X54543207Y-32558562D01*
X54630832Y-32617111D01*
X54728196Y-32657441D01*
X54831557Y-32678000D01*
X54936943Y-32678000D01*
X55040304Y-32657441D01*
X55137668Y-32617111D01*
X55225293Y-32558562D01*
X55283655Y-32500200D01*
X55291543Y-32500200D01*
X55587670Y-32796327D01*
X55587671Y-34524363D01*
X55529308Y-34582726D01*
X55470759Y-34670351D01*
X55430429Y-34767715D01*
X55409870Y-34871076D01*
X55409870Y-34976462D01*
X55423711Y-35046050D01*
X55078024Y-34700363D01*
X55066842Y-34686738D01*
X55012452Y-34642100D01*
X54950398Y-34608932D01*
X54883065Y-34588507D01*
X54830586Y-34583338D01*
X54830578Y-34583338D01*
X54813042Y-34581611D01*
X54795506Y-34583338D01*
X54320995Y-34583338D01*
X53717450Y-33979793D01*
X53717450Y-31989707D01*
X54219408Y-31487749D01*
X55425515Y-31487749D01*
X55443051Y-31489476D01*
X55460587Y-31487749D01*
X55460595Y-31487749D01*
X55513074Y-31482580D01*
X55580407Y-31462155D01*
X55642461Y-31428987D01*
X55663707Y-31411550D01*
X55749743Y-31411550D01*
X55853104Y-31390991D01*
X55950468Y-31350661D01*
X56038093Y-31292112D01*
X56112612Y-31217593D01*
X56171161Y-31129968D01*
X56211491Y-31032604D01*
X56232050Y-30929243D01*
X56232050Y-30823857D01*
X56211491Y-30720496D01*
X56178956Y-30641950D01*
X59181902Y-30641950D01*
X59170409Y-30669695D01*
%TA.AperFunction,Conductor*%
D17*
G36*
X59170409Y-30669695D02*
G01*
X59149850Y-30773056D01*
X59149850Y-30878442D01*
X59170409Y-30981803D01*
X59210739Y-31079167D01*
X59269288Y-31166792D01*
X59327651Y-31225155D01*
X59327650Y-32916414D01*
X59325923Y-32933950D01*
X59327650Y-32951486D01*
X59327650Y-32951493D01*
X59332155Y-32997233D01*
X59332819Y-33003973D01*
X59343506Y-33039204D01*
X59353244Y-33071305D01*
X59386412Y-33133359D01*
X59394583Y-33143315D01*
X59419866Y-33174123D01*
X59419872Y-33174129D01*
X59431050Y-33187749D01*
X59444671Y-33198928D01*
X59861050Y-33615307D01*
X59861050Y-33697843D01*
X59881609Y-33801204D01*
X59921939Y-33898568D01*
X59980488Y-33986193D01*
X60055007Y-34060712D01*
X60142632Y-34119261D01*
X60239996Y-34159591D01*
X60303601Y-34172242D01*
X59994093Y-34481750D01*
X59911557Y-34481750D01*
X59808196Y-34502309D01*
X59710832Y-34542639D01*
X59623207Y-34601188D01*
X59548688Y-34675707D01*
X59490139Y-34763332D01*
X59449809Y-34860696D01*
X59429250Y-34964057D01*
X59429250Y-35069443D01*
X59438660Y-35116751D01*
X56444015Y-35116751D01*
X56459311Y-35079823D01*
X56479870Y-34976462D01*
X56479870Y-34871076D01*
X56459311Y-34767715D01*
X56418981Y-34670351D01*
X56360432Y-34582726D01*
X56302070Y-34524364D01*
X56302070Y-32665905D01*
X56303797Y-32648369D01*
X56302070Y-32630833D01*
X56302070Y-32630826D01*
X56297399Y-32583401D01*
X56296901Y-32578346D01*
X56276476Y-32511014D01*
X56259444Y-32479149D01*
X56243308Y-32448960D01*
X56215507Y-32415086D01*
X56209853Y-32408196D01*
X56209848Y-32408191D01*
X56198669Y-32394570D01*
X56185049Y-32383392D01*
X55704482Y-31902825D01*
X55693300Y-31889200D01*
X55638910Y-31844562D01*
X55576856Y-31811394D01*
X55509523Y-31790969D01*
X55457044Y-31785800D01*
X55457036Y-31785800D01*
X55439500Y-31784073D01*
X55421964Y-31785800D01*
X55283655Y-31785800D01*
X55225293Y-31727438D01*
X55137668Y-31668889D01*
X55040304Y-31628559D01*
X54936943Y-31608000D01*
X54831557Y-31608000D01*
X54728196Y-31628559D01*
X54630832Y-31668889D01*
X54543207Y-31727438D01*
X54468688Y-31801957D01*
X54410139Y-31889582D01*
X54369809Y-31986946D01*
X54349250Y-32090307D01*
X54349250Y-32195693D01*
X54369809Y-32299054D01*
X54410139Y-32396418D01*
X54468688Y-32484043D01*
X54543207Y-32558562D01*
X54630832Y-32617111D01*
X54728196Y-32657441D01*
X54831557Y-32678000D01*
X54936943Y-32678000D01*
X55040304Y-32657441D01*
X55137668Y-32617111D01*
X55225293Y-32558562D01*
X55283655Y-32500200D01*
X55291543Y-32500200D01*
X55587670Y-32796327D01*
X55587671Y-34524363D01*
X55529308Y-34582726D01*
X55470759Y-34670351D01*
X55430429Y-34767715D01*
X55409870Y-34871076D01*
X55409870Y-34976462D01*
X55423711Y-35046050D01*
X55078024Y-34700363D01*
X55066842Y-34686738D01*
X55012452Y-34642100D01*
X54950398Y-34608932D01*
X54883065Y-34588507D01*
X54830586Y-34583338D01*
X54830578Y-34583338D01*
X54813042Y-34581611D01*
X54795506Y-34583338D01*
X54320995Y-34583338D01*
X53717450Y-33979793D01*
X53717450Y-31989707D01*
X54219408Y-31487749D01*
X55425515Y-31487749D01*
X55443051Y-31489476D01*
X55460587Y-31487749D01*
X55460595Y-31487749D01*
X55513074Y-31482580D01*
X55580407Y-31462155D01*
X55642461Y-31428987D01*
X55663707Y-31411550D01*
X55749743Y-31411550D01*
X55853104Y-31390991D01*
X55950468Y-31350661D01*
X56038093Y-31292112D01*
X56112612Y-31217593D01*
X56171161Y-31129968D01*
X56211491Y-31032604D01*
X56232050Y-30929243D01*
X56232050Y-30823857D01*
X56211491Y-30720496D01*
X56178956Y-30641950D01*
X59181902Y-30641950D01*
X59170409Y-30669695D01*
G37*
%TD.AperFunction*%
D15*
X71672051Y-32328670D02*
X71672051Y-34665195D01*
X71669468Y-34662048D01*
X71659233Y-34649576D01*
X71659228Y-34649571D01*
X71648049Y-34635950D01*
X71634429Y-34624772D01*
X69982821Y-32973164D01*
X69971639Y-32959539D01*
X69956126Y-32946807D01*
X69942766Y-32935843D01*
X69917249Y-32914901D01*
X69855195Y-32881733D01*
X69787862Y-32861308D01*
X69735383Y-32856139D01*
X69735375Y-32856139D01*
X69717839Y-32854412D01*
X69700303Y-32856139D01*
X65190004Y-32856139D01*
X65199416Y-32808822D01*
X65199416Y-32703436D01*
X65178857Y-32600075D01*
X65138527Y-32502711D01*
X65079978Y-32415086D01*
X65021616Y-32356724D01*
X65021616Y-29792307D01*
X65505000Y-29792307D01*
X65505000Y-29897693D01*
X65525559Y-30001054D01*
X65565889Y-30098418D01*
X65624438Y-30186043D01*
X65698957Y-30260562D01*
X65786582Y-30319111D01*
X65883946Y-30359441D01*
X65987307Y-30380000D01*
X66092693Y-30380000D01*
X66196054Y-30359441D01*
X66293418Y-30319111D01*
X66381043Y-30260562D01*
X66439405Y-30202200D01*
X67447307Y-30202200D01*
X67450809Y-30219804D01*
X67491139Y-30317168D01*
X67549688Y-30404793D01*
X67624207Y-30479312D01*
X67711832Y-30537861D01*
X67809196Y-30578191D01*
X67912557Y-30598750D01*
X68017943Y-30598750D01*
X68121304Y-30578191D01*
X68218668Y-30537861D01*
X68306293Y-30479312D01*
X68380812Y-30404793D01*
X68439361Y-30317168D01*
X68479691Y-30219804D01*
X68500250Y-30116443D01*
X68500250Y-30011057D01*
X68479691Y-29907696D01*
X68439361Y-29810332D01*
X68380812Y-29722707D01*
X68306293Y-29648188D01*
X68218668Y-29589639D01*
X68121304Y-29549309D01*
X68017943Y-29528750D01*
X67912586Y-29528750D01*
X67883856Y-29513394D01*
X67816523Y-29492969D01*
X67764044Y-29487800D01*
X67764036Y-29487800D01*
X67746500Y-29486073D01*
X67728964Y-29487800D01*
X66439405Y-29487800D01*
X66381043Y-29429438D01*
X66293418Y-29370889D01*
X66196054Y-29330559D01*
X66092693Y-29310000D01*
X65987307Y-29310000D01*
X65883946Y-29330559D01*
X65786582Y-29370889D01*
X65698957Y-29429438D01*
X65624438Y-29503957D01*
X65565889Y-29591582D01*
X65525559Y-29688946D01*
X65505000Y-29792307D01*
X65021616Y-29792307D01*
X65021616Y-27682776D01*
X65074496Y-27761916D01*
X65202084Y-27889504D01*
X65352111Y-27989749D01*
X65518813Y-28058799D01*
X65695782Y-28094000D01*
X65876218Y-28094000D01*
X66053187Y-28058799D01*
X66219889Y-27989749D01*
X66369916Y-27889504D01*
X66497504Y-27761916D01*
X66597749Y-27611889D01*
X66666799Y-27445187D01*
X66687002Y-27343621D01*
X71672051Y-32328670D01*
%TA.AperFunction,Conductor*%
D17*
G36*
X71672051Y-32328670D02*
G01*
X71672051Y-34665195D01*
X71669468Y-34662048D01*
X71659233Y-34649576D01*
X71659228Y-34649571D01*
X71648049Y-34635950D01*
X71634429Y-34624772D01*
X69982821Y-32973164D01*
X69971639Y-32959539D01*
X69956126Y-32946807D01*
X69942766Y-32935843D01*
X69917249Y-32914901D01*
X69855195Y-32881733D01*
X69787862Y-32861308D01*
X69735383Y-32856139D01*
X69735375Y-32856139D01*
X69717839Y-32854412D01*
X69700303Y-32856139D01*
X65190004Y-32856139D01*
X65199416Y-32808822D01*
X65199416Y-32703436D01*
X65178857Y-32600075D01*
X65138527Y-32502711D01*
X65079978Y-32415086D01*
X65021616Y-32356724D01*
X65021616Y-29792307D01*
X65505000Y-29792307D01*
X65505000Y-29897693D01*
X65525559Y-30001054D01*
X65565889Y-30098418D01*
X65624438Y-30186043D01*
X65698957Y-30260562D01*
X65786582Y-30319111D01*
X65883946Y-30359441D01*
X65987307Y-30380000D01*
X66092693Y-30380000D01*
X66196054Y-30359441D01*
X66293418Y-30319111D01*
X66381043Y-30260562D01*
X66439405Y-30202200D01*
X67447307Y-30202200D01*
X67450809Y-30219804D01*
X67491139Y-30317168D01*
X67549688Y-30404793D01*
X67624207Y-30479312D01*
X67711832Y-30537861D01*
X67809196Y-30578191D01*
X67912557Y-30598750D01*
X68017943Y-30598750D01*
X68121304Y-30578191D01*
X68218668Y-30537861D01*
X68306293Y-30479312D01*
X68380812Y-30404793D01*
X68439361Y-30317168D01*
X68479691Y-30219804D01*
X68500250Y-30116443D01*
X68500250Y-30011057D01*
X68479691Y-29907696D01*
X68439361Y-29810332D01*
X68380812Y-29722707D01*
X68306293Y-29648188D01*
X68218668Y-29589639D01*
X68121304Y-29549309D01*
X68017943Y-29528750D01*
X67912586Y-29528750D01*
X67883856Y-29513394D01*
X67816523Y-29492969D01*
X67764044Y-29487800D01*
X67764036Y-29487800D01*
X67746500Y-29486073D01*
X67728964Y-29487800D01*
X66439405Y-29487800D01*
X66381043Y-29429438D01*
X66293418Y-29370889D01*
X66196054Y-29330559D01*
X66092693Y-29310000D01*
X65987307Y-29310000D01*
X65883946Y-29330559D01*
X65786582Y-29370889D01*
X65698957Y-29429438D01*
X65624438Y-29503957D01*
X65565889Y-29591582D01*
X65525559Y-29688946D01*
X65505000Y-29792307D01*
X65021616Y-29792307D01*
X65021616Y-27682776D01*
X65074496Y-27761916D01*
X65202084Y-27889504D01*
X65352111Y-27989749D01*
X65518813Y-28058799D01*
X65695782Y-28094000D01*
X65876218Y-28094000D01*
X66053187Y-28058799D01*
X66219889Y-27989749D01*
X66369916Y-27889504D01*
X66497504Y-27761916D01*
X66597749Y-27611889D01*
X66666799Y-27445187D01*
X66687002Y-27343621D01*
X71672051Y-32328670D01*
G37*
%TD.AperFunction*%
D15*
X60122084Y-26466496D02*
X59994496Y-26594084D01*
X59894251Y-26744111D01*
X59825201Y-26910813D01*
X59790000Y-27087782D01*
X59790000Y-27268218D01*
X59825201Y-27445187D01*
X59894251Y-27611889D01*
X59994496Y-27761916D01*
X60122084Y-27889504D01*
X60272111Y-27989749D01*
X60438813Y-28058799D01*
X60615782Y-28094000D01*
X60796218Y-28094000D01*
X60973187Y-28058799D01*
X61139889Y-27989749D01*
X61289916Y-27889504D01*
X61417504Y-27761916D01*
X61517749Y-27611889D01*
X61586799Y-27445187D01*
X61622000Y-27268218D01*
X61622000Y-27087782D01*
X61586799Y-26910813D01*
X61555033Y-26834124D01*
X61692158Y-26696999D01*
X62465730Y-26696999D01*
X62434251Y-26744111D01*
X62365201Y-26910813D01*
X62330000Y-27087782D01*
X62330000Y-27268218D01*
X62365201Y-27445187D01*
X62434251Y-27611889D01*
X62534496Y-27761916D01*
X62662084Y-27889504D01*
X62812111Y-27989749D01*
X62978813Y-28058799D01*
X63155782Y-28094000D01*
X63336218Y-28094000D01*
X63513187Y-28058799D01*
X63589876Y-28027033D01*
X63752653Y-28189810D01*
X63752654Y-32047368D01*
X63744499Y-32055523D01*
X63740361Y-32045532D01*
X63681812Y-31957907D01*
X63623450Y-31899545D01*
X63623450Y-30335285D01*
X63625177Y-30317749D01*
X63623450Y-30300213D01*
X63623450Y-30300206D01*
X63618281Y-30247727D01*
X63597856Y-30180394D01*
X63564688Y-30118340D01*
X63520050Y-30063950D01*
X63506425Y-30052768D01*
X63023232Y-29569575D01*
X63012050Y-29555950D01*
X62957660Y-29511312D01*
X62895606Y-29478144D01*
X62828273Y-29457719D01*
X62775794Y-29452550D01*
X62775786Y-29452550D01*
X62758250Y-29450823D01*
X62740714Y-29452550D01*
X61887655Y-29452550D01*
X61829293Y-29394188D01*
X61741668Y-29335639D01*
X61644304Y-29295309D01*
X61540943Y-29274750D01*
X61435557Y-29274750D01*
X61332196Y-29295309D01*
X61234832Y-29335639D01*
X61147207Y-29394188D01*
X61088845Y-29452550D01*
X59347655Y-29452550D01*
X59289293Y-29394188D01*
X59201668Y-29335639D01*
X59104304Y-29295309D01*
X59000943Y-29274750D01*
X58895557Y-29274750D01*
X58792196Y-29295309D01*
X58694832Y-29335639D01*
X58607207Y-29394188D01*
X58532688Y-29468707D01*
X58474139Y-29556332D01*
X58433809Y-29653696D01*
X58413250Y-29757057D01*
X58413250Y-29862443D01*
X58426200Y-29927550D01*
X54031639Y-29927550D01*
X54014103Y-29925823D01*
X53996567Y-29927550D01*
X53996560Y-29927550D01*
X53952609Y-29931879D01*
X53944080Y-29932719D01*
X53896656Y-29947105D01*
X53876748Y-29953144D01*
X53814694Y-29986312D01*
X53784543Y-30011057D01*
X53774485Y-30019312D01*
X53760304Y-30030950D01*
X53749122Y-30044575D01*
X52836041Y-30957656D01*
X52836041Y-30570971D01*
X55033611Y-28373401D01*
X57310263Y-28373401D01*
X57327799Y-28375128D01*
X57345335Y-28373401D01*
X57345343Y-28373401D01*
X57397822Y-28368232D01*
X57465155Y-28347807D01*
X57527209Y-28314639D01*
X57581599Y-28270001D01*
X57592783Y-28256374D01*
X57822124Y-28027033D01*
X57898813Y-28058799D01*
X58075782Y-28094000D01*
X58256218Y-28094000D01*
X58433187Y-28058799D01*
X58599889Y-27989749D01*
X58749916Y-27889504D01*
X58877504Y-27761916D01*
X58977749Y-27611889D01*
X59046799Y-27445187D01*
X59082000Y-27268218D01*
X59082000Y-27087782D01*
X59046799Y-26910813D01*
X58977749Y-26744111D01*
X58877504Y-26594084D01*
X58749916Y-26466496D01*
X58676722Y-26417589D01*
X60195278Y-26417589D01*
X60122084Y-26466496D01*
%TA.AperFunction,Conductor*%
D17*
G36*
X60122084Y-26466496D02*
G01*
X59994496Y-26594084D01*
X59894251Y-26744111D01*
X59825201Y-26910813D01*
X59790000Y-27087782D01*
X59790000Y-27268218D01*
X59825201Y-27445187D01*
X59894251Y-27611889D01*
X59994496Y-27761916D01*
X60122084Y-27889504D01*
X60272111Y-27989749D01*
X60438813Y-28058799D01*
X60615782Y-28094000D01*
X60796218Y-28094000D01*
X60973187Y-28058799D01*
X61139889Y-27989749D01*
X61289916Y-27889504D01*
X61417504Y-27761916D01*
X61517749Y-27611889D01*
X61586799Y-27445187D01*
X61622000Y-27268218D01*
X61622000Y-27087782D01*
X61586799Y-26910813D01*
X61555033Y-26834124D01*
X61692158Y-26696999D01*
X62465730Y-26696999D01*
X62434251Y-26744111D01*
X62365201Y-26910813D01*
X62330000Y-27087782D01*
X62330000Y-27268218D01*
X62365201Y-27445187D01*
X62434251Y-27611889D01*
X62534496Y-27761916D01*
X62662084Y-27889504D01*
X62812111Y-27989749D01*
X62978813Y-28058799D01*
X63155782Y-28094000D01*
X63336218Y-28094000D01*
X63513187Y-28058799D01*
X63589876Y-28027033D01*
X63752653Y-28189810D01*
X63752654Y-32047368D01*
X63744499Y-32055523D01*
X63740361Y-32045532D01*
X63681812Y-31957907D01*
X63623450Y-31899545D01*
X63623450Y-30335285D01*
X63625177Y-30317749D01*
X63623450Y-30300213D01*
X63623450Y-30300206D01*
X63618281Y-30247727D01*
X63597856Y-30180394D01*
X63564688Y-30118340D01*
X63520050Y-30063950D01*
X63506425Y-30052768D01*
X63023232Y-29569575D01*
X63012050Y-29555950D01*
X62957660Y-29511312D01*
X62895606Y-29478144D01*
X62828273Y-29457719D01*
X62775794Y-29452550D01*
X62775786Y-29452550D01*
X62758250Y-29450823D01*
X62740714Y-29452550D01*
X61887655Y-29452550D01*
X61829293Y-29394188D01*
X61741668Y-29335639D01*
X61644304Y-29295309D01*
X61540943Y-29274750D01*
X61435557Y-29274750D01*
X61332196Y-29295309D01*
X61234832Y-29335639D01*
X61147207Y-29394188D01*
X61088845Y-29452550D01*
X59347655Y-29452550D01*
X59289293Y-29394188D01*
X59201668Y-29335639D01*
X59104304Y-29295309D01*
X59000943Y-29274750D01*
X58895557Y-29274750D01*
X58792196Y-29295309D01*
X58694832Y-29335639D01*
X58607207Y-29394188D01*
X58532688Y-29468707D01*
X58474139Y-29556332D01*
X58433809Y-29653696D01*
X58413250Y-29757057D01*
X58413250Y-29862443D01*
X58426200Y-29927550D01*
X54031639Y-29927550D01*
X54014103Y-29925823D01*
X53996567Y-29927550D01*
X53996560Y-29927550D01*
X53952609Y-29931879D01*
X53944080Y-29932719D01*
X53896656Y-29947105D01*
X53876748Y-29953144D01*
X53814694Y-29986312D01*
X53784543Y-30011057D01*
X53774485Y-30019312D01*
X53760304Y-30030950D01*
X53749122Y-30044575D01*
X52836041Y-30957656D01*
X52836041Y-30570971D01*
X55033611Y-28373401D01*
X57310263Y-28373401D01*
X57327799Y-28375128D01*
X57345335Y-28373401D01*
X57345343Y-28373401D01*
X57397822Y-28368232D01*
X57465155Y-28347807D01*
X57527209Y-28314639D01*
X57581599Y-28270001D01*
X57592783Y-28256374D01*
X57822124Y-28027033D01*
X57898813Y-28058799D01*
X58075782Y-28094000D01*
X58256218Y-28094000D01*
X58433187Y-28058799D01*
X58599889Y-27989749D01*
X58749916Y-27889504D01*
X58877504Y-27761916D01*
X58977749Y-27611889D01*
X59046799Y-27445187D01*
X59082000Y-27268218D01*
X59082000Y-27087782D01*
X59046799Y-26910813D01*
X58977749Y-26744111D01*
X58877504Y-26594084D01*
X58749916Y-26466496D01*
X58676722Y-26417589D01*
X60195278Y-26417589D01*
X60122084Y-26466496D01*
G37*
%TD.AperFunction*%
%TD*%
M02*
