M48
; DRILL file {KiCad (5.1.10-1-10_14)} date Monday, October 25, 2021 at 08:38:05 PM
; FORMAT={-:-/ absolute / inch / decimal}
; #@! TF.CreationDate,2021-10-25T20:38:05+08:00
; #@! TF.GenerationSoftware,Kicad,Pcbnew,(5.1.10-1-10_14)
; #@! TF.FileFunction,Plated,1,2,PTH
FMAT,2
INCH
T1C0.0100
T2C0.0236
T3C0.0320
%
G90
G05
T1
X1.25Y-1.455
X1.2593Y-1.4258
X1.395Y-1.21
X1.42Y-1.33
X1.4211Y-1.2889
X1.4647Y-1.0353
X1.535Y-1.485
X1.535Y-1.53
X1.535Y-1.575
X1.545Y-1.395
X1.58Y-1.395
X1.58Y-1.485
X1.58Y-1.53
X1.58Y-1.575
X1.625Y-1.485
X1.625Y-1.53
X1.625Y-1.575
X1.6608Y-1.3436
X1.7229Y-1.5444
X1.7229Y-1.5838
X1.725Y-1.29
X1.765Y-1.445
X1.841Y-1.7413
X1.8838Y-1.4176
X1.885Y-1.25
X1.9008Y-1.5636
X1.915Y-1.495
X1.9658Y-1.1686
X2.0008Y-1.6336
X2.0708Y-1.4206
X2.0915Y-1.3628
X2.13Y-1.445
X2.1448Y-1.4046
X2.1608Y-1.2655
X2.1843Y-1.4146
X2.1928Y-1.2156
X2.2026Y-1.375
X2.23Y-1.48
X2.2346Y-1.5568
X2.2347Y-1.633
X2.2418Y-1.4376
X2.2446Y-1.2688
X2.2446Y-1.3279
X2.2761Y-1.6039
X2.2839Y-1.4952
X2.2938Y-1.2688
X2.2938Y-1.3279
X2.32Y-1.605
X2.3208Y-1.1736
X2.3498Y-1.2136
X2.3608Y-1.3786
X2.3627Y-1.4853
X2.3627Y-1.6527
X2.3778Y-1.3246
X2.3798Y-1.2466
X2.3908Y-1.3836
X2.3908Y-1.6086
X2.3918Y-1.2786
X2.3922Y-1.5149
X2.4108Y-1.1236
X2.4119Y-1.633
X2.4208Y-1.1736
X2.4298Y-1.2946
X2.4298Y-1.3886
X2.4308Y-1.3536
X2.4308Y-1.4566
X2.4308Y-1.4936
X2.4308Y-1.6736
X2.4316Y-1.5346
X2.4316Y-1.5739
X2.4508Y-1.4738
X2.4508Y-1.6086
X2.4513Y-1.5542
X2.4518Y-1.5164
X2.4547Y-1.2923
X2.4828Y-1.1486
X2.4908Y-1.2716
X2.5008Y-1.6736
X2.524Y-1.2774
X2.5458Y-1.2896
X2.5556Y-1.4263
X2.5556Y-1.4657
X2.5556Y-1.505
X2.5556Y-1.5444
X2.595Y-1.4263
X2.595Y-1.4657
X2.595Y-1.505
X2.595Y-1.5444
X2.6Y-1.175
X2.6Y-1.265
X2.6343Y-1.4263
X2.6343Y-1.4657
X2.6343Y-1.505
X2.6343Y-1.5444
X2.6408Y-1.7036
X2.6737Y-1.4263
X2.6737Y-1.4657
X2.6737Y-1.505
X2.6737Y-1.5444
X2.6758Y-1.1836
X2.6841Y-1.6708
X2.6973Y-1.692
X2.7758Y-1.6528
X2.7761Y-1.5149
X2.7808Y-1.2486
X2.7908Y-1.4336
X2.7958Y-1.5336
X2.7988Y-1.6166
X2.8108Y-1.4036
X2.825Y-1.21
X2.8748Y-1.1476
X2.8748Y-1.1736
X2.8748Y-1.1996
X2.8748Y-1.2256
X2.8748Y-1.2516
X2.8748Y-1.2776
X2.8758Y-1.3176
X2.8758Y-1.3424
X2.8758Y-1.3672
X2.8758Y-1.392
X2.8758Y-1.4168
X2.8758Y-1.4416
X2.8758Y-1.4664
X2.8758Y-1.4912
X2.8758Y-1.516
X2.8758Y-1.5408
X2.8758Y-1.5656
X2.8758Y-1.5904
X2.8758Y-1.6152
X2.8758Y-1.64
X2.8758Y-1.6648
X2.8758Y-1.6896
X2.8988Y-1.1476
X2.8997Y-1.6896
X2.9228Y-1.1476
X2.9236Y-1.6896
X2.9468Y-1.1476
X2.9475Y-1.6896
X2.9708Y-1.1476
X2.9714Y-1.6896
X2.9948Y-1.1476
X2.9952Y-1.6896
X3.0188Y-1.1476
X3.0191Y-1.6896
X3.0428Y-1.1476
X3.043Y-1.6896
X3.0668Y-1.1476
X3.0669Y-1.6896
T3
X1.19Y-1.77
X1.29Y-1.77
X1.39Y-1.77
X1.49Y-1.77
X1.59Y-1.77
X1.69Y-1.77
X1.79Y-1.07
X1.79Y-1.77
X1.89Y-1.07
X1.89Y-1.77
X1.99Y-1.07
X1.99Y-1.77
X2.09Y-1.07
X2.09Y-1.77
X2.19Y-1.07
X2.19Y-1.77
X2.29Y-1.07
X2.29Y-1.77
X2.39Y-1.07
X2.39Y-1.77
X2.49Y-1.07
X2.49Y-1.77
X2.59Y-1.07
X2.59Y-1.77
X2.69Y-1.07
X2.69Y-1.77
X2.79Y-1.07
X2.79Y-1.77
X2.89Y-1.07
X2.89Y-1.77
T2
G00X1.1105Y-1.2499
M15
G01X1.0869Y-1.2499
M16
G05
G00X1.1105Y-1.5901
M15
G01X1.0869Y-1.5901
M16
G05
G00X1.2849Y-1.2499
M15
G01X1.2416Y-1.2499
M16
G05
G00X1.2849Y-1.5901
M15
G01X1.2416Y-1.5901
M16
G05
T0
M30
