%TF.GenerationSoftware,KiCad,Pcbnew,(5.1.10-1-10_14)*%
%TF.CreationDate,2021-09-29T18:41:22+08:00*%
%TF.ProjectId,esp32-nano,65737033-322d-46e6-916e-6f2e6b696361,1.0*%
%TF.SameCoordinates,Original*%
%TF.FileFunction,Soldermask,Bot*%
%TF.FilePolarity,Negative*%
%FSLAX46Y46*%
G04 Gerber Fmt 4.6, Leading zero omitted, Abs format (unit mm)*
G04 Created by KiCad (PCBNEW (5.1.10-1-10_14)) date 2021-09-29 18:41:22*
%MOMM*%
%LPD*%
G01*
G04 APERTURE LIST*
%ADD10C,2.200000*%
%ADD11O,2.100000X1.000000*%
%ADD12C,0.650000*%
%ADD13O,1.600000X1.000000*%
%ADD14C,1.270000*%
G04 APERTURE END LIST*
D10*
%TO.C,REF\u002A\u002A*%
X76454000Y-44958000D03*
%TD*%
%TO.C,REF\u002A\u002A*%
X76454000Y-27178000D03*
%TD*%
%TO.C,REF\u002A\u002A*%
X27178000Y-44958000D03*
%TD*%
%TO.C,REF\u002A\u002A*%
X27178000Y-27178000D03*
%TD*%
D11*
%TO.C,USB1*%
X32086000Y-40388000D03*
X32086000Y-31748000D03*
D12*
X31556000Y-33178000D03*
D13*
X27906000Y-31748000D03*
D12*
X31556000Y-38958000D03*
D13*
X27906000Y-40388000D03*
%TD*%
D14*
%TO.C,P3*%
X30226000Y-44958000D03*
X32766000Y-44958000D03*
X35306000Y-44958000D03*
X37846000Y-44958000D03*
X40386000Y-44958000D03*
X42926000Y-44958000D03*
X45466000Y-44958000D03*
X48006000Y-44958000D03*
X50546000Y-44958000D03*
X53086000Y-44958000D03*
X55626000Y-44958000D03*
X58166000Y-44958000D03*
X60706000Y-44958000D03*
X63246000Y-44958000D03*
X65786000Y-44958000D03*
X68326000Y-44958000D03*
X70866000Y-44958000D03*
X73406000Y-44958000D03*
%TD*%
%TO.C,P2*%
X45466000Y-27178000D03*
X48006000Y-27178000D03*
X50546000Y-27178000D03*
X53086000Y-27178000D03*
X55626000Y-27178000D03*
X58166000Y-27178000D03*
X60706000Y-27178000D03*
X63246000Y-27178000D03*
X65786000Y-27178000D03*
X68326000Y-27178000D03*
X70866000Y-27178000D03*
X73406000Y-27178000D03*
%TD*%
M02*
