%TF.GenerationSoftware,KiCad,Pcbnew,(5.1.10-1-10_14)*%
%TF.CreationDate,2021-09-29T23:55:06+08:00*%
%TF.ProjectId,esp32-nano,65737033-322d-46e6-916e-6f2e6b696361,1.0*%
%TF.SameCoordinates,Original*%
%TF.FileFunction,Legend,Top*%
%TF.FilePolarity,Positive*%
%FSLAX46Y46*%
G04 Gerber Fmt 4.6, Leading zero omitted, Abs format (unit mm)*
G04 Created by KiCad (PCBNEW (5.1.10-1-10_14)) date 2021-09-29 23:55:06*
%MOMM*%
%LPD*%
G01*
G04 APERTURE LIST*
%ADD10C,0.120000*%
%ADD11C,0.150000*%
%ADD12C,0.100000*%
G04 APERTURE END LIST*
D10*
X47266000Y-42133000D02*
X47266000Y-30003000D01*
X70866000Y-42133000D02*
X47266000Y-42133000D01*
X70866000Y-30003000D02*
X47266000Y-30003000D01*
X70866000Y-30003000D02*
X70866000Y-42133000D01*
D11*
%TO.C,U4*%
X70037250Y-41352750D02*
X70037250Y-40827750D01*
X62787250Y-41352750D02*
X62787250Y-40827750D01*
X62787250Y-34102750D02*
X62787250Y-34627750D01*
X70037250Y-34102750D02*
X70037250Y-34627750D01*
X62787250Y-41352750D02*
X63312250Y-41352750D01*
X62787250Y-34102750D02*
X63312250Y-34102750D01*
X70037250Y-41352750D02*
X69512250Y-41352750D01*
D10*
%TO.C,U2*%
X39635000Y-31664000D02*
X37185000Y-31664000D01*
X37835000Y-34884000D02*
X39635000Y-34884000D01*
%TO.C,C14*%
X35793000Y-32365836D02*
X35793000Y-32150164D01*
X35073000Y-32365836D02*
X35073000Y-32150164D01*
%TO.C,C13*%
X45827836Y-31898000D02*
X45612164Y-31898000D01*
X45827836Y-32618000D02*
X45612164Y-32618000D01*
%TO.C,C12*%
X45827836Y-36978000D02*
X45612164Y-36978000D01*
X45827836Y-37698000D02*
X45612164Y-37698000D01*
%TO.C,C11*%
X45612164Y-33888000D02*
X45827836Y-33888000D01*
X45612164Y-33168000D02*
X45827836Y-33168000D01*
%TO.C,C10*%
X53508250Y-30971914D02*
X53508250Y-31187586D01*
X54228250Y-30971914D02*
X54228250Y-31187586D01*
%TO.C,C9*%
X62378000Y-30880164D02*
X62378000Y-31095836D01*
X63098000Y-30880164D02*
X63098000Y-31095836D01*
%TO.C,C8*%
X54228250Y-35251586D02*
X54228250Y-35035914D01*
X53508250Y-35251586D02*
X53508250Y-35035914D01*
%TO.C,C7*%
X65424164Y-31856000D02*
X65639836Y-31856000D01*
X65424164Y-31136000D02*
X65639836Y-31136000D01*
%TO.C,C6*%
X53508250Y-33003914D02*
X53508250Y-33219586D01*
X54228250Y-33003914D02*
X54228250Y-33219586D01*
%TO.C,C5*%
X58185164Y-41762000D02*
X58400836Y-41762000D01*
X58185164Y-41042000D02*
X58400836Y-41042000D01*
%TO.C,C4*%
X58185164Y-40492000D02*
X58400836Y-40492000D01*
X58185164Y-39772000D02*
X58400836Y-39772000D01*
%TO.C,C2*%
X42439000Y-32785164D02*
X42439000Y-33000836D01*
X43159000Y-32785164D02*
X43159000Y-33000836D01*
%TO.C,C1*%
X41042000Y-32785164D02*
X41042000Y-33000836D01*
X41762000Y-32785164D02*
X41762000Y-33000836D01*
%TO.C,VT2*%
X56698000Y-37086000D02*
X56698000Y-38546000D01*
X53538000Y-37086000D02*
X53538000Y-39246000D01*
X53538000Y-37086000D02*
X54468000Y-37086000D01*
X56698000Y-37086000D02*
X55768000Y-37086000D01*
%TO.C,VT1*%
X60508000Y-37086000D02*
X60508000Y-38546000D01*
X57348000Y-37086000D02*
X57348000Y-39246000D01*
X57348000Y-37086000D02*
X58278000Y-37086000D01*
X60508000Y-37086000D02*
X59578000Y-37086000D01*
%TO.C,USB1*%
X26956000Y-31368000D02*
X25056000Y-31368000D01*
X30856000Y-31368000D02*
X28856000Y-31368000D01*
X26956000Y-40768000D02*
X25056000Y-40768000D01*
X30856000Y-40768000D02*
X28856000Y-40768000D01*
X25056000Y-31368000D02*
X25056000Y-40768000D01*
D11*
%TO.C,U3*%
X59808000Y-35043000D02*
X59808000Y-34518000D01*
X55508000Y-35043000D02*
X55508000Y-34518000D01*
X55508000Y-30743000D02*
X55508000Y-31268000D01*
X59808000Y-30743000D02*
X59808000Y-31268000D01*
X55508000Y-35043000D02*
X56033000Y-35043000D01*
X55508000Y-30743000D02*
X56033000Y-30743000D01*
X59808000Y-35043000D02*
X59283000Y-35043000D01*
D10*
%TO.C,U1*%
X42742000Y-36977000D02*
X42742000Y-36252000D01*
X37522000Y-41472000D02*
X38247000Y-41472000D01*
X37522000Y-40747000D02*
X37522000Y-41472000D01*
X37522000Y-36252000D02*
X38247000Y-36252000D01*
X37522000Y-36977000D02*
X37522000Y-36252000D01*
X42742000Y-41472000D02*
X42017000Y-41472000D01*
X42742000Y-40747000D02*
X42742000Y-41472000D01*
%TO.C,R17*%
X45566359Y-35178000D02*
X45873641Y-35178000D01*
X45566359Y-34418000D02*
X45873641Y-34418000D01*
%TO.C,R16*%
X45873641Y-35688000D02*
X45566359Y-35688000D01*
X45873641Y-36448000D02*
X45566359Y-36448000D01*
%TO.C,R14*%
X64261000Y-31141641D02*
X64261000Y-30834359D01*
X63501000Y-31141641D02*
X63501000Y-30834359D01*
%TO.C,R13*%
X45566359Y-38988000D02*
X45873641Y-38988000D01*
X45566359Y-38228000D02*
X45873641Y-38228000D01*
%TO.C,R12*%
X42317641Y-29846000D02*
X42010359Y-29846000D01*
X42317641Y-30606000D02*
X42010359Y-30606000D01*
%TO.C,R9*%
X39726359Y-30606000D02*
X40033641Y-30606000D01*
X39726359Y-29846000D02*
X40033641Y-29846000D01*
%TO.C,R8*%
X35053000Y-34644359D02*
X35053000Y-34951641D01*
X35813000Y-34644359D02*
X35813000Y-34951641D01*
%TO.C,R7*%
X35053000Y-37184359D02*
X35053000Y-37491641D01*
X35813000Y-37184359D02*
X35813000Y-37491641D01*
%TO.C,R6*%
X65378359Y-30860000D02*
X65685641Y-30860000D01*
X65378359Y-30100000D02*
X65685641Y-30100000D01*
%TO.C,R5*%
X55599359Y-41782000D02*
X55906641Y-41782000D01*
X55599359Y-41022000D02*
X55906641Y-41022000D01*
%TO.C,R4*%
X55906641Y-39752000D02*
X55599359Y-39752000D01*
X55906641Y-40512000D02*
X55599359Y-40512000D01*
%TO.C,R3*%
X45873641Y-39498000D02*
X45566359Y-39498000D01*
X45873641Y-40258000D02*
X45566359Y-40258000D01*
%TO.C,R1*%
X35813000Y-40031641D02*
X35813000Y-39724359D01*
X35053000Y-40031641D02*
X35053000Y-39724359D01*
D12*
%TO.C,D2*%
X45336000Y-30226000D02*
G75*
G03*
X45336000Y-30226000I-50000J0D01*
G01*
%TO.C,D1*%
X36679000Y-30226000D02*
G75*
G03*
X36679000Y-30226000I-50000J0D01*
G01*
%TD*%
M02*
