%TF.GenerationSoftware,KiCad,Pcbnew,(5.1.10-1-10_14)*%
%TF.CreationDate,2021-09-29T23:55:06+08:00*%
%TF.ProjectId,esp32-nano,65737033-322d-46e6-916e-6f2e6b696361,1.0*%
%TF.SameCoordinates,Original*%
%TF.FileFunction,Legend,Bot*%
%TF.FilePolarity,Positive*%
%FSLAX46Y46*%
G04 Gerber Fmt 4.6, Leading zero omitted, Abs format (unit mm)*
G04 Created by KiCad (PCBNEW (5.1.10-1-10_14)) date 2021-09-29 23:55:06*
%MOMM*%
%LPD*%
G01*
G04 APERTURE LIST*
%ADD10C,0.120000*%
%ADD11C,0.010000*%
G04 APERTURE END LIST*
D10*
X29826000Y-42316476D02*
X29787904Y-42240285D01*
X29787904Y-42126000D01*
X29826000Y-42011714D01*
X29902190Y-41935523D01*
X29978380Y-41897428D01*
X30130761Y-41859333D01*
X30245047Y-41859333D01*
X30397428Y-41897428D01*
X30473619Y-41935523D01*
X30549809Y-42011714D01*
X30587904Y-42126000D01*
X30587904Y-42202190D01*
X30549809Y-42316476D01*
X30511714Y-42354571D01*
X30245047Y-42354571D01*
X30245047Y-42202190D01*
X30587904Y-42697428D02*
X29787904Y-42697428D01*
X30587904Y-43154571D01*
X29787904Y-43154571D01*
X30587904Y-43535523D02*
X29787904Y-43535523D01*
X29787904Y-43726000D01*
X29826000Y-43840285D01*
X29902190Y-43916476D01*
X29978380Y-43954571D01*
X30130761Y-43992666D01*
X30245047Y-43992666D01*
X30397428Y-43954571D01*
X30473619Y-43916476D01*
X30549809Y-43840285D01*
X30587904Y-43726000D01*
X30587904Y-43535523D01*
X70427904Y-28054380D02*
X70427904Y-28549619D01*
X70732666Y-28282952D01*
X70732666Y-28397238D01*
X70770761Y-28473428D01*
X70808857Y-28511523D01*
X70885047Y-28549619D01*
X71075523Y-28549619D01*
X71151714Y-28511523D01*
X71189809Y-28473428D01*
X71227904Y-28397238D01*
X71227904Y-28168666D01*
X71189809Y-28092476D01*
X71151714Y-28054380D01*
X70427904Y-28816285D02*
X70427904Y-29349619D01*
X71227904Y-29006761D01*
X67887904Y-28054380D02*
X67887904Y-28549619D01*
X68192666Y-28282952D01*
X68192666Y-28397238D01*
X68230761Y-28473428D01*
X68268857Y-28511523D01*
X68345047Y-28549619D01*
X68535523Y-28549619D01*
X68611714Y-28511523D01*
X68649809Y-28473428D01*
X68687904Y-28397238D01*
X68687904Y-28168666D01*
X68649809Y-28092476D01*
X68611714Y-28054380D01*
X68230761Y-29006761D02*
X68192666Y-28930571D01*
X68154571Y-28892476D01*
X68078380Y-28854380D01*
X68040285Y-28854380D01*
X67964095Y-28892476D01*
X67926000Y-28930571D01*
X67887904Y-29006761D01*
X67887904Y-29159142D01*
X67926000Y-29235333D01*
X67964095Y-29273428D01*
X68040285Y-29311523D01*
X68078380Y-29311523D01*
X68154571Y-29273428D01*
X68192666Y-29235333D01*
X68230761Y-29159142D01*
X68230761Y-29006761D01*
X68268857Y-28930571D01*
X68306952Y-28892476D01*
X68383142Y-28854380D01*
X68535523Y-28854380D01*
X68611714Y-28892476D01*
X68649809Y-28930571D01*
X68687904Y-29006761D01*
X68687904Y-29159142D01*
X68649809Y-29235333D01*
X68611714Y-29273428D01*
X68535523Y-29311523D01*
X68383142Y-29311523D01*
X68306952Y-29273428D01*
X68268857Y-29235333D01*
X68230761Y-29159142D01*
X65347904Y-28054380D02*
X65347904Y-28549619D01*
X65652666Y-28282952D01*
X65652666Y-28397238D01*
X65690761Y-28473428D01*
X65728857Y-28511523D01*
X65805047Y-28549619D01*
X65995523Y-28549619D01*
X66071714Y-28511523D01*
X66109809Y-28473428D01*
X66147904Y-28397238D01*
X66147904Y-28168666D01*
X66109809Y-28092476D01*
X66071714Y-28054380D01*
X66147904Y-28930571D02*
X66147904Y-29082952D01*
X66109809Y-29159142D01*
X66071714Y-29197238D01*
X65957428Y-29273428D01*
X65805047Y-29311523D01*
X65500285Y-29311523D01*
X65424095Y-29273428D01*
X65386000Y-29235333D01*
X65347904Y-29159142D01*
X65347904Y-29006761D01*
X65386000Y-28930571D01*
X65424095Y-28892476D01*
X65500285Y-28854380D01*
X65690761Y-28854380D01*
X65766952Y-28892476D01*
X65805047Y-28930571D01*
X65843142Y-29006761D01*
X65843142Y-29159142D01*
X65805047Y-29235333D01*
X65766952Y-29273428D01*
X65690761Y-29311523D01*
X62807904Y-28054380D02*
X62807904Y-28549619D01*
X63112666Y-28282952D01*
X63112666Y-28397238D01*
X63150761Y-28473428D01*
X63188857Y-28511523D01*
X63265047Y-28549619D01*
X63455523Y-28549619D01*
X63531714Y-28511523D01*
X63569809Y-28473428D01*
X63607904Y-28397238D01*
X63607904Y-28168666D01*
X63569809Y-28092476D01*
X63531714Y-28054380D01*
X62807904Y-29273428D02*
X62807904Y-28892476D01*
X63188857Y-28854380D01*
X63150761Y-28892476D01*
X63112666Y-28968666D01*
X63112666Y-29159142D01*
X63150761Y-29235333D01*
X63188857Y-29273428D01*
X63265047Y-29311523D01*
X63455523Y-29311523D01*
X63531714Y-29273428D01*
X63569809Y-29235333D01*
X63607904Y-29159142D01*
X63607904Y-28968666D01*
X63569809Y-28892476D01*
X63531714Y-28854380D01*
X60267904Y-28054380D02*
X60267904Y-28549619D01*
X60572666Y-28282952D01*
X60572666Y-28397238D01*
X60610761Y-28473428D01*
X60648857Y-28511523D01*
X60725047Y-28549619D01*
X60915523Y-28549619D01*
X60991714Y-28511523D01*
X61029809Y-28473428D01*
X61067904Y-28397238D01*
X61067904Y-28168666D01*
X61029809Y-28092476D01*
X60991714Y-28054380D01*
X60534571Y-29235333D02*
X61067904Y-29235333D01*
X60229809Y-29044857D02*
X60801238Y-28854380D01*
X60801238Y-29349619D01*
X58527904Y-28549619D02*
X58527904Y-28092476D01*
X58527904Y-28321047D02*
X57727904Y-28321047D01*
X57842190Y-28244857D01*
X57918380Y-28168666D01*
X57956476Y-28092476D01*
X57804095Y-28854380D02*
X57766000Y-28892476D01*
X57727904Y-28968666D01*
X57727904Y-29159142D01*
X57766000Y-29235333D01*
X57804095Y-29273428D01*
X57880285Y-29311523D01*
X57956476Y-29311523D01*
X58070761Y-29273428D01*
X58527904Y-28816285D01*
X58527904Y-29311523D01*
X55187904Y-28511524D02*
X55187904Y-28130571D01*
X55568857Y-28092476D01*
X55530761Y-28130571D01*
X55492666Y-28206762D01*
X55492666Y-28397238D01*
X55530761Y-28473428D01*
X55568857Y-28511524D01*
X55645047Y-28549619D01*
X55835523Y-28549619D01*
X55911714Y-28511524D01*
X55949809Y-28473428D01*
X55987904Y-28397238D01*
X55987904Y-28206762D01*
X55949809Y-28130571D01*
X55911714Y-28092476D01*
X52724095Y-28092476D02*
X52686000Y-28130571D01*
X52647904Y-28206762D01*
X52647904Y-28397238D01*
X52686000Y-28473428D01*
X52724095Y-28511524D01*
X52800285Y-28549619D01*
X52876476Y-28549619D01*
X52990761Y-28511524D01*
X53447904Y-28054381D01*
X53447904Y-28549619D01*
X50107904Y-28282952D02*
X50107904Y-28359143D01*
X50146000Y-28435333D01*
X50184095Y-28473428D01*
X50260285Y-28511524D01*
X50412666Y-28549619D01*
X50603142Y-28549619D01*
X50755523Y-28511524D01*
X50831714Y-28473428D01*
X50869809Y-28435333D01*
X50907904Y-28359143D01*
X50907904Y-28282952D01*
X50869809Y-28206762D01*
X50831714Y-28168667D01*
X50755523Y-28130571D01*
X50603142Y-28092476D01*
X50412666Y-28092476D01*
X50260285Y-28130571D01*
X50184095Y-28168667D01*
X50146000Y-28206762D01*
X50107904Y-28282952D01*
X47567904Y-28054380D02*
X47567904Y-28549618D01*
X47872666Y-28282952D01*
X47872666Y-28397237D01*
X47910761Y-28473428D01*
X47948857Y-28511523D01*
X48025047Y-28549618D01*
X48215523Y-28549618D01*
X48291714Y-28511523D01*
X48329809Y-28473428D01*
X48367904Y-28397237D01*
X48367904Y-28168666D01*
X48329809Y-28092476D01*
X48291714Y-28054380D01*
X47567904Y-28778190D02*
X48367904Y-29044857D01*
X47567904Y-29311523D01*
X47567904Y-29501999D02*
X47567904Y-29997237D01*
X47872666Y-29730571D01*
X47872666Y-29844857D01*
X47910761Y-29921047D01*
X47948857Y-29959142D01*
X48025047Y-29997237D01*
X48215523Y-29997237D01*
X48291714Y-29959142D01*
X48329809Y-29921047D01*
X48367904Y-29844857D01*
X48367904Y-29616285D01*
X48329809Y-29540095D01*
X48291714Y-29501999D01*
X45027904Y-28016285D02*
X45827904Y-28282952D01*
X45027904Y-28549618D01*
X45408857Y-29082952D02*
X45446952Y-29197237D01*
X45485047Y-29235332D01*
X45561238Y-29273428D01*
X45675523Y-29273428D01*
X45751714Y-29235332D01*
X45789809Y-29197237D01*
X45827904Y-29121047D01*
X45827904Y-28816285D01*
X45027904Y-28816285D01*
X45027904Y-29082952D01*
X45066000Y-29159142D01*
X45104095Y-29197237D01*
X45180285Y-29235332D01*
X45256476Y-29235332D01*
X45332666Y-29197237D01*
X45370761Y-29159142D01*
X45408857Y-29082952D01*
X45408857Y-28816285D01*
X45027904Y-29616285D02*
X45675523Y-29616285D01*
X45751714Y-29654380D01*
X45789809Y-29692475D01*
X45827904Y-29768666D01*
X45827904Y-29921047D01*
X45789809Y-29997237D01*
X45751714Y-30035332D01*
X45675523Y-30073428D01*
X45027904Y-30073428D01*
X45789809Y-30416285D02*
X45827904Y-30530571D01*
X45827904Y-30721047D01*
X45789809Y-30797237D01*
X45751714Y-30835332D01*
X45675523Y-30873428D01*
X45599333Y-30873428D01*
X45523142Y-30835332D01*
X45485047Y-30797237D01*
X45446952Y-30721047D01*
X45408857Y-30568666D01*
X45370761Y-30492475D01*
X45332666Y-30454380D01*
X45256476Y-30416285D01*
X45180285Y-30416285D01*
X45104095Y-30454380D01*
X45066000Y-30492475D01*
X45027904Y-30568666D01*
X45027904Y-30759142D01*
X45066000Y-30873428D01*
X72967904Y-28054380D02*
X72967904Y-28549619D01*
X73272666Y-28282952D01*
X73272666Y-28397238D01*
X73310761Y-28473428D01*
X73348857Y-28511523D01*
X73425047Y-28549619D01*
X73615523Y-28549619D01*
X73691714Y-28511523D01*
X73729809Y-28473428D01*
X73767904Y-28397238D01*
X73767904Y-28168666D01*
X73729809Y-28092476D01*
X73691714Y-28054380D01*
X72967904Y-29235333D02*
X72967904Y-29082952D01*
X73006000Y-29006761D01*
X73044095Y-28968666D01*
X73158380Y-28892476D01*
X73310761Y-28854380D01*
X73615523Y-28854380D01*
X73691714Y-28892476D01*
X73729809Y-28930571D01*
X73767904Y-29006761D01*
X73767904Y-29159142D01*
X73729809Y-29235333D01*
X73691714Y-29273428D01*
X73615523Y-29311523D01*
X73425047Y-29311523D01*
X73348857Y-29273428D01*
X73310761Y-29235333D01*
X73272666Y-29159142D01*
X73272666Y-29006761D01*
X73310761Y-28930571D01*
X73348857Y-28892476D01*
X73425047Y-28854380D01*
X32366000Y-42316476D02*
X32327904Y-42240285D01*
X32327904Y-42126000D01*
X32366000Y-42011714D01*
X32442190Y-41935523D01*
X32518380Y-41897428D01*
X32670761Y-41859333D01*
X32785047Y-41859333D01*
X32937428Y-41897428D01*
X33013619Y-41935523D01*
X33089809Y-42011714D01*
X33127904Y-42126000D01*
X33127904Y-42202190D01*
X33089809Y-42316476D01*
X33051714Y-42354571D01*
X32785047Y-42354571D01*
X32785047Y-42202190D01*
X33127904Y-42697428D02*
X32327904Y-42697428D01*
X33127904Y-43154571D01*
X32327904Y-43154571D01*
X33127904Y-43535523D02*
X32327904Y-43535523D01*
X32327904Y-43726000D01*
X32366000Y-43840285D01*
X32442190Y-43916476D01*
X32518380Y-43954571D01*
X32670761Y-43992666D01*
X32785047Y-43992666D01*
X32937428Y-43954571D01*
X33013619Y-43916476D01*
X33089809Y-43840285D01*
X33127904Y-43726000D01*
X33127904Y-43535523D01*
X35134571Y-43916475D02*
X35667904Y-43916475D01*
X34829809Y-43725999D02*
X35401238Y-43535523D01*
X35401238Y-44030761D01*
X38207904Y-43230761D02*
X38207904Y-42773618D01*
X38207904Y-43002189D02*
X37407904Y-43002189D01*
X37522190Y-42925999D01*
X37598380Y-42849808D01*
X37636476Y-42773618D01*
X37407904Y-43497427D02*
X37407904Y-43992665D01*
X37712666Y-43725999D01*
X37712666Y-43840284D01*
X37750761Y-43916475D01*
X37788857Y-43954570D01*
X37865047Y-43992665D01*
X38055523Y-43992665D01*
X38131714Y-43954570D01*
X38169809Y-43916475D01*
X38207904Y-43840284D01*
X38207904Y-43611713D01*
X38169809Y-43535522D01*
X38131714Y-43497427D01*
X40747904Y-43230761D02*
X40747904Y-42773618D01*
X40747904Y-43002189D02*
X39947904Y-43002189D01*
X40062190Y-42925999D01*
X40138380Y-42849808D01*
X40176476Y-42773618D01*
X40214571Y-43916475D02*
X40747904Y-43916475D01*
X39909809Y-43725999D02*
X40481238Y-43535522D01*
X40481238Y-44030761D01*
X43287904Y-43230761D02*
X43287904Y-42773618D01*
X43287904Y-43002189D02*
X42487904Y-43002189D01*
X42602190Y-42925999D01*
X42678380Y-42849808D01*
X42716476Y-42773618D01*
X42487904Y-43954570D02*
X42487904Y-43573618D01*
X42868857Y-43535522D01*
X42830761Y-43573618D01*
X42792666Y-43649808D01*
X42792666Y-43840284D01*
X42830761Y-43916475D01*
X42868857Y-43954570D01*
X42945047Y-43992665D01*
X43135523Y-43992665D01*
X43211714Y-43954570D01*
X43249809Y-43916475D01*
X43287904Y-43840284D01*
X43287904Y-43649808D01*
X43249809Y-43573618D01*
X43211714Y-43535522D01*
X45104095Y-42773618D02*
X45066000Y-42811713D01*
X45027904Y-42887903D01*
X45027904Y-43078380D01*
X45066000Y-43154570D01*
X45104095Y-43192665D01*
X45180285Y-43230761D01*
X45256476Y-43230761D01*
X45370761Y-43192665D01*
X45827904Y-42735522D01*
X45827904Y-43230761D01*
X45027904Y-43497427D02*
X45027904Y-44030761D01*
X45827904Y-43687903D01*
X48367904Y-43611714D02*
X48367904Y-43764095D01*
X48329809Y-43840285D01*
X48291714Y-43878380D01*
X48177428Y-43954571D01*
X48025047Y-43992666D01*
X47720285Y-43992666D01*
X47644095Y-43954571D01*
X47606000Y-43916475D01*
X47567904Y-43840285D01*
X47567904Y-43687904D01*
X47606000Y-43611714D01*
X47644095Y-43573618D01*
X47720285Y-43535523D01*
X47910761Y-43535523D01*
X47986952Y-43573618D01*
X48025047Y-43611714D01*
X48063142Y-43687904D01*
X48063142Y-43840285D01*
X48025047Y-43916475D01*
X47986952Y-43954571D01*
X47910761Y-43992666D01*
X50907904Y-43230761D02*
X50907904Y-42773618D01*
X50907904Y-43002189D02*
X50107904Y-43002189D01*
X50222190Y-42925999D01*
X50298380Y-42849808D01*
X50336476Y-42773618D01*
X50107904Y-43725999D02*
X50107904Y-43802189D01*
X50146000Y-43878380D01*
X50184095Y-43916475D01*
X50260285Y-43954570D01*
X50412666Y-43992665D01*
X50603142Y-43992665D01*
X50755523Y-43954570D01*
X50831714Y-43916475D01*
X50869809Y-43878380D01*
X50907904Y-43802189D01*
X50907904Y-43725999D01*
X50869809Y-43649808D01*
X50831714Y-43611713D01*
X50755523Y-43573618D01*
X50603142Y-43535522D01*
X50412666Y-43535522D01*
X50260285Y-43573618D01*
X50184095Y-43611713D01*
X50146000Y-43649808D01*
X50107904Y-43725999D01*
X53447904Y-43230761D02*
X53447904Y-42773618D01*
X53447904Y-43002189D02*
X52647904Y-43002189D01*
X52762190Y-42925999D01*
X52838380Y-42849808D01*
X52876476Y-42773618D01*
X52990761Y-43687903D02*
X52952666Y-43611713D01*
X52914571Y-43573618D01*
X52838380Y-43535522D01*
X52800285Y-43535522D01*
X52724095Y-43573618D01*
X52686000Y-43611713D01*
X52647904Y-43687903D01*
X52647904Y-43840284D01*
X52686000Y-43916475D01*
X52724095Y-43954570D01*
X52800285Y-43992665D01*
X52838380Y-43992665D01*
X52914571Y-43954570D01*
X52952666Y-43916475D01*
X52990761Y-43840284D01*
X52990761Y-43687903D01*
X53028857Y-43611713D01*
X53066952Y-43573618D01*
X53143142Y-43535522D01*
X53295523Y-43535522D01*
X53371714Y-43573618D01*
X53409809Y-43611713D01*
X53447904Y-43687903D01*
X53447904Y-43840284D01*
X53409809Y-43916475D01*
X53371714Y-43954570D01*
X53295523Y-43992665D01*
X53143142Y-43992665D01*
X53066952Y-43954570D01*
X53028857Y-43916475D01*
X52990761Y-43840284D01*
X55987904Y-43230761D02*
X55987904Y-42773618D01*
X55987904Y-43002189D02*
X55187904Y-43002189D01*
X55302190Y-42925999D01*
X55378380Y-42849808D01*
X55416476Y-42773618D01*
X55987904Y-43611713D02*
X55987904Y-43764094D01*
X55949809Y-43840284D01*
X55911714Y-43878380D01*
X55797428Y-43954570D01*
X55645047Y-43992665D01*
X55340285Y-43992665D01*
X55264095Y-43954570D01*
X55226000Y-43916475D01*
X55187904Y-43840284D01*
X55187904Y-43687903D01*
X55226000Y-43611713D01*
X55264095Y-43573618D01*
X55340285Y-43535522D01*
X55530761Y-43535522D01*
X55606952Y-43573618D01*
X55645047Y-43611713D01*
X55683142Y-43687903D01*
X55683142Y-43840284D01*
X55645047Y-43916475D01*
X55606952Y-43954570D01*
X55530761Y-43992665D01*
X58527904Y-43230761D02*
X58527904Y-42773618D01*
X58527904Y-43002189D02*
X57727904Y-43002189D01*
X57842190Y-42925999D01*
X57918380Y-42849808D01*
X57956476Y-42773618D01*
X58527904Y-43992665D02*
X58527904Y-43535522D01*
X58527904Y-43764094D02*
X57727904Y-43764094D01*
X57842190Y-43687903D01*
X57918380Y-43611713D01*
X57956476Y-43535522D01*
X60267904Y-43916475D02*
X60267904Y-43764095D01*
X60306000Y-43687904D01*
X60344095Y-43649809D01*
X60458380Y-43573618D01*
X60610761Y-43535523D01*
X60915523Y-43535523D01*
X60991714Y-43573618D01*
X61029809Y-43611714D01*
X61067904Y-43687904D01*
X61067904Y-43840285D01*
X61029809Y-43916475D01*
X60991714Y-43954571D01*
X60915523Y-43992666D01*
X60725047Y-43992666D01*
X60648857Y-43954571D01*
X60610761Y-43916475D01*
X60572666Y-43840285D01*
X60572666Y-43687904D01*
X60610761Y-43611714D01*
X60648857Y-43573618D01*
X60725047Y-43535523D01*
X62807904Y-43497428D02*
X62807904Y-44030761D01*
X63607904Y-43687904D01*
X65690761Y-43687904D02*
X65652666Y-43611714D01*
X65614571Y-43573618D01*
X65538380Y-43535523D01*
X65500285Y-43535523D01*
X65424095Y-43573618D01*
X65386000Y-43611714D01*
X65347904Y-43687904D01*
X65347904Y-43840285D01*
X65386000Y-43916475D01*
X65424095Y-43954571D01*
X65500285Y-43992666D01*
X65538380Y-43992666D01*
X65614571Y-43954571D01*
X65652666Y-43916475D01*
X65690761Y-43840285D01*
X65690761Y-43687904D01*
X65728857Y-43611714D01*
X65766952Y-43573618D01*
X65843142Y-43535523D01*
X65995523Y-43535523D01*
X66071714Y-43573618D01*
X66109809Y-43611714D01*
X66147904Y-43687904D01*
X66147904Y-43840285D01*
X66109809Y-43916475D01*
X66071714Y-43954571D01*
X65995523Y-43992666D01*
X65843142Y-43992666D01*
X65766952Y-43954571D01*
X65728857Y-43916475D01*
X65690761Y-43840285D01*
X67964095Y-42773618D02*
X67926000Y-42811713D01*
X67887904Y-42887903D01*
X67887904Y-43078380D01*
X67926000Y-43154570D01*
X67964095Y-43192665D01*
X68040285Y-43230761D01*
X68116476Y-43230761D01*
X68230761Y-43192665D01*
X68687904Y-42735522D01*
X68687904Y-43230761D01*
X67887904Y-43497427D02*
X67887904Y-43992665D01*
X68192666Y-43725999D01*
X68192666Y-43840284D01*
X68230761Y-43916475D01*
X68268857Y-43954570D01*
X68345047Y-43992665D01*
X68535523Y-43992665D01*
X68611714Y-43954570D01*
X68649809Y-43916475D01*
X68687904Y-43840284D01*
X68687904Y-43611713D01*
X68649809Y-43535522D01*
X68611714Y-43497427D01*
X70504095Y-42773618D02*
X70466000Y-42811713D01*
X70427904Y-42887903D01*
X70427904Y-43078380D01*
X70466000Y-43154570D01*
X70504095Y-43192665D01*
X70580285Y-43230761D01*
X70656476Y-43230761D01*
X70770761Y-43192665D01*
X71227904Y-42735522D01*
X71227904Y-43230761D01*
X70427904Y-43954570D02*
X70427904Y-43573618D01*
X70808857Y-43535522D01*
X70770761Y-43573618D01*
X70732666Y-43649808D01*
X70732666Y-43840284D01*
X70770761Y-43916475D01*
X70808857Y-43954570D01*
X70885047Y-43992665D01*
X71075523Y-43992665D01*
X71151714Y-43954570D01*
X71189809Y-43916475D01*
X71227904Y-43840284D01*
X71227904Y-43649808D01*
X71189809Y-43573618D01*
X71151714Y-43535522D01*
X73044095Y-42773618D02*
X73006000Y-42811713D01*
X72967904Y-42887903D01*
X72967904Y-43078380D01*
X73006000Y-43154570D01*
X73044095Y-43192665D01*
X73120285Y-43230761D01*
X73196476Y-43230761D01*
X73310761Y-43192665D01*
X73767904Y-42735522D01*
X73767904Y-43230761D01*
X72967904Y-43916475D02*
X72967904Y-43764094D01*
X73006000Y-43687903D01*
X73044095Y-43649808D01*
X73158380Y-43573618D01*
X73310761Y-43535522D01*
X73615523Y-43535522D01*
X73691714Y-43573618D01*
X73729809Y-43611713D01*
X73767904Y-43687903D01*
X73767904Y-43840284D01*
X73729809Y-43916475D01*
X73691714Y-43954570D01*
X73615523Y-43992665D01*
X73425047Y-43992665D01*
X73348857Y-43954570D01*
X73310761Y-43916475D01*
X73272666Y-43840284D01*
X73272666Y-43687903D01*
X73310761Y-43611713D01*
X73348857Y-43573618D01*
X73425047Y-43535522D01*
D11*
%TO.C,G\u002A\u002A\u002A*%
G36*
X56382517Y-37696894D02*
G01*
X56363080Y-37699714D01*
X56351773Y-37716555D01*
X56328898Y-37760794D01*
X56296201Y-37828689D01*
X56255429Y-37916501D01*
X56208331Y-38020487D01*
X56156654Y-38136908D01*
X56124528Y-38210366D01*
X56055671Y-38367106D01*
X55999005Y-38492650D01*
X55954366Y-38587336D01*
X55921591Y-38651500D01*
X55900516Y-38685481D01*
X55891393Y-38690497D01*
X55881334Y-38669718D01*
X55859665Y-38621802D01*
X55828140Y-38550728D01*
X55788510Y-38460478D01*
X55742529Y-38355034D01*
X55691948Y-38238378D01*
X55668871Y-38184950D01*
X55460669Y-37702350D01*
X55348459Y-37697343D01*
X55291841Y-37696237D01*
X55251512Y-37698160D01*
X55236249Y-37702662D01*
X55242909Y-37720991D01*
X55261801Y-37766537D01*
X55291296Y-37835620D01*
X55329765Y-37924555D01*
X55375580Y-38029662D01*
X55427110Y-38147259D01*
X55482726Y-38273662D01*
X55540800Y-38405190D01*
X55599702Y-38538160D01*
X55657803Y-38668892D01*
X55713474Y-38793701D01*
X55765085Y-38908907D01*
X55811008Y-39010827D01*
X55849612Y-39095779D01*
X55879270Y-39160081D01*
X55898351Y-39200050D01*
X55901624Y-39206470D01*
X55972396Y-39310073D01*
X56060856Y-39389953D01*
X56162212Y-39443653D01*
X56271675Y-39468714D01*
X56384452Y-39462680D01*
X56396183Y-39460167D01*
X56477605Y-39439906D01*
X56534204Y-39421474D01*
X56574648Y-39401672D01*
X56596970Y-39386089D01*
X56641312Y-39351209D01*
X56608303Y-39288780D01*
X56578580Y-39233852D01*
X56556626Y-39204713D01*
X56533683Y-39197589D01*
X56500994Y-39208706D01*
X56464594Y-39226857D01*
X56366385Y-39262694D01*
X56277818Y-39266298D01*
X56199698Y-39237882D01*
X56132828Y-39177659D01*
X56100701Y-39130306D01*
X56071068Y-39075987D01*
X56048280Y-39028680D01*
X56039200Y-39004770D01*
X56043585Y-38978421D01*
X56062580Y-38921759D01*
X56096106Y-38834986D01*
X56144079Y-38718303D01*
X56206419Y-38571910D01*
X56283045Y-38396009D01*
X56309518Y-38335903D01*
X56589192Y-37702350D01*
X56486004Y-37697245D01*
X56427897Y-37695697D01*
X56382517Y-37696894D01*
G37*
X56382517Y-37696894D02*
X56363080Y-37699714D01*
X56351773Y-37716555D01*
X56328898Y-37760794D01*
X56296201Y-37828689D01*
X56255429Y-37916501D01*
X56208331Y-38020487D01*
X56156654Y-38136908D01*
X56124528Y-38210366D01*
X56055671Y-38367106D01*
X55999005Y-38492650D01*
X55954366Y-38587336D01*
X55921591Y-38651500D01*
X55900516Y-38685481D01*
X55891393Y-38690497D01*
X55881334Y-38669718D01*
X55859665Y-38621802D01*
X55828140Y-38550728D01*
X55788510Y-38460478D01*
X55742529Y-38355034D01*
X55691948Y-38238378D01*
X55668871Y-38184950D01*
X55460669Y-37702350D01*
X55348459Y-37697343D01*
X55291841Y-37696237D01*
X55251512Y-37698160D01*
X55236249Y-37702662D01*
X55242909Y-37720991D01*
X55261801Y-37766537D01*
X55291296Y-37835620D01*
X55329765Y-37924555D01*
X55375580Y-38029662D01*
X55427110Y-38147259D01*
X55482726Y-38273662D01*
X55540800Y-38405190D01*
X55599702Y-38538160D01*
X55657803Y-38668892D01*
X55713474Y-38793701D01*
X55765085Y-38908907D01*
X55811008Y-39010827D01*
X55849612Y-39095779D01*
X55879270Y-39160081D01*
X55898351Y-39200050D01*
X55901624Y-39206470D01*
X55972396Y-39310073D01*
X56060856Y-39389953D01*
X56162212Y-39443653D01*
X56271675Y-39468714D01*
X56384452Y-39462680D01*
X56396183Y-39460167D01*
X56477605Y-39439906D01*
X56534204Y-39421474D01*
X56574648Y-39401672D01*
X56596970Y-39386089D01*
X56641312Y-39351209D01*
X56608303Y-39288780D01*
X56578580Y-39233852D01*
X56556626Y-39204713D01*
X56533683Y-39197589D01*
X56500994Y-39208706D01*
X56464594Y-39226857D01*
X56366385Y-39262694D01*
X56277818Y-39266298D01*
X56199698Y-39237882D01*
X56132828Y-39177659D01*
X56100701Y-39130306D01*
X56071068Y-39075987D01*
X56048280Y-39028680D01*
X56039200Y-39004770D01*
X56043585Y-38978421D01*
X56062580Y-38921759D01*
X56096106Y-38834986D01*
X56144079Y-38718303D01*
X56206419Y-38571910D01*
X56283045Y-38396009D01*
X56309518Y-38335903D01*
X56589192Y-37702350D01*
X56486004Y-37697245D01*
X56427897Y-37695697D01*
X56382517Y-37696894D01*
G36*
X71049032Y-33220643D02*
G01*
X71041593Y-33237262D01*
X71022243Y-33283440D01*
X70991731Y-33357325D01*
X70950807Y-33457064D01*
X70900219Y-33580807D01*
X70840716Y-33726699D01*
X70773048Y-33892889D01*
X70697964Y-34077524D01*
X70616213Y-34278754D01*
X70528543Y-34494724D01*
X70435705Y-34723583D01*
X70338447Y-34963479D01*
X70237517Y-35212559D01*
X70133667Y-35468971D01*
X70027643Y-35730863D01*
X69920196Y-35996383D01*
X69812075Y-36263678D01*
X69704029Y-36530896D01*
X69596806Y-36796185D01*
X69491157Y-37057693D01*
X69387829Y-37313567D01*
X69287572Y-37561956D01*
X69191136Y-37801006D01*
X69099269Y-38028866D01*
X69012721Y-38243683D01*
X68932240Y-38443605D01*
X68858576Y-38626780D01*
X68792477Y-38791356D01*
X68734693Y-38935480D01*
X68685974Y-39057300D01*
X68647067Y-39154964D01*
X68618722Y-39226620D01*
X68601689Y-39270415D01*
X68596650Y-39284475D01*
X68611148Y-39296212D01*
X68649483Y-39316756D01*
X68703914Y-39342669D01*
X68766702Y-39370516D01*
X68830106Y-39396861D01*
X68886387Y-39418268D01*
X68926857Y-39431065D01*
X68961726Y-39430116D01*
X68973793Y-39418110D01*
X69001581Y-39350128D01*
X69039951Y-39255870D01*
X69088159Y-39137184D01*
X69145457Y-38995919D01*
X69211101Y-38833923D01*
X69284343Y-38653044D01*
X69364437Y-38455132D01*
X69450639Y-38242034D01*
X69542201Y-38015599D01*
X69638377Y-37777676D01*
X69738422Y-37530113D01*
X69841589Y-37274759D01*
X69947132Y-37013461D01*
X70054306Y-36748069D01*
X70162363Y-36480432D01*
X70270559Y-36212396D01*
X70378147Y-35945812D01*
X70484380Y-35682527D01*
X70588513Y-35424391D01*
X70689800Y-35173251D01*
X70787495Y-34930955D01*
X70880851Y-34699354D01*
X70969123Y-34480294D01*
X71051564Y-34275625D01*
X71127429Y-34087195D01*
X71195971Y-33916852D01*
X71256444Y-33766445D01*
X71308102Y-33637823D01*
X71350200Y-33532833D01*
X71381990Y-33453326D01*
X71402727Y-33401148D01*
X71411665Y-33378148D01*
X71411971Y-33377212D01*
X71398918Y-33362342D01*
X71361494Y-33339551D01*
X71307288Y-33312113D01*
X71243891Y-33283303D01*
X71178895Y-33256395D01*
X71119890Y-33234664D01*
X71074466Y-33221385D01*
X71050214Y-33219832D01*
X71049032Y-33220643D01*
G37*
X71049032Y-33220643D02*
X71041593Y-33237262D01*
X71022243Y-33283440D01*
X70991731Y-33357325D01*
X70950807Y-33457064D01*
X70900219Y-33580807D01*
X70840716Y-33726699D01*
X70773048Y-33892889D01*
X70697964Y-34077524D01*
X70616213Y-34278754D01*
X70528543Y-34494724D01*
X70435705Y-34723583D01*
X70338447Y-34963479D01*
X70237517Y-35212559D01*
X70133667Y-35468971D01*
X70027643Y-35730863D01*
X69920196Y-35996383D01*
X69812075Y-36263678D01*
X69704029Y-36530896D01*
X69596806Y-36796185D01*
X69491157Y-37057693D01*
X69387829Y-37313567D01*
X69287572Y-37561956D01*
X69191136Y-37801006D01*
X69099269Y-38028866D01*
X69012721Y-38243683D01*
X68932240Y-38443605D01*
X68858576Y-38626780D01*
X68792477Y-38791356D01*
X68734693Y-38935480D01*
X68685974Y-39057300D01*
X68647067Y-39154964D01*
X68618722Y-39226620D01*
X68601689Y-39270415D01*
X68596650Y-39284475D01*
X68611148Y-39296212D01*
X68649483Y-39316756D01*
X68703914Y-39342669D01*
X68766702Y-39370516D01*
X68830106Y-39396861D01*
X68886387Y-39418268D01*
X68926857Y-39431065D01*
X68961726Y-39430116D01*
X68973793Y-39418110D01*
X69001581Y-39350128D01*
X69039951Y-39255870D01*
X69088159Y-39137184D01*
X69145457Y-38995919D01*
X69211101Y-38833923D01*
X69284343Y-38653044D01*
X69364437Y-38455132D01*
X69450639Y-38242034D01*
X69542201Y-38015599D01*
X69638377Y-37777676D01*
X69738422Y-37530113D01*
X69841589Y-37274759D01*
X69947132Y-37013461D01*
X70054306Y-36748069D01*
X70162363Y-36480432D01*
X70270559Y-36212396D01*
X70378147Y-35945812D01*
X70484380Y-35682527D01*
X70588513Y-35424391D01*
X70689800Y-35173251D01*
X70787495Y-34930955D01*
X70880851Y-34699354D01*
X70969123Y-34480294D01*
X71051564Y-34275625D01*
X71127429Y-34087195D01*
X71195971Y-33916852D01*
X71256444Y-33766445D01*
X71308102Y-33637823D01*
X71350200Y-33532833D01*
X71381990Y-33453326D01*
X71402727Y-33401148D01*
X71411665Y-33378148D01*
X71411971Y-33377212D01*
X71398918Y-33362342D01*
X71361494Y-33339551D01*
X71307288Y-33312113D01*
X71243891Y-33283303D01*
X71178895Y-33256395D01*
X71119890Y-33234664D01*
X71074466Y-33221385D01*
X71050214Y-33219832D01*
X71049032Y-33220643D01*
G36*
X57810116Y-37887023D02*
G01*
X57746616Y-37825155D01*
X57648375Y-37751966D01*
X57534484Y-37704552D01*
X57410508Y-37682291D01*
X57282012Y-37684560D01*
X57154561Y-37710735D01*
X57033719Y-37760193D01*
X56925051Y-37832310D01*
X56834122Y-37926465D01*
X56833387Y-37927430D01*
X56767058Y-38041302D01*
X56726270Y-38170135D01*
X56710582Y-38307298D01*
X56719553Y-38446159D01*
X56752744Y-38580088D01*
X56809713Y-38702454D01*
X56890020Y-38806626D01*
X56891913Y-38808530D01*
X56991308Y-38886299D01*
X57110526Y-38944877D01*
X57240723Y-38981920D01*
X57373050Y-38995083D01*
X57498662Y-38982022D01*
X57523087Y-38975806D01*
X57633363Y-38931111D01*
X57728430Y-38866537D01*
X57758323Y-38837940D01*
X57789247Y-38808879D01*
X57811344Y-38794797D01*
X57813068Y-38794550D01*
X57820726Y-38809864D01*
X57825804Y-38849367D01*
X57827050Y-38887683D01*
X57827050Y-38980816D01*
X58047183Y-38980816D01*
X58047183Y-38350054D01*
X57807791Y-38350054D01*
X57806759Y-38370845D01*
X57784311Y-38495756D01*
X57734503Y-38602342D01*
X57659224Y-38688239D01*
X57560365Y-38751084D01*
X57479916Y-38779633D01*
X57408901Y-38787663D01*
X57323805Y-38782379D01*
X57240803Y-38765681D01*
X57186341Y-38745157D01*
X57092753Y-38679328D01*
X57020308Y-38591250D01*
X56971177Y-38486729D01*
X56947534Y-38371570D01*
X56951553Y-38251580D01*
X56971176Y-38170246D01*
X57020595Y-38070165D01*
X57092061Y-37990698D01*
X57180078Y-37932750D01*
X57279153Y-37897225D01*
X57383791Y-37885027D01*
X57488497Y-37897061D01*
X57587779Y-37934232D01*
X57676140Y-37997442D01*
X57720599Y-38046886D01*
X57773712Y-38135714D01*
X57802044Y-38234020D01*
X57807791Y-38350054D01*
X58047183Y-38350054D01*
X58047183Y-37168950D01*
X57810116Y-37168950D01*
X57810116Y-37887023D01*
G37*
X57810116Y-37887023D02*
X57746616Y-37825155D01*
X57648375Y-37751966D01*
X57534484Y-37704552D01*
X57410508Y-37682291D01*
X57282012Y-37684560D01*
X57154561Y-37710735D01*
X57033719Y-37760193D01*
X56925051Y-37832310D01*
X56834122Y-37926465D01*
X56833387Y-37927430D01*
X56767058Y-38041302D01*
X56726270Y-38170135D01*
X56710582Y-38307298D01*
X56719553Y-38446159D01*
X56752744Y-38580088D01*
X56809713Y-38702454D01*
X56890020Y-38806626D01*
X56891913Y-38808530D01*
X56991308Y-38886299D01*
X57110526Y-38944877D01*
X57240723Y-38981920D01*
X57373050Y-38995083D01*
X57498662Y-38982022D01*
X57523087Y-38975806D01*
X57633363Y-38931111D01*
X57728430Y-38866537D01*
X57758323Y-38837940D01*
X57789247Y-38808879D01*
X57811344Y-38794797D01*
X57813068Y-38794550D01*
X57820726Y-38809864D01*
X57825804Y-38849367D01*
X57827050Y-38887683D01*
X57827050Y-38980816D01*
X58047183Y-38980816D01*
X58047183Y-38350054D01*
X57807791Y-38350054D01*
X57806759Y-38370845D01*
X57784311Y-38495756D01*
X57734503Y-38602342D01*
X57659224Y-38688239D01*
X57560365Y-38751084D01*
X57479916Y-38779633D01*
X57408901Y-38787663D01*
X57323805Y-38782379D01*
X57240803Y-38765681D01*
X57186341Y-38745157D01*
X57092753Y-38679328D01*
X57020308Y-38591250D01*
X56971177Y-38486729D01*
X56947534Y-38371570D01*
X56951553Y-38251580D01*
X56971176Y-38170246D01*
X57020595Y-38070165D01*
X57092061Y-37990698D01*
X57180078Y-37932750D01*
X57279153Y-37897225D01*
X57383791Y-37885027D01*
X57488497Y-37897061D01*
X57587779Y-37934232D01*
X57676140Y-37997442D01*
X57720599Y-38046886D01*
X57773712Y-38135714D01*
X57802044Y-38234020D01*
X57807791Y-38350054D01*
X58047183Y-38350054D01*
X58047183Y-37168950D01*
X57810116Y-37168950D01*
X57810116Y-37887023D01*
G36*
X50724677Y-37686708D02*
G01*
X50664166Y-37691432D01*
X50615820Y-37701515D01*
X50568811Y-37718796D01*
X50542750Y-37730557D01*
X50419661Y-37806040D01*
X50318936Y-37905110D01*
X50242870Y-38024069D01*
X50193760Y-38159224D01*
X50173902Y-38306878D01*
X50173597Y-38324650D01*
X50173183Y-38405083D01*
X50698116Y-38405083D01*
X50827556Y-38405476D01*
X50945393Y-38406590D01*
X51047558Y-38408327D01*
X51129979Y-38410587D01*
X51188585Y-38413272D01*
X51219307Y-38416285D01*
X51222955Y-38417783D01*
X51209311Y-38482619D01*
X51173569Y-38556294D01*
X51122231Y-38629514D01*
X51061802Y-38692987D01*
X50999551Y-38737024D01*
X50897310Y-38773336D01*
X50782835Y-38786766D01*
X50666032Y-38778052D01*
X50556808Y-38747932D01*
X50465155Y-38697210D01*
X50386410Y-38637102D01*
X50321610Y-38710123D01*
X50256809Y-38783144D01*
X50299233Y-38827425D01*
X50381025Y-38891265D01*
X50486752Y-38941147D01*
X50608724Y-38975237D01*
X50739253Y-38991701D01*
X50870652Y-38988704D01*
X50935183Y-38979158D01*
X51073053Y-38936136D01*
X51193670Y-38866590D01*
X51294609Y-38774446D01*
X51373445Y-38663628D01*
X51427753Y-38538060D01*
X51455106Y-38401668D01*
X51453081Y-38258376D01*
X51444388Y-38212136D01*
X51222748Y-38212136D01*
X51213944Y-38230120D01*
X51188577Y-38241860D01*
X51143353Y-38248671D01*
X51074977Y-38251871D01*
X50980153Y-38252775D01*
X50855586Y-38252701D01*
X50819472Y-38252683D01*
X50705913Y-38252280D01*
X50603875Y-38251148D01*
X50518158Y-38249404D01*
X50453558Y-38247163D01*
X50414874Y-38244542D01*
X50405881Y-38242670D01*
X50403048Y-38219058D01*
X50413047Y-38175660D01*
X50432316Y-38122325D01*
X50457295Y-38068900D01*
X50484424Y-38025234D01*
X50484549Y-38025070D01*
X50554937Y-37959031D01*
X50646937Y-37911616D01*
X50752544Y-37885021D01*
X50863754Y-37881442D01*
X50952116Y-37896830D01*
X51030482Y-37933686D01*
X51104433Y-37995421D01*
X51164538Y-38073419D01*
X51182735Y-38107550D01*
X51203848Y-38152167D01*
X51218284Y-38186590D01*
X51222748Y-38212136D01*
X51444388Y-38212136D01*
X51436172Y-38168434D01*
X51385685Y-38026604D01*
X51312426Y-37909177D01*
X51214690Y-37814041D01*
X51090772Y-37739084D01*
X51089083Y-37738281D01*
X51033663Y-37713465D01*
X50987138Y-37697893D01*
X50938273Y-37689456D01*
X50875831Y-37686041D01*
X50808183Y-37685507D01*
X50724677Y-37686708D01*
G37*
X50724677Y-37686708D02*
X50664166Y-37691432D01*
X50615820Y-37701515D01*
X50568811Y-37718796D01*
X50542750Y-37730557D01*
X50419661Y-37806040D01*
X50318936Y-37905110D01*
X50242870Y-38024069D01*
X50193760Y-38159224D01*
X50173902Y-38306878D01*
X50173597Y-38324650D01*
X50173183Y-38405083D01*
X50698116Y-38405083D01*
X50827556Y-38405476D01*
X50945393Y-38406590D01*
X51047558Y-38408327D01*
X51129979Y-38410587D01*
X51188585Y-38413272D01*
X51219307Y-38416285D01*
X51222955Y-38417783D01*
X51209311Y-38482619D01*
X51173569Y-38556294D01*
X51122231Y-38629514D01*
X51061802Y-38692987D01*
X50999551Y-38737024D01*
X50897310Y-38773336D01*
X50782835Y-38786766D01*
X50666032Y-38778052D01*
X50556808Y-38747932D01*
X50465155Y-38697210D01*
X50386410Y-38637102D01*
X50321610Y-38710123D01*
X50256809Y-38783144D01*
X50299233Y-38827425D01*
X50381025Y-38891265D01*
X50486752Y-38941147D01*
X50608724Y-38975237D01*
X50739253Y-38991701D01*
X50870652Y-38988704D01*
X50935183Y-38979158D01*
X51073053Y-38936136D01*
X51193670Y-38866590D01*
X51294609Y-38774446D01*
X51373445Y-38663628D01*
X51427753Y-38538060D01*
X51455106Y-38401668D01*
X51453081Y-38258376D01*
X51444388Y-38212136D01*
X51222748Y-38212136D01*
X51213944Y-38230120D01*
X51188577Y-38241860D01*
X51143353Y-38248671D01*
X51074977Y-38251871D01*
X50980153Y-38252775D01*
X50855586Y-38252701D01*
X50819472Y-38252683D01*
X50705913Y-38252280D01*
X50603875Y-38251148D01*
X50518158Y-38249404D01*
X50453558Y-38247163D01*
X50414874Y-38244542D01*
X50405881Y-38242670D01*
X50403048Y-38219058D01*
X50413047Y-38175660D01*
X50432316Y-38122325D01*
X50457295Y-38068900D01*
X50484424Y-38025234D01*
X50484549Y-38025070D01*
X50554937Y-37959031D01*
X50646937Y-37911616D01*
X50752544Y-37885021D01*
X50863754Y-37881442D01*
X50952116Y-37896830D01*
X51030482Y-37933686D01*
X51104433Y-37995421D01*
X51164538Y-38073419D01*
X51182735Y-38107550D01*
X51203848Y-38152167D01*
X51218284Y-38186590D01*
X51222748Y-38212136D01*
X51444388Y-38212136D01*
X51436172Y-38168434D01*
X51385685Y-38026604D01*
X51312426Y-37909177D01*
X51214690Y-37814041D01*
X51090772Y-37739084D01*
X51089083Y-37738281D01*
X51033663Y-37713465D01*
X50987138Y-37697893D01*
X50938273Y-37689456D01*
X50875831Y-37686041D01*
X50808183Y-37685507D01*
X50724677Y-37686708D01*
G36*
X53860416Y-37275144D02*
G01*
X53706838Y-37278364D01*
X53583318Y-37282183D01*
X53486048Y-37286840D01*
X53411221Y-37292572D01*
X53355030Y-37299620D01*
X53313668Y-37308221D01*
X53308067Y-37309788D01*
X53144544Y-37373044D01*
X53002481Y-37460306D01*
X52883871Y-37569570D01*
X52790709Y-37698830D01*
X52724989Y-37846083D01*
X52705390Y-37915592D01*
X52680899Y-38087240D01*
X52688134Y-38252354D01*
X52725174Y-38407913D01*
X52790103Y-38550891D01*
X52881002Y-38678267D01*
X52995951Y-38787016D01*
X53133033Y-38874115D01*
X53290330Y-38936541D01*
X53365116Y-38955342D01*
X53422048Y-38964502D01*
X53496854Y-38971417D01*
X53593321Y-38976263D01*
X53715239Y-38979219D01*
X53866394Y-38980462D01*
X53902749Y-38980522D01*
X54321849Y-38980816D01*
X54321849Y-38760683D01*
X54067849Y-38760683D01*
X53762515Y-38760683D01*
X53648059Y-38760204D01*
X53560973Y-38758396D01*
X53494768Y-38754705D01*
X53442957Y-38748575D01*
X53399051Y-38739452D01*
X53356561Y-38726780D01*
X53353286Y-38725683D01*
X53215489Y-38664308D01*
X53104266Y-38581943D01*
X53019558Y-38478519D01*
X52961308Y-38353968D01*
X52932009Y-38227687D01*
X52926877Y-38098684D01*
X52945856Y-37969390D01*
X52986335Y-37847513D01*
X53045703Y-37740765D01*
X53121347Y-37656854D01*
X53126932Y-37652239D01*
X53196456Y-37600347D01*
X53264655Y-37560533D01*
X53337474Y-37531320D01*
X53420860Y-37511228D01*
X53520759Y-37498778D01*
X53643118Y-37492493D01*
X53775749Y-37490884D01*
X54067849Y-37490683D01*
X54067849Y-38760683D01*
X54321849Y-38760683D01*
X54321849Y-37266994D01*
X53860416Y-37275144D01*
G37*
X53860416Y-37275144D02*
X53706838Y-37278364D01*
X53583318Y-37282183D01*
X53486048Y-37286840D01*
X53411221Y-37292572D01*
X53355030Y-37299620D01*
X53313668Y-37308221D01*
X53308067Y-37309788D01*
X53144544Y-37373044D01*
X53002481Y-37460306D01*
X52883871Y-37569570D01*
X52790709Y-37698830D01*
X52724989Y-37846083D01*
X52705390Y-37915592D01*
X52680899Y-38087240D01*
X52688134Y-38252354D01*
X52725174Y-38407913D01*
X52790103Y-38550891D01*
X52881002Y-38678267D01*
X52995951Y-38787016D01*
X53133033Y-38874115D01*
X53290330Y-38936541D01*
X53365116Y-38955342D01*
X53422048Y-38964502D01*
X53496854Y-38971417D01*
X53593321Y-38976263D01*
X53715239Y-38979219D01*
X53866394Y-38980462D01*
X53902749Y-38980522D01*
X54321849Y-38980816D01*
X54321849Y-38760683D01*
X54067849Y-38760683D01*
X53762515Y-38760683D01*
X53648059Y-38760204D01*
X53560973Y-38758396D01*
X53494768Y-38754705D01*
X53442957Y-38748575D01*
X53399051Y-38739452D01*
X53356561Y-38726780D01*
X53353286Y-38725683D01*
X53215489Y-38664308D01*
X53104266Y-38581943D01*
X53019558Y-38478519D01*
X52961308Y-38353968D01*
X52932009Y-38227687D01*
X52926877Y-38098684D01*
X52945856Y-37969390D01*
X52986335Y-37847513D01*
X53045703Y-37740765D01*
X53121347Y-37656854D01*
X53126932Y-37652239D01*
X53196456Y-37600347D01*
X53264655Y-37560533D01*
X53337474Y-37531320D01*
X53420860Y-37511228D01*
X53520759Y-37498778D01*
X53643118Y-37492493D01*
X53775749Y-37490884D01*
X54067849Y-37490683D01*
X54067849Y-38760683D01*
X54321849Y-38760683D01*
X54321849Y-37266994D01*
X53860416Y-37275144D01*
G36*
X51646383Y-37892420D02*
G01*
X51740769Y-37903514D01*
X51856859Y-37929656D01*
X51950320Y-37979505D01*
X52024928Y-38055563D01*
X52063502Y-38117217D01*
X52073715Y-38139699D01*
X52081644Y-38167181D01*
X52087658Y-38204269D01*
X52092125Y-38255569D01*
X52095415Y-38325686D01*
X52097897Y-38419227D01*
X52099939Y-38540796D01*
X52100457Y-38578650D01*
X52105798Y-38980816D01*
X52340649Y-38980816D01*
X52340649Y-37693883D01*
X52120516Y-37693883D01*
X52120516Y-37904799D01*
X52069371Y-37842751D01*
X51999928Y-37780372D01*
X51907817Y-37729066D01*
X51803729Y-37694062D01*
X51743749Y-37683478D01*
X51646383Y-37672287D01*
X51646383Y-37892420D01*
G37*
X51646383Y-37892420D02*
X51740769Y-37903514D01*
X51856859Y-37929656D01*
X51950320Y-37979505D01*
X52024928Y-38055563D01*
X52063502Y-38117217D01*
X52073715Y-38139699D01*
X52081644Y-38167181D01*
X52087658Y-38204269D01*
X52092125Y-38255569D01*
X52095415Y-38325686D01*
X52097897Y-38419227D01*
X52099939Y-38540796D01*
X52100457Y-38578650D01*
X52105798Y-38980816D01*
X52340649Y-38980816D01*
X52340649Y-37693883D01*
X52120516Y-37693883D01*
X52120516Y-37904799D01*
X52069371Y-37842751D01*
X51999928Y-37780372D01*
X51907817Y-37729066D01*
X51803729Y-37694062D01*
X51743749Y-37683478D01*
X51646383Y-37672287D01*
X51646383Y-37892420D01*
G36*
X49830416Y-37702350D02*
G01*
X49654416Y-38184950D01*
X49610008Y-38306696D01*
X49569086Y-38418839D01*
X49533164Y-38517235D01*
X49503755Y-38597742D01*
X49482371Y-38656217D01*
X49470527Y-38688516D01*
X49468885Y-38692950D01*
X49460877Y-38683996D01*
X49442592Y-38646789D01*
X49415498Y-38584844D01*
X49381061Y-38501673D01*
X49340748Y-38400790D01*
X49296028Y-38285706D01*
X49267330Y-38210350D01*
X49075307Y-37702350D01*
X48866889Y-37702350D01*
X48682319Y-38199989D01*
X48636759Y-38322476D01*
X48594862Y-38434443D01*
X48558095Y-38532021D01*
X48527926Y-38611343D01*
X48505821Y-38668538D01*
X48493249Y-38699738D01*
X48491008Y-38704369D01*
X48483516Y-38691137D01*
X48466088Y-38650364D01*
X48440413Y-38586317D01*
X48408181Y-38503265D01*
X48371080Y-38405475D01*
X48344301Y-38333730D01*
X48301405Y-38218227D01*
X48259263Y-38105035D01*
X48220352Y-38000786D01*
X48187149Y-37912112D01*
X48162131Y-37845646D01*
X48154343Y-37825117D01*
X48104352Y-37693883D01*
X48004234Y-37693883D01*
X47951159Y-37695832D01*
X47914993Y-37700891D01*
X47904460Y-37706583D01*
X47910281Y-37724732D01*
X47926738Y-37771117D01*
X47952560Y-37842270D01*
X47986471Y-37934724D01*
X48027200Y-38045011D01*
X48073472Y-38169664D01*
X48124015Y-38305215D01*
X48139195Y-38345817D01*
X48373586Y-38972350D01*
X48604713Y-38972350D01*
X48783581Y-38503448D01*
X48829077Y-38384700D01*
X48870948Y-38276398D01*
X48907619Y-38182542D01*
X48937514Y-38107130D01*
X48959056Y-38054160D01*
X48970671Y-38027630D01*
X48972006Y-38025403D01*
X48980184Y-38038273D01*
X48998782Y-38079078D01*
X49026260Y-38144074D01*
X49061077Y-38229510D01*
X49101693Y-38331642D01*
X49146566Y-38446720D01*
X49166514Y-38498538D01*
X49351467Y-38980816D01*
X49576620Y-38980816D01*
X49763893Y-38477050D01*
X49812638Y-38345872D01*
X49860086Y-38218087D01*
X49904267Y-38099003D01*
X49943213Y-37993929D01*
X49974957Y-37908174D01*
X49997530Y-37847046D01*
X50002767Y-37832813D01*
X50054366Y-37692342D01*
X49830416Y-37702350D01*
G37*
X49830416Y-37702350D02*
X49654416Y-38184950D01*
X49610008Y-38306696D01*
X49569086Y-38418839D01*
X49533164Y-38517235D01*
X49503755Y-38597742D01*
X49482371Y-38656217D01*
X49470527Y-38688516D01*
X49468885Y-38692950D01*
X49460877Y-38683996D01*
X49442592Y-38646789D01*
X49415498Y-38584844D01*
X49381061Y-38501673D01*
X49340748Y-38400790D01*
X49296028Y-38285706D01*
X49267330Y-38210350D01*
X49075307Y-37702350D01*
X48866889Y-37702350D01*
X48682319Y-38199989D01*
X48636759Y-38322476D01*
X48594862Y-38434443D01*
X48558095Y-38532021D01*
X48527926Y-38611343D01*
X48505821Y-38668538D01*
X48493249Y-38699738D01*
X48491008Y-38704369D01*
X48483516Y-38691137D01*
X48466088Y-38650364D01*
X48440413Y-38586317D01*
X48408181Y-38503265D01*
X48371080Y-38405475D01*
X48344301Y-38333730D01*
X48301405Y-38218227D01*
X48259263Y-38105035D01*
X48220352Y-38000786D01*
X48187149Y-37912112D01*
X48162131Y-37845646D01*
X48154343Y-37825117D01*
X48104352Y-37693883D01*
X48004234Y-37693883D01*
X47951159Y-37695832D01*
X47914993Y-37700891D01*
X47904460Y-37706583D01*
X47910281Y-37724732D01*
X47926738Y-37771117D01*
X47952560Y-37842270D01*
X47986471Y-37934724D01*
X48027200Y-38045011D01*
X48073472Y-38169664D01*
X48124015Y-38305215D01*
X48139195Y-38345817D01*
X48373586Y-38972350D01*
X48604713Y-38972350D01*
X48783581Y-38503448D01*
X48829077Y-38384700D01*
X48870948Y-38276398D01*
X48907619Y-38182542D01*
X48937514Y-38107130D01*
X48959056Y-38054160D01*
X48970671Y-38027630D01*
X48972006Y-38025403D01*
X48980184Y-38038273D01*
X48998782Y-38079078D01*
X49026260Y-38144074D01*
X49061077Y-38229510D01*
X49101693Y-38331642D01*
X49146566Y-38446720D01*
X49166514Y-38498538D01*
X49351467Y-38980816D01*
X49576620Y-38980816D01*
X49763893Y-38477050D01*
X49812638Y-38345872D01*
X49860086Y-38218087D01*
X49904267Y-38099003D01*
X49943213Y-37993929D01*
X49974957Y-37908174D01*
X49997530Y-37847046D01*
X50002767Y-37832813D01*
X50054366Y-37692342D01*
X49830416Y-37702350D01*
G36*
X65336983Y-33787065D02*
G01*
X65197658Y-33795383D01*
X65082137Y-33810576D01*
X64980687Y-33834812D01*
X64883574Y-33870258D01*
X64809824Y-33904460D01*
X64757624Y-33930812D01*
X64726160Y-33952160D01*
X64713726Y-33976211D01*
X64718613Y-34010674D01*
X64739115Y-34063255D01*
X64762740Y-34117008D01*
X64801977Y-34206199D01*
X64900146Y-34155079D01*
X65060940Y-34089152D01*
X65234515Y-34049997D01*
X65410308Y-34039855D01*
X65437961Y-34041076D01*
X65567440Y-34054834D01*
X65670190Y-34080289D01*
X65751901Y-34119335D01*
X65809025Y-34164590D01*
X65870209Y-34243642D01*
X65899230Y-34327984D01*
X65896056Y-34413489D01*
X65860656Y-34496029D01*
X65811967Y-34554442D01*
X65779634Y-34582080D01*
X65741084Y-34607292D01*
X65692161Y-34631653D01*
X65628710Y-34656734D01*
X65546578Y-34684110D01*
X65441608Y-34715353D01*
X65309647Y-34752038D01*
X65241847Y-34770339D01*
X65086889Y-34815881D01*
X64961429Y-34862364D01*
X64861138Y-34912287D01*
X64781684Y-34968152D01*
X64718736Y-35032457D01*
X64673249Y-35098532D01*
X64651168Y-35139003D01*
X64637220Y-35175817D01*
X64629567Y-35218666D01*
X64626370Y-35277238D01*
X64625783Y-35348616D01*
X64626609Y-35428924D01*
X64630380Y-35485475D01*
X64639034Y-35528362D01*
X64654508Y-35567681D01*
X64675534Y-35607757D01*
X64755089Y-35717128D01*
X64860804Y-35808071D01*
X64988989Y-35878159D01*
X65135954Y-35924962D01*
X65166936Y-35931252D01*
X65251712Y-35941611D01*
X65357770Y-35946811D01*
X65473556Y-35947013D01*
X65587519Y-35942378D01*
X65688108Y-35933069D01*
X65747762Y-35923129D01*
X65835612Y-35899815D01*
X65927233Y-35868559D01*
X66016893Y-35832142D01*
X66098859Y-35793347D01*
X66167399Y-35754955D01*
X66216781Y-35719749D01*
X66241272Y-35690509D01*
X66242916Y-35682838D01*
X66235681Y-35657269D01*
X66216772Y-35611904D01*
X66192073Y-35560198D01*
X66141230Y-35459478D01*
X66041404Y-35523998D01*
X65923117Y-35588206D01*
X65793669Y-35637246D01*
X65657942Y-35671123D01*
X65520813Y-35689847D01*
X65387162Y-35693425D01*
X65261869Y-35681863D01*
X65149813Y-35655171D01*
X65055873Y-35613354D01*
X64984929Y-35556421D01*
X64959632Y-35522333D01*
X64919019Y-35429297D01*
X64910963Y-35341045D01*
X64935315Y-35259637D01*
X64983163Y-35195565D01*
X65019128Y-35163331D01*
X65060354Y-35135280D01*
X65111872Y-35109352D01*
X65178713Y-35083491D01*
X65265907Y-35055639D01*
X65378484Y-35023737D01*
X65450493Y-35004396D01*
X65587803Y-34967133D01*
X65697356Y-34935198D01*
X65784476Y-34906657D01*
X65854485Y-34879577D01*
X65912706Y-34852022D01*
X65964461Y-34822059D01*
X65980017Y-34811984D01*
X66073376Y-34735176D01*
X66138790Y-34645131D01*
X66178268Y-34537811D01*
X66193817Y-34409176D01*
X66194233Y-34381138D01*
X66179604Y-34243083D01*
X66135587Y-34121653D01*
X66061983Y-34016537D01*
X65958594Y-33927428D01*
X65869909Y-33875176D01*
X65770401Y-33832617D01*
X65664552Y-33804313D01*
X65544734Y-33789002D01*
X65403317Y-33785422D01*
X65336983Y-33787065D01*
G37*
X65336983Y-33787065D02*
X65197658Y-33795383D01*
X65082137Y-33810576D01*
X64980687Y-33834812D01*
X64883574Y-33870258D01*
X64809824Y-33904460D01*
X64757624Y-33930812D01*
X64726160Y-33952160D01*
X64713726Y-33976211D01*
X64718613Y-34010674D01*
X64739115Y-34063255D01*
X64762740Y-34117008D01*
X64801977Y-34206199D01*
X64900146Y-34155079D01*
X65060940Y-34089152D01*
X65234515Y-34049997D01*
X65410308Y-34039855D01*
X65437961Y-34041076D01*
X65567440Y-34054834D01*
X65670190Y-34080289D01*
X65751901Y-34119335D01*
X65809025Y-34164590D01*
X65870209Y-34243642D01*
X65899230Y-34327984D01*
X65896056Y-34413489D01*
X65860656Y-34496029D01*
X65811967Y-34554442D01*
X65779634Y-34582080D01*
X65741084Y-34607292D01*
X65692161Y-34631653D01*
X65628710Y-34656734D01*
X65546578Y-34684110D01*
X65441608Y-34715353D01*
X65309647Y-34752038D01*
X65241847Y-34770339D01*
X65086889Y-34815881D01*
X64961429Y-34862364D01*
X64861138Y-34912287D01*
X64781684Y-34968152D01*
X64718736Y-35032457D01*
X64673249Y-35098532D01*
X64651168Y-35139003D01*
X64637220Y-35175817D01*
X64629567Y-35218666D01*
X64626370Y-35277238D01*
X64625783Y-35348616D01*
X64626609Y-35428924D01*
X64630380Y-35485475D01*
X64639034Y-35528362D01*
X64654508Y-35567681D01*
X64675534Y-35607757D01*
X64755089Y-35717128D01*
X64860804Y-35808071D01*
X64988989Y-35878159D01*
X65135954Y-35924962D01*
X65166936Y-35931252D01*
X65251712Y-35941611D01*
X65357770Y-35946811D01*
X65473556Y-35947013D01*
X65587519Y-35942378D01*
X65688108Y-35933069D01*
X65747762Y-35923129D01*
X65835612Y-35899815D01*
X65927233Y-35868559D01*
X66016893Y-35832142D01*
X66098859Y-35793347D01*
X66167399Y-35754955D01*
X66216781Y-35719749D01*
X66241272Y-35690509D01*
X66242916Y-35682838D01*
X66235681Y-35657269D01*
X66216772Y-35611904D01*
X66192073Y-35560198D01*
X66141230Y-35459478D01*
X66041404Y-35523998D01*
X65923117Y-35588206D01*
X65793669Y-35637246D01*
X65657942Y-35671123D01*
X65520813Y-35689847D01*
X65387162Y-35693425D01*
X65261869Y-35681863D01*
X65149813Y-35655171D01*
X65055873Y-35613354D01*
X64984929Y-35556421D01*
X64959632Y-35522333D01*
X64919019Y-35429297D01*
X64910963Y-35341045D01*
X64935315Y-35259637D01*
X64983163Y-35195565D01*
X65019128Y-35163331D01*
X65060354Y-35135280D01*
X65111872Y-35109352D01*
X65178713Y-35083491D01*
X65265907Y-35055639D01*
X65378484Y-35023737D01*
X65450493Y-35004396D01*
X65587803Y-34967133D01*
X65697356Y-34935198D01*
X65784476Y-34906657D01*
X65854485Y-34879577D01*
X65912706Y-34852022D01*
X65964461Y-34822059D01*
X65980017Y-34811984D01*
X66073376Y-34735176D01*
X66138790Y-34645131D01*
X66178268Y-34537811D01*
X66193817Y-34409176D01*
X66194233Y-34381138D01*
X66179604Y-34243083D01*
X66135587Y-34121653D01*
X66061983Y-34016537D01*
X65958594Y-33927428D01*
X65869909Y-33875176D01*
X65770401Y-33832617D01*
X65664552Y-33804313D01*
X65544734Y-33789002D01*
X65403317Y-33785422D01*
X65336983Y-33787065D01*
G36*
X60756516Y-34004081D02*
G01*
X61034465Y-34346149D01*
X61118747Y-34450219D01*
X61183451Y-34531199D01*
X61230615Y-34592067D01*
X61262279Y-34635804D01*
X61280482Y-34665388D01*
X61287262Y-34683798D01*
X61284659Y-34694015D01*
X61275765Y-34698729D01*
X61238776Y-34708405D01*
X61183636Y-34721828D01*
X61145983Y-34730630D01*
X61007526Y-34778010D01*
X60890332Y-34850450D01*
X60796493Y-34945637D01*
X60728099Y-35061259D01*
X60687243Y-35195004D01*
X60679784Y-35246151D01*
X60680768Y-35386636D01*
X60713079Y-35518647D01*
X60774602Y-35639035D01*
X60863219Y-35744651D01*
X60976813Y-35832347D01*
X61113267Y-35898976D01*
X61120583Y-35901673D01*
X61194558Y-35920666D01*
X61292534Y-35934697D01*
X61404961Y-35943418D01*
X61522289Y-35946483D01*
X61634969Y-35943545D01*
X61733449Y-35934256D01*
X61780983Y-35925666D01*
X61941507Y-35878491D01*
X62089227Y-35814643D01*
X62214922Y-35738239D01*
X62235457Y-35722719D01*
X62249824Y-35708899D01*
X62253650Y-35692498D01*
X62244988Y-35666394D01*
X62221889Y-35623467D01*
X62196523Y-35580326D01*
X62126449Y-35462374D01*
X62029916Y-35526734D01*
X61912340Y-35593718D01*
X61789477Y-35639132D01*
X61652035Y-35665753D01*
X61533283Y-35675076D01*
X61403455Y-35675776D01*
X61299501Y-35664872D01*
X61214889Y-35640612D01*
X61143091Y-35601241D01*
X61088203Y-35555495D01*
X61021990Y-35470701D01*
X60985604Y-35376345D01*
X60979146Y-35278165D01*
X61002716Y-35181900D01*
X61056416Y-35093289D01*
X61079662Y-35067804D01*
X61140813Y-35018485D01*
X61215038Y-34982409D01*
X61308155Y-34957736D01*
X61425984Y-34942627D01*
X61488883Y-34938444D01*
X61670916Y-34928954D01*
X61670916Y-34713810D01*
X61411079Y-34396213D01*
X61151243Y-34078617D01*
X62161983Y-34069653D01*
X62161983Y-33799216D01*
X60756516Y-33799216D01*
X60756516Y-34004081D01*
G37*
X60756516Y-34004081D02*
X61034465Y-34346149D01*
X61118747Y-34450219D01*
X61183451Y-34531199D01*
X61230615Y-34592067D01*
X61262279Y-34635804D01*
X61280482Y-34665388D01*
X61287262Y-34683798D01*
X61284659Y-34694015D01*
X61275765Y-34698729D01*
X61238776Y-34708405D01*
X61183636Y-34721828D01*
X61145983Y-34730630D01*
X61007526Y-34778010D01*
X60890332Y-34850450D01*
X60796493Y-34945637D01*
X60728099Y-35061259D01*
X60687243Y-35195004D01*
X60679784Y-35246151D01*
X60680768Y-35386636D01*
X60713079Y-35518647D01*
X60774602Y-35639035D01*
X60863219Y-35744651D01*
X60976813Y-35832347D01*
X61113267Y-35898976D01*
X61120583Y-35901673D01*
X61194558Y-35920666D01*
X61292534Y-35934697D01*
X61404961Y-35943418D01*
X61522289Y-35946483D01*
X61634969Y-35943545D01*
X61733449Y-35934256D01*
X61780983Y-35925666D01*
X61941507Y-35878491D01*
X62089227Y-35814643D01*
X62214922Y-35738239D01*
X62235457Y-35722719D01*
X62249824Y-35708899D01*
X62253650Y-35692498D01*
X62244988Y-35666394D01*
X62221889Y-35623467D01*
X62196523Y-35580326D01*
X62126449Y-35462374D01*
X62029916Y-35526734D01*
X61912340Y-35593718D01*
X61789477Y-35639132D01*
X61652035Y-35665753D01*
X61533283Y-35675076D01*
X61403455Y-35675776D01*
X61299501Y-35664872D01*
X61214889Y-35640612D01*
X61143091Y-35601241D01*
X61088203Y-35555495D01*
X61021990Y-35470701D01*
X60985604Y-35376345D01*
X60979146Y-35278165D01*
X61002716Y-35181900D01*
X61056416Y-35093289D01*
X61079662Y-35067804D01*
X61140813Y-35018485D01*
X61215038Y-34982409D01*
X61308155Y-34957736D01*
X61425984Y-34942627D01*
X61488883Y-34938444D01*
X61670916Y-34928954D01*
X61670916Y-34713810D01*
X61411079Y-34396213D01*
X61151243Y-34078617D01*
X62161983Y-34069653D01*
X62161983Y-33799216D01*
X60756516Y-33799216D01*
X60756516Y-34004081D01*
G36*
X49066559Y-33791880D02*
G01*
X48985120Y-33794207D01*
X48922073Y-33799212D01*
X48869690Y-33807625D01*
X48820246Y-33820173D01*
X48798077Y-33826986D01*
X48635308Y-33893693D01*
X48484022Y-33984458D01*
X48349660Y-34094804D01*
X48237664Y-34220256D01*
X48153475Y-34356335D01*
X48152654Y-34358017D01*
X48098316Y-34482972D01*
X48063166Y-34599717D01*
X48044188Y-34721659D01*
X48038366Y-34862201D01*
X48038363Y-34866017D01*
X48043899Y-35007187D01*
X48062516Y-35129426D01*
X48097231Y-35246138D01*
X48151060Y-35370730D01*
X48152654Y-35374016D01*
X48235292Y-35508303D01*
X48345562Y-35632959D01*
X48477563Y-35743088D01*
X48625394Y-35833795D01*
X48783153Y-35900184D01*
X48789253Y-35902158D01*
X48855289Y-35917202D01*
X48945402Y-35929512D01*
X49049980Y-35938608D01*
X49159410Y-35944013D01*
X49264080Y-35945248D01*
X49354379Y-35941835D01*
X49419649Y-35933523D01*
X49608031Y-35876638D01*
X49778487Y-35791969D01*
X49928925Y-35681521D01*
X50057254Y-35547300D01*
X50161383Y-35391312D01*
X50239220Y-35215563D01*
X50267853Y-35120017D01*
X50283540Y-35025605D01*
X50289772Y-34911443D01*
X50287028Y-34789198D01*
X50286610Y-34784775D01*
X49984879Y-34784775D01*
X49984196Y-34938112D01*
X49959878Y-35087645D01*
X49913050Y-35224268D01*
X49880366Y-35286874D01*
X49786914Y-35411238D01*
X49668371Y-35518049D01*
X49531007Y-35602544D01*
X49394249Y-35656227D01*
X49318619Y-35669838D01*
X49221391Y-35675209D01*
X49113674Y-35672892D01*
X49006577Y-35663440D01*
X48911209Y-35647402D01*
X48847909Y-35629099D01*
X48716730Y-35561942D01*
X48597026Y-35468526D01*
X48495303Y-35355370D01*
X48418064Y-35228989D01*
X48395260Y-35175602D01*
X48352362Y-35017258D01*
X48339855Y-34858440D01*
X48356049Y-34703148D01*
X48399253Y-34555385D01*
X48467778Y-34419150D01*
X48559933Y-34298445D01*
X48674028Y-34197272D01*
X48808373Y-34119630D01*
X48848311Y-34103063D01*
X48936772Y-34078582D01*
X49045396Y-34062280D01*
X49161288Y-34054975D01*
X49271555Y-34057485D01*
X49362620Y-34070464D01*
X49512758Y-34122051D01*
X49649151Y-34200285D01*
X49767638Y-34301226D01*
X49864061Y-34420937D01*
X49934259Y-34555481D01*
X49960799Y-34636741D01*
X49984879Y-34784775D01*
X50286610Y-34784775D01*
X50275789Y-34670538D01*
X50256532Y-34567130D01*
X50243308Y-34522688D01*
X50163291Y-34341655D01*
X50060257Y-34185319D01*
X49933428Y-34052888D01*
X49782025Y-33943567D01*
X49605269Y-33856563D01*
X49580345Y-33846834D01*
X49523966Y-33825981D01*
X49477376Y-33811230D01*
X49432674Y-33801505D01*
X49381959Y-33795730D01*
X49317328Y-33792828D01*
X49230879Y-33791724D01*
X49174116Y-33791501D01*
X49066559Y-33791880D01*
G37*
X49066559Y-33791880D02*
X48985120Y-33794207D01*
X48922073Y-33799212D01*
X48869690Y-33807625D01*
X48820246Y-33820173D01*
X48798077Y-33826986D01*
X48635308Y-33893693D01*
X48484022Y-33984458D01*
X48349660Y-34094804D01*
X48237664Y-34220256D01*
X48153475Y-34356335D01*
X48152654Y-34358017D01*
X48098316Y-34482972D01*
X48063166Y-34599717D01*
X48044188Y-34721659D01*
X48038366Y-34862201D01*
X48038363Y-34866017D01*
X48043899Y-35007187D01*
X48062516Y-35129426D01*
X48097231Y-35246138D01*
X48151060Y-35370730D01*
X48152654Y-35374016D01*
X48235292Y-35508303D01*
X48345562Y-35632959D01*
X48477563Y-35743088D01*
X48625394Y-35833795D01*
X48783153Y-35900184D01*
X48789253Y-35902158D01*
X48855289Y-35917202D01*
X48945402Y-35929512D01*
X49049980Y-35938608D01*
X49159410Y-35944013D01*
X49264080Y-35945248D01*
X49354379Y-35941835D01*
X49419649Y-35933523D01*
X49608031Y-35876638D01*
X49778487Y-35791969D01*
X49928925Y-35681521D01*
X50057254Y-35547300D01*
X50161383Y-35391312D01*
X50239220Y-35215563D01*
X50267853Y-35120017D01*
X50283540Y-35025605D01*
X50289772Y-34911443D01*
X50287028Y-34789198D01*
X50286610Y-34784775D01*
X49984879Y-34784775D01*
X49984196Y-34938112D01*
X49959878Y-35087645D01*
X49913050Y-35224268D01*
X49880366Y-35286874D01*
X49786914Y-35411238D01*
X49668371Y-35518049D01*
X49531007Y-35602544D01*
X49394249Y-35656227D01*
X49318619Y-35669838D01*
X49221391Y-35675209D01*
X49113674Y-35672892D01*
X49006577Y-35663440D01*
X48911209Y-35647402D01*
X48847909Y-35629099D01*
X48716730Y-35561942D01*
X48597026Y-35468526D01*
X48495303Y-35355370D01*
X48418064Y-35228989D01*
X48395260Y-35175602D01*
X48352362Y-35017258D01*
X48339855Y-34858440D01*
X48356049Y-34703148D01*
X48399253Y-34555385D01*
X48467778Y-34419150D01*
X48559933Y-34298445D01*
X48674028Y-34197272D01*
X48808373Y-34119630D01*
X48848311Y-34103063D01*
X48936772Y-34078582D01*
X49045396Y-34062280D01*
X49161288Y-34054975D01*
X49271555Y-34057485D01*
X49362620Y-34070464D01*
X49512758Y-34122051D01*
X49649151Y-34200285D01*
X49767638Y-34301226D01*
X49864061Y-34420937D01*
X49934259Y-34555481D01*
X49960799Y-34636741D01*
X49984879Y-34784775D01*
X50286610Y-34784775D01*
X50275789Y-34670538D01*
X50256532Y-34567130D01*
X50243308Y-34522688D01*
X50163291Y-34341655D01*
X50060257Y-34185319D01*
X49933428Y-34052888D01*
X49782025Y-33943567D01*
X49605269Y-33856563D01*
X49580345Y-33846834D01*
X49523966Y-33825981D01*
X49477376Y-33811230D01*
X49432674Y-33801505D01*
X49381959Y-33795730D01*
X49317328Y-33792828D01*
X49230879Y-33791724D01*
X49174116Y-33791501D01*
X49066559Y-33791880D01*
G36*
X66581583Y-34070150D02*
G01*
X67783849Y-34070150D01*
X67783849Y-34713617D01*
X66717049Y-34713617D01*
X66717049Y-34984550D01*
X67783849Y-34984550D01*
X67783849Y-35661883D01*
X66547716Y-35661883D01*
X66547716Y-35932816D01*
X68088649Y-35932816D01*
X68088649Y-33799216D01*
X66581583Y-33799216D01*
X66581583Y-34070150D01*
G37*
X66581583Y-34070150D02*
X67783849Y-34070150D01*
X67783849Y-34713617D01*
X66717049Y-34713617D01*
X66717049Y-34984550D01*
X67783849Y-34984550D01*
X67783849Y-35661883D01*
X66547716Y-35661883D01*
X66547716Y-35932816D01*
X68088649Y-35932816D01*
X68088649Y-33799216D01*
X66581583Y-33799216D01*
X66581583Y-34070150D01*
G36*
X63512236Y-33800390D02*
G01*
X63352266Y-33804380D01*
X63217935Y-33811887D01*
X63105162Y-33823614D01*
X63009866Y-33840261D01*
X62927967Y-33862531D01*
X62855383Y-33891125D01*
X62788034Y-33926745D01*
X62726245Y-33966986D01*
X62614034Y-34062982D01*
X62531445Y-34173781D01*
X62476690Y-34302382D01*
X62450557Y-34429042D01*
X62444686Y-34595251D01*
X62469376Y-34748267D01*
X62523233Y-34886121D01*
X62604866Y-35006843D01*
X62712882Y-35108461D01*
X62845888Y-35189008D01*
X63002492Y-35246511D01*
X63034049Y-35254492D01*
X63076368Y-35260926D01*
X63146082Y-35267440D01*
X63236726Y-35273610D01*
X63341832Y-35279014D01*
X63454935Y-35283228D01*
X63487016Y-35284133D01*
X63855316Y-35293770D01*
X63855316Y-35932816D01*
X64160116Y-35932816D01*
X64160116Y-35021279D01*
X63855316Y-35021279D01*
X63487016Y-35014964D01*
X63360557Y-35012408D01*
X63262894Y-35009342D01*
X63188957Y-35005333D01*
X63133675Y-34999950D01*
X63091978Y-34992760D01*
X63058795Y-34983333D01*
X63042516Y-34977112D01*
X62927605Y-34914131D01*
X62840744Y-34832374D01*
X62782412Y-34732736D01*
X62753092Y-34616112D01*
X62753264Y-34483397D01*
X62757997Y-34447646D01*
X62789573Y-34335644D01*
X62847207Y-34242813D01*
X62932838Y-34166743D01*
X63025456Y-34115113D01*
X63053752Y-34103494D01*
X63084774Y-34094566D01*
X63123585Y-34087865D01*
X63175252Y-34082930D01*
X63244840Y-34079296D01*
X63337414Y-34076503D01*
X63458041Y-34074086D01*
X63478549Y-34073733D01*
X63855316Y-34067333D01*
X63855316Y-35021279D01*
X64160116Y-35021279D01*
X64160116Y-33799216D01*
X63701926Y-33799216D01*
X63512236Y-33800390D01*
G37*
X63512236Y-33800390D02*
X63352266Y-33804380D01*
X63217935Y-33811887D01*
X63105162Y-33823614D01*
X63009866Y-33840261D01*
X62927967Y-33862531D01*
X62855383Y-33891125D01*
X62788034Y-33926745D01*
X62726245Y-33966986D01*
X62614034Y-34062982D01*
X62531445Y-34173781D01*
X62476690Y-34302382D01*
X62450557Y-34429042D01*
X62444686Y-34595251D01*
X62469376Y-34748267D01*
X62523233Y-34886121D01*
X62604866Y-35006843D01*
X62712882Y-35108461D01*
X62845888Y-35189008D01*
X63002492Y-35246511D01*
X63034049Y-35254492D01*
X63076368Y-35260926D01*
X63146082Y-35267440D01*
X63236726Y-35273610D01*
X63341832Y-35279014D01*
X63454935Y-35283228D01*
X63487016Y-35284133D01*
X63855316Y-35293770D01*
X63855316Y-35932816D01*
X64160116Y-35932816D01*
X64160116Y-35021279D01*
X63855316Y-35021279D01*
X63487016Y-35014964D01*
X63360557Y-35012408D01*
X63262894Y-35009342D01*
X63188957Y-35005333D01*
X63133675Y-34999950D01*
X63091978Y-34992760D01*
X63058795Y-34983333D01*
X63042516Y-34977112D01*
X62927605Y-34914131D01*
X62840744Y-34832374D01*
X62782412Y-34732736D01*
X62753092Y-34616112D01*
X62753264Y-34483397D01*
X62757997Y-34447646D01*
X62789573Y-34335644D01*
X62847207Y-34242813D01*
X62932838Y-34166743D01*
X63025456Y-34115113D01*
X63053752Y-34103494D01*
X63084774Y-34094566D01*
X63123585Y-34087865D01*
X63175252Y-34082930D01*
X63244840Y-34079296D01*
X63337414Y-34076503D01*
X63458041Y-34074086D01*
X63478549Y-34073733D01*
X63855316Y-34067333D01*
X63855316Y-35021279D01*
X64160116Y-35021279D01*
X64160116Y-33799216D01*
X63701926Y-33799216D01*
X63512236Y-33800390D01*
G36*
X59538460Y-33793821D02*
G01*
X59385335Y-33827574D01*
X59256685Y-33884028D01*
X59151930Y-33963471D01*
X59070490Y-34066186D01*
X59044425Y-34113622D01*
X59017065Y-34173108D01*
X59000746Y-34223017D01*
X58992661Y-34276598D01*
X58990005Y-34347099D01*
X58989853Y-34371253D01*
X58996186Y-34492589D01*
X59018593Y-34596800D01*
X59061036Y-34697414D01*
X59109955Y-34781087D01*
X59131031Y-34811952D01*
X59157597Y-34846355D01*
X59191947Y-34886676D01*
X59236377Y-34935299D01*
X59293179Y-34994605D01*
X59364649Y-35066977D01*
X59453082Y-35154796D01*
X59560771Y-35260446D01*
X59690011Y-35386307D01*
X59734488Y-35429488D01*
X59973994Y-35661883D01*
X58893850Y-35661883D01*
X58893850Y-35932816D01*
X60417849Y-35932816D01*
X60417849Y-35718302D01*
X60093133Y-35406459D01*
X59942578Y-35261663D01*
X59814623Y-35138047D01*
X59707265Y-35033519D01*
X59618497Y-34945990D01*
X59546314Y-34873370D01*
X59488709Y-34813569D01*
X59443678Y-34764498D01*
X59409215Y-34724066D01*
X59383313Y-34690183D01*
X59363969Y-34660760D01*
X59349175Y-34633706D01*
X59346720Y-34628676D01*
X59301211Y-34505802D01*
X59287598Y-34393552D01*
X59305851Y-34292225D01*
X59355941Y-34202119D01*
X59392596Y-34161675D01*
X59452709Y-34113520D01*
X59520119Y-34081004D01*
X59602394Y-34061862D01*
X59707104Y-34053828D01*
X59754973Y-34053217D01*
X59908844Y-34065861D01*
X60044480Y-34104830D01*
X60166741Y-34171675D01*
X60198272Y-34194846D01*
X60296381Y-34271035D01*
X60393857Y-34182451D01*
X60491333Y-34093866D01*
X60418578Y-34023957D01*
X60297535Y-33930486D01*
X60153091Y-33858748D01*
X59988795Y-33809963D01*
X59808192Y-33785353D01*
X59716641Y-33782484D01*
X59538460Y-33793821D01*
G37*
X59538460Y-33793821D02*
X59385335Y-33827574D01*
X59256685Y-33884028D01*
X59151930Y-33963471D01*
X59070490Y-34066186D01*
X59044425Y-34113622D01*
X59017065Y-34173108D01*
X59000746Y-34223017D01*
X58992661Y-34276598D01*
X58990005Y-34347099D01*
X58989853Y-34371253D01*
X58996186Y-34492589D01*
X59018593Y-34596800D01*
X59061036Y-34697414D01*
X59109955Y-34781087D01*
X59131031Y-34811952D01*
X59157597Y-34846355D01*
X59191947Y-34886676D01*
X59236377Y-34935299D01*
X59293179Y-34994605D01*
X59364649Y-35066977D01*
X59453082Y-35154796D01*
X59560771Y-35260446D01*
X59690011Y-35386307D01*
X59734488Y-35429488D01*
X59973994Y-35661883D01*
X58893850Y-35661883D01*
X58893850Y-35932816D01*
X60417849Y-35932816D01*
X60417849Y-35718302D01*
X60093133Y-35406459D01*
X59942578Y-35261663D01*
X59814623Y-35138047D01*
X59707265Y-35033519D01*
X59618497Y-34945990D01*
X59546314Y-34873370D01*
X59488709Y-34813569D01*
X59443678Y-34764498D01*
X59409215Y-34724066D01*
X59383313Y-34690183D01*
X59363969Y-34660760D01*
X59349175Y-34633706D01*
X59346720Y-34628676D01*
X59301211Y-34505802D01*
X59287598Y-34393552D01*
X59305851Y-34292225D01*
X59355941Y-34202119D01*
X59392596Y-34161675D01*
X59452709Y-34113520D01*
X59520119Y-34081004D01*
X59602394Y-34061862D01*
X59707104Y-34053828D01*
X59754973Y-34053217D01*
X59908844Y-34065861D01*
X60044480Y-34104830D01*
X60166741Y-34171675D01*
X60198272Y-34194846D01*
X60296381Y-34271035D01*
X60393857Y-34182451D01*
X60491333Y-34093866D01*
X60418578Y-34023957D01*
X60297535Y-33930486D01*
X60153091Y-33858748D01*
X59988795Y-33809963D01*
X59808192Y-33785353D01*
X59716641Y-33782484D01*
X59538460Y-33793821D01*
G36*
X55786583Y-35375300D02*
G01*
X55777781Y-33799216D01*
X55473316Y-33799216D01*
X55473316Y-35932816D01*
X55719653Y-35932816D01*
X56354251Y-35143100D01*
X56988850Y-34353384D01*
X56993250Y-35143100D01*
X56997651Y-35932816D01*
X57302116Y-35932816D01*
X57302116Y-33799216D01*
X57053017Y-33799216D01*
X55786583Y-35375300D01*
G37*
X55786583Y-35375300D02*
X55777781Y-33799216D01*
X55473316Y-33799216D01*
X55473316Y-35932816D01*
X55719653Y-35932816D01*
X56354251Y-35143100D01*
X56988850Y-34353384D01*
X56993250Y-35143100D01*
X56997651Y-35932816D01*
X57302116Y-35932816D01*
X57302116Y-33799216D01*
X57053017Y-33799216D01*
X55786583Y-35375300D01*
G36*
X53458199Y-34742653D02*
G01*
X53380069Y-34914594D01*
X53304674Y-35080511D01*
X53233431Y-35237286D01*
X53167754Y-35381806D01*
X53109061Y-35510952D01*
X53058768Y-35621611D01*
X53018289Y-35710666D01*
X52989042Y-35775001D01*
X52972824Y-35810661D01*
X52916681Y-35934039D01*
X53078245Y-35929195D01*
X53239809Y-35924350D01*
X53352463Y-35670350D01*
X53391314Y-35584338D01*
X53426533Y-35509315D01*
X53455445Y-35450751D01*
X53475378Y-35414115D01*
X53482396Y-35404548D01*
X53504357Y-35400855D01*
X53555136Y-35397794D01*
X53629690Y-35395359D01*
X53722976Y-35393546D01*
X53829952Y-35392351D01*
X53945574Y-35391767D01*
X54064800Y-35391792D01*
X54182586Y-35392419D01*
X54293890Y-35393645D01*
X54393670Y-35395463D01*
X54476882Y-35397871D01*
X54538483Y-35400862D01*
X54573431Y-35404433D01*
X54577876Y-35405582D01*
X54596764Y-35418679D01*
X54618271Y-35446606D01*
X54644649Y-35493430D01*
X54678154Y-35563212D01*
X54721038Y-35660017D01*
X54728249Y-35676725D01*
X54838316Y-35932398D01*
X54994949Y-35932607D01*
X55063045Y-35932274D01*
X55116129Y-35931208D01*
X55146760Y-35929599D01*
X55151348Y-35928583D01*
X55144507Y-35912851D01*
X55124818Y-35868779D01*
X55093411Y-35798871D01*
X55051417Y-35705635D01*
X54999968Y-35591576D01*
X54940194Y-35459200D01*
X54873226Y-35311014D01*
X54800194Y-35149523D01*
X54793610Y-35134973D01*
X54484817Y-35134973D01*
X54476595Y-35141259D01*
X54456219Y-35145993D01*
X54420119Y-35149389D01*
X54364721Y-35151662D01*
X54286452Y-35153025D01*
X54181740Y-35153694D01*
X54047012Y-35153882D01*
X54035199Y-35153883D01*
X53898599Y-35153770D01*
X53792274Y-35153270D01*
X53712631Y-35152143D01*
X53656078Y-35150151D01*
X53619025Y-35147054D01*
X53597877Y-35142611D01*
X53589045Y-35136584D01*
X53588936Y-35128733D01*
X53590924Y-35124250D01*
X53601367Y-35101745D01*
X53623559Y-35052281D01*
X53655695Y-34979938D01*
X53695971Y-34888793D01*
X53742582Y-34782925D01*
X53793723Y-34666411D01*
X53813842Y-34620483D01*
X53865916Y-34501967D01*
X53913952Y-34393448D01*
X53956196Y-34298825D01*
X53990895Y-34221997D01*
X54016294Y-34166863D01*
X54030640Y-34137321D01*
X54032895Y-34133540D01*
X54041400Y-34146060D01*
X54061551Y-34185263D01*
X54091383Y-34246819D01*
X54128926Y-34326400D01*
X54172214Y-34419679D01*
X54219278Y-34522327D01*
X54268153Y-34630017D01*
X54316870Y-34738419D01*
X54363461Y-34843207D01*
X54405960Y-34940051D01*
X54442399Y-35024625D01*
X54470810Y-35092599D01*
X54484460Y-35126920D01*
X54484817Y-35134973D01*
X54793610Y-35134973D01*
X54722230Y-34977234D01*
X54671878Y-34866017D01*
X54192642Y-33807683D01*
X53887430Y-33798023D01*
X53458199Y-34742653D01*
G37*
X53458199Y-34742653D02*
X53380069Y-34914594D01*
X53304674Y-35080511D01*
X53233431Y-35237286D01*
X53167754Y-35381806D01*
X53109061Y-35510952D01*
X53058768Y-35621611D01*
X53018289Y-35710666D01*
X52989042Y-35775001D01*
X52972824Y-35810661D01*
X52916681Y-35934039D01*
X53078245Y-35929195D01*
X53239809Y-35924350D01*
X53352463Y-35670350D01*
X53391314Y-35584338D01*
X53426533Y-35509315D01*
X53455445Y-35450751D01*
X53475378Y-35414115D01*
X53482396Y-35404548D01*
X53504357Y-35400855D01*
X53555136Y-35397794D01*
X53629690Y-35395359D01*
X53722976Y-35393546D01*
X53829952Y-35392351D01*
X53945574Y-35391767D01*
X54064800Y-35391792D01*
X54182586Y-35392419D01*
X54293890Y-35393645D01*
X54393670Y-35395463D01*
X54476882Y-35397871D01*
X54538483Y-35400862D01*
X54573431Y-35404433D01*
X54577876Y-35405582D01*
X54596764Y-35418679D01*
X54618271Y-35446606D01*
X54644649Y-35493430D01*
X54678154Y-35563212D01*
X54721038Y-35660017D01*
X54728249Y-35676725D01*
X54838316Y-35932398D01*
X54994949Y-35932607D01*
X55063045Y-35932274D01*
X55116129Y-35931208D01*
X55146760Y-35929599D01*
X55151348Y-35928583D01*
X55144507Y-35912851D01*
X55124818Y-35868779D01*
X55093411Y-35798871D01*
X55051417Y-35705635D01*
X54999968Y-35591576D01*
X54940194Y-35459200D01*
X54873226Y-35311014D01*
X54800194Y-35149523D01*
X54793610Y-35134973D01*
X54484817Y-35134973D01*
X54476595Y-35141259D01*
X54456219Y-35145993D01*
X54420119Y-35149389D01*
X54364721Y-35151662D01*
X54286452Y-35153025D01*
X54181740Y-35153694D01*
X54047012Y-35153882D01*
X54035199Y-35153883D01*
X53898599Y-35153770D01*
X53792274Y-35153270D01*
X53712631Y-35152143D01*
X53656078Y-35150151D01*
X53619025Y-35147054D01*
X53597877Y-35142611D01*
X53589045Y-35136584D01*
X53588936Y-35128733D01*
X53590924Y-35124250D01*
X53601367Y-35101745D01*
X53623559Y-35052281D01*
X53655695Y-34979938D01*
X53695971Y-34888793D01*
X53742582Y-34782925D01*
X53793723Y-34666411D01*
X53813842Y-34620483D01*
X53865916Y-34501967D01*
X53913952Y-34393448D01*
X53956196Y-34298825D01*
X53990895Y-34221997D01*
X54016294Y-34166863D01*
X54030640Y-34137321D01*
X54032895Y-34133540D01*
X54041400Y-34146060D01*
X54061551Y-34185263D01*
X54091383Y-34246819D01*
X54128926Y-34326400D01*
X54172214Y-34419679D01*
X54219278Y-34522327D01*
X54268153Y-34630017D01*
X54316870Y-34738419D01*
X54363461Y-34843207D01*
X54405960Y-34940051D01*
X54442399Y-35024625D01*
X54470810Y-35092599D01*
X54484460Y-35126920D01*
X54484817Y-35134973D01*
X54793610Y-35134973D01*
X54722230Y-34977234D01*
X54671878Y-34866017D01*
X54192642Y-33807683D01*
X53887430Y-33798023D01*
X53458199Y-34742653D01*
G36*
X51079116Y-35374972D02*
G01*
X51074715Y-34587094D01*
X51070315Y-33799216D01*
X50765849Y-33799216D01*
X50765849Y-35932816D01*
X51012404Y-35932816D01*
X51646893Y-35143191D01*
X52281383Y-34353566D01*
X52285784Y-35143191D01*
X52290184Y-35932816D01*
X52594649Y-35932816D01*
X52594649Y-33799216D01*
X52346176Y-33799216D01*
X51079116Y-35374972D01*
G37*
X51079116Y-35374972D02*
X51074715Y-34587094D01*
X51070315Y-33799216D01*
X50765849Y-33799216D01*
X50765849Y-35932816D01*
X51012404Y-35932816D01*
X51646893Y-35143191D01*
X52281383Y-34353566D01*
X52285784Y-35143191D01*
X52290184Y-35932816D01*
X52594649Y-35932816D01*
X52594649Y-33799216D01*
X52346176Y-33799216D01*
X51079116Y-35374972D01*
G36*
X57793183Y-35221617D02*
G01*
X58622916Y-35221617D01*
X58622916Y-34967617D01*
X57793183Y-34967617D01*
X57793183Y-35221617D01*
G37*
X57793183Y-35221617D02*
X58622916Y-35221617D01*
X58622916Y-34967617D01*
X57793183Y-34967617D01*
X57793183Y-35221617D01*
%TD*%
M02*
