M48
; DRILL file {KiCad (5.1.10-1-10_14)} date Wednesday, September 29, 2021 at 06:41:43 PM
; FORMAT={-:-/ absolute / metric / decimal}
; #@! TF.CreationDate,2021-09-29T18:41:43+08:00
; #@! TF.GenerationSoftware,Kicad,Pcbnew,(5.1.10-1-10_14)
; #@! TF.FileFunction,Plated,1,2,PTH
FMAT,2
METRIC
T1C0.254
T2C0.600
T3C0.813
%
G90
G05
T1
X31.75Y-36.957
X31.985Y-36.214
X33.782Y-26.289
X35.433Y-30.734
X36.068Y-33.782
X36.096Y-32.738
X39.243Y-35.433
X40.132Y-35.433
X40.64Y-26.289
X42.184Y-34.128
X43.762Y-39.228
X43.762Y-40.228
X43.815Y-32.766
X44.831Y-36.703
X46.762Y-44.228
X47.848Y-36.007
X47.879Y-31.75
X48.28Y-39.716
X48.641Y-37.973
X49.931Y-29.683
X50.82Y-41.494
X52.598Y-36.084
X53.124Y-34.616
X54.102Y-36.703
X54.478Y-35.677
X54.884Y-32.143
X55.481Y-35.931
X55.697Y-30.877
X55.945Y-34.924
X56.642Y-37.592
X56.758Y-39.543
X56.762Y-41.478
X56.942Y-36.515
X57.012Y-32.228
X57.012Y-33.728
X57.813Y-40.739
X58.012Y-37.978
X58.262Y-32.228
X58.262Y-33.728
X58.928Y-40.767
X58.948Y-29.81
X59.685Y-30.826
X59.964Y-35.017
X60.012Y-37.728
X60.012Y-41.978
X60.396Y-33.645
X60.447Y-31.664
X60.726Y-35.144
X60.726Y-40.859
X60.752Y-32.477
X60.763Y-38.478
X61.234Y-28.54
X61.262Y-41.478
X61.488Y-29.81
X61.717Y-32.883
X61.717Y-35.271
X61.742Y-34.382
X61.742Y-36.998
X61.742Y-37.938
X61.742Y-42.51
X61.762Y-38.978
X61.762Y-39.978
X62.25Y-37.435
X62.25Y-40.859
X62.262Y-39.478
X62.276Y-38.515
X62.349Y-32.824
X63.063Y-29.175
X63.266Y-32.299
X63.52Y-42.51
X64.11Y-32.447
X64.664Y-32.756
X65.151Y-36.449
X65.151Y-37.846
X65.151Y-39.116
X66.04Y-29.845
X66.04Y-32.131
X66.421Y-36.449
X66.421Y-37.846
X66.421Y-39.116
X67.076Y-43.272
X67.691Y-36.449
X67.691Y-37.846
X67.691Y-39.116
X67.965Y-30.064
X68.175Y-42.44
X68.512Y-42.978
X70.505Y-41.982
X70.512Y-38.478
X70.632Y-31.715
X70.886Y-36.414
X71.013Y-38.954
X71.089Y-41.062
X71.394Y-35.652
X71.755Y-30.734
X73.02Y-29.149
X73.02Y-29.81
X73.02Y-30.47
X73.02Y-31.131
X73.02Y-31.791
X73.02Y-32.451
X73.045Y-33.467
X73.045Y-34.097
X73.045Y-34.727
X73.045Y-35.357
X73.045Y-35.987
X73.045Y-36.617
X73.045Y-37.247
X73.045Y-37.877
X73.045Y-38.507
X73.045Y-39.137
X73.045Y-39.767
X73.045Y-40.396
X73.045Y-41.026
X73.045Y-41.656
X73.045Y-42.286
X73.045Y-42.916
X73.629Y-29.149
X73.652Y-42.916
X74.239Y-29.149
X74.259Y-42.916
X74.849Y-29.149
X74.866Y-42.916
X75.458Y-29.149
X75.472Y-42.916
X76.068Y-29.149
X76.079Y-42.916
X76.677Y-29.149
X76.686Y-42.916
X77.287Y-29.149
X77.293Y-42.916
X77.897Y-29.149
X77.899Y-42.916
T3
X30.226Y-44.958
X32.766Y-44.958
X35.306Y-44.958
X37.846Y-44.958
X40.386Y-44.958
X42.926Y-44.958
X45.466Y-27.178
X45.466Y-44.958
X48.006Y-27.178
X48.006Y-44.958
X50.546Y-27.178
X50.546Y-44.958
X53.086Y-27.178
X53.086Y-44.958
X55.626Y-27.178
X55.626Y-44.958
X58.166Y-27.178
X58.166Y-44.958
X60.706Y-27.178
X60.706Y-44.958
X63.246Y-27.178
X63.246Y-44.958
X65.786Y-27.178
X65.786Y-44.958
X68.326Y-27.178
X68.326Y-44.958
X70.866Y-27.178
X70.866Y-44.958
X73.406Y-27.178
X73.406Y-44.958
T2
G00X28.206Y-31.748
M15
G01X27.606Y-31.748
M16
G05
G00X28.206Y-40.388
M15
G01X27.606Y-40.388
M16
G05
G00X32.636Y-31.748
M15
G01X31.536Y-31.748
M16
G05
G00X32.636Y-40.388
M15
G01X31.536Y-40.388
M16
G05
T0
M30
